<svg width="22" height="22" viewBox="0 0 22 22" fill="none" xmlns="http://www.w3.org/2000/svg">
<path d="M3.6665 7.33331H18.3332M14.6665 1.83331V3.66665M7.33317 1.83331V3.66665M6.60002 3.66665H15.4C16.4268 3.66665 16.9398 3.66665 17.332 3.86647C17.6769 4.04224 17.9578 4.32272 18.1335 4.66768C18.3334 5.05986 18.3332 5.57317 18.3332 6.59993V15.3999C18.3332 16.4267 18.3334 16.9402 18.1335 17.3323C17.9578 17.6773 17.6769 17.9577 17.332 18.1335C16.9398 18.3333 16.4268 18.3333 15.4 18.3333H6.60002C5.57325 18.3333 5.05949 18.3333 4.66732 18.1335C4.32235 17.9577 4.04209 17.6773 3.86633 17.3323C3.6665 16.9402 3.6665 16.4267 3.6665 15.3999V6.59993C3.6665 5.57317 3.6665 5.05986 3.86633 4.66768C4.04209 4.32272 4.32235 4.04224 4.66732 3.86647C5.05949 3.66665 5.57325 3.66665 6.60002 3.66665Z" stroke="#A6A6B0" stroke-width="2" stroke-linecap="round" stroke-linejoin="round"/>
</svg>
