<svg width="64" height="64" viewBox="0 0 64 64" fill="none" xmlns="http://www.w3.org/2000/svg">
<path d="M40 34.6667L29.3333 45.3333L24 40M50.6672 24H43.2005C40.2136 24 38.719 23.9999 37.5781 23.4186C36.5746 22.9073 35.7593 22.0914 35.248 21.0879C34.6667 19.9471 34.6667 18.4536 34.6667 15.4667V8M50.6667 47.4667V24.868C50.6667 23.5635 50.6656 22.9112 50.5182 22.2974C50.3876 21.7532 50.1725 21.233 49.8801 20.7558C49.5503 20.2176 49.0904 19.7564 48.168 18.834L39.8333 10.4993C38.9109 9.57695 38.4497 9.11579 37.9115 8.78597C37.4343 8.49355 36.9142 8.27801 36.37 8.14736C35.7562 8 35.1037 8 33.7992 8H21.8672C18.8803 8 17.3857 8 16.2448 8.5813C15.2413 9.09262 14.426 9.90858 13.9146 10.9121C13.3333 12.053 13.3333 13.5464 13.3333 16.5334V47.4667C13.3333 50.4536 13.3333 51.9471 13.9146 53.0879C14.426 54.0915 15.2413 54.9073 16.2448 55.4186C17.3857 55.9999 18.8803 56 21.8672 56H42.1339C45.1208 56 46.6132 55.9999 47.7541 55.4186C48.7576 54.9073 49.5746 54.0914 50.0859 53.0879C50.6672 51.947 50.6667 50.4537 50.6667 47.4667Z" stroke="url(#paint0_linear_575_61)" stroke-width="2" stroke-linecap="round" stroke-linejoin="round"/>
<defs>
<linearGradient id="paint0_linear_575_61" x1="11.472" y1="-5.94599" x2="55.6842" y2="-4.90522" gradientUnits="userSpaceOnUse">
<stop stop-color="#7CCBF2"/>
<stop offset="1" stop-color="#0F9EE4"/>
</linearGradient>
</defs>
</svg>
