<svg width="64" height="88" viewBox="0 0 64 88" fill="none" xmlns="http://www.w3.org/2000/svg">
<path d="M2.50373 40.7387V34.3392H0V33.1461H6.41042V34.3392H3.90669V40.7387H2.50373Z" fill="#64BDE9"/>
<path d="M10.8977 40.8472C10.3077 40.8472 9.76453 40.7496 9.2681 40.5543C8.77167 40.3591 8.33999 40.0879 7.97306 39.7408C7.60614 39.3865 7.32195 38.9743 7.1205 38.5043C6.91905 38.0271 6.81833 37.5064 6.81833 36.9424C6.81833 36.3784 6.91905 35.8614 7.1205 35.3913C7.32195 34.9141 7.60614 34.5019 7.97306 34.1548C8.33999 33.8005 8.77167 33.5257 9.2681 33.3305C9.76453 33.1352 10.3041 33.0376 10.8869 33.0376C11.4769 33.0376 12.0165 33.1352 12.5057 33.3305C13.0021 33.5257 13.4338 33.8005 13.8007 34.1548C14.1676 34.5019 14.4518 34.9141 14.6533 35.3913C14.8547 35.8614 14.9555 36.3784 14.9555 36.9424C14.9555 37.5064 14.8547 38.0271 14.6533 38.5043C14.4518 38.9816 14.1676 39.3938 13.8007 39.7408C13.4338 40.0879 13.0021 40.3591 12.5057 40.5543C12.0165 40.7496 11.4805 40.8472 10.8977 40.8472ZM10.8869 39.6107C11.2682 39.6107 11.6207 39.5456 11.9445 39.4154C12.2683 39.2853 12.5489 39.1009 12.7863 38.8623C13.0237 38.6164 13.2072 38.3344 13.3367 38.0162C13.4734 37.6908 13.5417 37.3329 13.5417 36.9424C13.5417 36.5519 13.4734 36.1976 13.3367 35.8794C13.2072 35.554 13.0237 35.272 12.7863 35.0334C12.5489 34.7875 12.2683 34.5995 11.9445 34.4694C11.6207 34.3392 11.2682 34.2741 10.8869 34.2741C10.5056 34.2741 10.153 34.3392 9.82928 34.4694C9.51272 34.5995 9.23213 34.7875 8.98751 35.0334C8.75009 35.272 8.56302 35.554 8.42633 35.8794C8.29682 36.1976 8.23207 36.5519 8.23207 36.9424C8.23207 37.3257 8.29682 37.68 8.42633 38.0054C8.56302 38.3308 8.75009 38.6164 8.98751 38.8623C9.22493 39.1009 9.50552 39.2853 9.82928 39.4154C10.153 39.5456 10.5056 39.6107 10.8869 39.6107Z" fill="#64BDE9"/>
<path d="M16.4426 40.7387V33.1461H19.5506C20.2197 33.1461 20.7917 33.2545 21.2666 33.4715C21.7486 33.6884 22.1191 33.9993 22.3781 34.4043C22.6371 34.8092 22.7666 35.2901 22.7666 35.8469C22.7666 36.4037 22.6371 36.8846 22.3781 37.2895C22.1191 37.6944 21.7486 38.0054 21.2666 38.2223C20.7917 38.4392 20.2197 38.5477 19.5506 38.5477H17.2196L17.8455 37.8861V40.7387H16.4426ZM17.8455 38.0379L17.2196 37.3546H19.4859C20.1046 37.3546 20.5687 37.2244 20.8781 36.9641C21.1946 36.6965 21.3529 36.3241 21.3529 35.8469C21.3529 35.3624 21.1946 34.99 20.8781 34.7297C20.5687 34.4694 20.1046 34.3392 19.4859 34.3392H17.2196L17.8455 33.645V38.0379Z" fill="#64BDE9"/>
<path d="M27.2556 40.7387V33.1461H30.3637C31.0328 33.1461 31.6048 33.2545 32.0796 33.4715C32.5616 33.6884 32.9322 33.9993 33.1912 34.4043C33.4502 34.8092 33.5797 35.2901 33.5797 35.8469C33.5797 36.4037 33.4502 36.8846 33.1912 37.2895C32.9322 37.6872 32.5616 37.9945 32.0796 38.2115C31.6048 38.4212 31.0328 38.526 30.3637 38.526H28.0326L28.6585 37.8861V40.7387H27.2556ZM32.1983 40.7387L30.2881 37.9837H31.7882L33.7092 40.7387H32.1983ZM28.6585 38.0379L28.0326 37.3654H30.2989C30.9177 37.3654 31.3817 37.2316 31.6911 36.9641C32.0077 36.6965 32.1659 36.3241 32.1659 35.8469C32.1659 35.3624 32.0077 34.99 31.6911 34.7297C31.3817 34.4694 30.9177 34.3392 30.2989 34.3392H28.0326L28.6585 33.645V38.0379Z" fill="#64BDE9"/>
<path d="M34.0809 40.7387L37.4804 33.1461H38.8618L42.272 40.7387H40.8043L37.8797 33.8945H38.4409L35.527 40.7387H34.0809ZM35.6458 38.9816L36.0235 37.8752H40.1028L40.4805 38.9816H35.6458Z" fill="#64BDE9"/>
<path d="M44.3858 40.7387V34.3392H41.8821V33.1461H48.2925V34.3392H45.7888V40.7387H44.3858Z" fill="#64BDE9"/>
<path d="M50.6404 36.3025H54.396V37.463H50.6404V36.3025ZM50.7483 39.5565H55.0112V40.7387H49.3454V33.1461H54.8601V34.3284H50.7483V39.5565Z" fill="#64BDE9"/>
<path d="M56.5751 40.7387V33.1461H59.8775C60.6977 33.1461 61.4171 33.3051 62.0359 33.6233C62.6546 33.9415 63.1367 34.3826 63.482 34.9466C63.8273 35.5106 64 36.1759 64 36.9424C64 37.7017 63.8273 38.3669 63.482 38.9382C63.1367 39.5022 62.6546 39.9433 62.0359 40.2615C61.4171 40.5797 60.6977 40.7387 59.8775 40.7387H56.5751ZM57.9781 39.5456H59.8127C60.3811 39.5456 60.8704 39.4371 61.2804 39.2202C61.6977 39.0033 62.0179 38.6996 62.2409 38.3091C62.4712 37.9186 62.5863 37.463 62.5863 36.9424C62.5863 36.4145 62.4712 35.959 62.2409 35.5757C62.0179 35.1852 61.6977 34.8815 61.2804 34.6646C60.8704 34.4477 60.3811 34.3392 59.8127 34.3392H57.9781V39.5456Z" fill="#64BDE9"/>
<path fill-rule="evenodd" clip-rule="evenodd" d="M19.4885 0V18.3656L32.2462 28.0217L45.0038 18.3656V0H19.4885ZM32.2462 5.3014L28.7834 9.65611L24.0448 7.95209L26.7786 14.3895H37.7137L40.4475 7.95209L35.709 9.65611L32.2462 5.3014ZM26.7786 17.7975V16.2829H37.7137V17.7975H26.7786Z" fill="#64BDE9"/>
<path d="M11.6461 67.8799V56.4246L12.6506 57.4644H9.03784V55.5435H13.9372V67.8799H11.6461ZM21.5304 68.0561C20.5552 68.0561 19.674 67.8094 18.8869 67.3159C18.1114 66.8225 17.5005 66.1058 17.054 65.1659C16.6076 64.2142 16.3843 63.0628 16.3843 61.7117C16.3843 60.3605 16.6076 59.215 17.054 58.2751C17.5005 57.3234 18.1114 56.6009 18.8869 56.1074C19.674 55.614 20.5552 55.3672 21.5304 55.3672C22.5173 55.3672 23.3985 55.614 24.1739 56.1074C24.9493 56.6009 25.5603 57.3234 26.0067 58.2751C26.4649 59.215 26.6941 60.3605 26.6941 61.7117C26.6941 63.0628 26.4649 64.2142 26.0067 65.1659C25.5603 66.1058 24.9493 66.8225 24.1739 67.3159C23.3985 67.8094 22.5173 68.0561 21.5304 68.0561ZM21.5304 66.0647C22.1061 66.0647 22.6054 65.9119 23.0284 65.6065C23.4513 65.2892 23.7803 64.8075 24.0153 64.1613C24.262 63.5151 24.3854 62.6986 24.3854 61.7117C24.3854 60.713 24.262 59.8965 24.0153 59.262C23.7803 58.6158 23.4513 58.14 23.0284 57.8345C22.6054 57.5173 22.1061 57.3587 21.5304 57.3587C20.9782 57.3587 20.4847 57.5173 20.05 57.8345C19.6271 58.14 19.2922 58.6158 19.0455 59.262C18.8105 59.8965 18.693 60.713 18.693 61.7117C18.693 62.6986 18.8105 63.5151 19.0455 64.1613C19.2922 64.8075 19.6271 65.2892 20.05 65.6065C20.4847 65.9119 20.9782 66.0647 21.5304 66.0647ZM33.3883 68.0561C32.4132 68.0561 31.532 67.8094 30.7448 67.3159C29.9694 66.8225 29.3585 66.1058 28.912 65.1659C28.4655 64.2142 28.2423 63.0628 28.2423 61.7117C28.2423 60.3605 28.4655 59.215 28.912 58.2751C29.3585 57.3234 29.9694 56.6009 30.7448 56.1074C31.532 55.614 32.4132 55.3672 33.3883 55.3672C34.3753 55.3672 35.2564 55.614 36.0319 56.1074C36.8073 56.6009 37.4182 57.3234 37.8647 58.2751C38.3229 59.215 38.552 60.3605 38.552 61.7117C38.552 63.0628 38.3229 64.2142 37.8647 65.1659C37.4182 66.1058 36.8073 66.8225 36.0319 67.3159C35.2564 67.8094 34.3753 68.0561 33.3883 68.0561ZM33.3883 66.0647C33.964 66.0647 34.4634 65.9119 34.8863 65.6065C35.3093 65.2892 35.6383 64.8075 35.8733 64.1613C36.12 63.5151 36.2433 62.6986 36.2433 61.7117C36.2433 60.713 36.12 59.8965 35.8733 59.262C35.6383 58.6158 35.3093 58.14 34.8863 57.8345C34.4634 57.5173 33.964 57.3587 33.3883 57.3587C32.8361 57.3587 32.3427 57.5173 31.908 57.8345C31.485 58.14 31.1502 58.6158 30.9034 59.262C30.6685 59.8965 30.551 60.713 30.551 61.7117C30.551 62.6986 30.6685 63.5151 30.9034 64.1613C31.1502 64.8075 31.485 65.2892 31.908 65.6065C32.3427 65.9119 32.8361 66.0647 33.3883 66.0647ZM41.8274 67.8799L50.2514 55.5435H51.9785L43.5545 67.8799H41.8274ZM42.8495 62.1875C42.2738 62.1875 41.7627 62.0465 41.3163 61.7645C40.8698 61.4826 40.5232 61.089 40.2765 60.5838C40.0298 60.0786 39.9064 59.4852 39.9064 58.8038C39.9064 58.1224 40.0298 57.529 40.2765 57.0238C40.5232 56.5186 40.8698 56.125 41.3163 55.8431C41.7627 55.5611 42.2738 55.4201 42.8495 55.4201C43.4487 55.4201 43.9657 55.5611 44.4004 55.8431C44.8468 56.125 45.1934 56.5186 45.4402 57.0238C45.6869 57.529 45.8103 58.1224 45.8103 58.8038C45.8103 59.4852 45.6869 60.0786 45.4402 60.5838C45.1934 61.089 44.8468 61.4826 44.4004 61.7645C43.9657 62.0465 43.4487 62.1875 42.8495 62.1875ZM42.8671 60.9539C43.3371 60.9539 43.7013 60.7718 43.9598 60.4075C44.23 60.0316 44.3651 59.497 44.3651 58.8038C44.3651 58.1106 44.23 57.5819 43.9598 57.2177C43.7013 56.8417 43.3371 56.6537 42.8671 56.6537C42.3972 56.6537 42.0212 56.8417 41.7392 57.2177C41.469 57.5937 41.3339 58.1224 41.3339 58.8038C41.3339 59.4852 41.469 60.014 41.7392 60.3899C42.0212 60.7659 42.3972 60.9539 42.8671 60.9539ZM50.9387 68.0032C50.363 68.0032 49.8519 67.8623 49.4054 67.5803C48.959 67.2983 48.6124 66.9047 48.3657 66.3995C48.1189 65.8943 47.9956 65.301 47.9956 64.6195C47.9956 63.9381 48.1189 63.3448 48.3657 62.8396C48.6124 62.3344 48.959 61.9408 49.4054 61.6588C49.8519 61.3768 50.363 61.2358 50.9387 61.2358C51.5379 61.2358 52.0548 61.3768 52.4895 61.6588C52.936 61.9408 53.2826 62.3344 53.5293 62.8396C53.7761 63.3448 53.8994 63.9381 53.8994 64.6195C53.8994 65.301 53.7761 65.8943 53.5293 66.3995C53.2826 66.9047 52.936 67.2983 52.4895 67.5803C52.0548 67.8623 51.5379 68.0032 50.9387 68.0032ZM50.9387 66.7696C51.4086 66.7696 51.7787 66.5816 52.049 66.2057C52.3192 65.8297 52.4543 65.301 52.4543 64.6195C52.4543 63.9381 52.3192 63.4094 52.049 63.0334C51.7787 62.6575 51.4086 62.4695 50.9387 62.4695C50.4805 62.4695 50.1104 62.6575 49.8284 63.0334C49.5582 63.3977 49.4231 63.9264 49.4231 64.6195C49.4231 65.3127 49.5582 65.8473 49.8284 66.2233C50.1104 66.5875 50.4805 66.7696 50.9387 66.7696Z" fill="black"/>
<path opacity="0.5" d="M8.57248 86.0831C8.24523 86.0831 7.93739 86.011 7.64896 85.8668C7.36608 85.7226 7.13867 85.5174 6.96672 85.2511L7.32448 84.8351C7.48533 85.0681 7.67115 85.2456 7.88192 85.3676C8.09269 85.4896 8.32565 85.5506 8.5808 85.5506C9.30187 85.5506 9.6624 85.1235 9.6624 84.2694V80.7417H7.53248V80.2092H10.2698V84.2444C10.2698 84.8601 10.1255 85.3205 9.83712 85.6255C9.55424 85.9306 9.13269 86.0831 8.57248 86.0831ZM13.7723 86.0748C13.3507 86.0748 12.9708 85.9805 12.6324 85.7919C12.2996 85.5978 12.0362 85.3343 11.842 85.0015C11.6479 84.6632 11.5508 84.2777 11.5508 83.845C11.5508 83.4069 11.6479 83.0214 11.842 82.6886C12.0362 82.3558 12.2996 82.0951 12.6324 81.9065C12.9652 81.7179 13.3452 81.6236 13.7723 81.6236C14.2049 81.6236 14.5876 81.7179 14.9204 81.9065C15.2588 82.0951 15.5223 82.3558 15.7108 82.6886C15.905 83.0214 16.002 83.4069 16.002 83.845C16.002 84.2777 15.905 84.6632 15.7108 85.0015C15.5223 85.3343 15.2588 85.5978 14.9204 85.7919C14.5821 85.9805 14.1994 86.0748 13.7723 86.0748ZM13.7723 85.5506C14.0884 85.5506 14.3686 85.4813 14.6126 85.3426C14.8567 85.1984 15.048 84.9987 15.1867 84.7436C15.3309 84.4829 15.403 84.1834 15.403 83.845C15.403 83.5011 15.3309 83.2016 15.1867 82.9465C15.048 82.6913 14.8567 82.4944 14.6126 82.3558C14.3686 82.2115 14.0912 82.1394 13.7806 82.1394C13.47 82.1394 13.1927 82.2115 12.9486 82.3558C12.7046 82.4944 12.5104 82.6913 12.3662 82.9465C12.222 83.2016 12.1499 83.5011 12.1499 83.845C12.1499 84.1834 12.222 84.4829 12.3662 84.7436C12.5104 84.9987 12.7046 85.1984 12.9486 85.3426C13.1927 85.4813 13.4672 85.5506 13.7723 85.5506ZM19.4628 86.0748C19.0801 86.0748 18.7362 85.9888 18.4311 85.8169C18.126 85.6394 17.8848 85.3842 17.7073 85.0514C17.5298 84.7186 17.441 84.3165 17.441 83.845C17.441 83.368 17.5298 82.9659 17.7073 82.6386C17.8903 82.3058 18.1344 82.0535 18.4394 81.8815C18.7445 81.7096 19.0856 81.6236 19.4628 81.6236C19.8788 81.6236 20.2504 81.7179 20.5777 81.9065C20.9105 82.0895 21.1712 82.3474 21.3597 82.6802C21.5483 83.013 21.6426 83.4013 21.6426 83.845C21.6426 84.2832 21.5483 84.6715 21.3597 85.0098C21.1712 85.3426 20.9105 85.6033 20.5777 85.7919C20.2504 85.9805 19.8788 86.0748 19.4628 86.0748ZM17.2081 86.0332V79.8598H17.7988V82.9548L17.7156 83.8367L17.7738 84.7186V86.0332H17.2081ZM19.4212 85.5506C19.7318 85.5506 20.0091 85.4813 20.2532 85.3426C20.4972 85.1984 20.6914 84.9987 20.8356 84.7436C20.9798 84.4829 21.0519 84.1834 21.0519 83.845C21.0519 83.5011 20.9798 83.2016 20.8356 82.9465C20.6914 82.6913 20.4972 82.4944 20.2532 82.3558C20.0091 82.2115 19.7318 82.1394 19.4212 82.1394C19.1106 82.1394 18.8305 82.2115 18.5809 82.3558C18.3368 82.4944 18.1427 82.6913 17.9985 82.9465C17.8598 83.2016 17.7905 83.5011 17.7905 83.845C17.7905 84.1834 17.8598 84.4829 17.9985 84.7436C18.1427 84.9987 18.3368 85.1984 18.5809 85.3426C18.8305 85.4813 19.1106 85.5506 19.4212 85.5506ZM26.7549 86.0831C26.3222 86.0831 25.9062 86.0138 25.5069 85.8751C25.1131 85.7309 24.808 85.5479 24.5917 85.326L24.8329 84.8518C25.0382 85.0514 25.3127 85.2206 25.6566 85.3593C26.0061 85.4924 26.3721 85.559 26.7549 85.559C27.1209 85.559 27.4177 85.5146 27.6451 85.4258C27.8781 85.3315 28.0472 85.2067 28.1526 85.0514C28.2636 84.8961 28.319 84.7242 28.319 84.5356C28.319 84.3082 28.2525 84.1251 28.1193 83.9865C27.9918 83.8478 27.8226 83.7397 27.6118 83.662C27.4011 83.5788 27.1681 83.5067 26.9129 83.4457C26.6578 83.3847 26.4027 83.3209 26.1475 83.2543C25.8924 83.1822 25.6566 83.0879 25.4403 82.9714C25.2295 82.855 25.0576 82.7024 24.9245 82.5138C24.7969 82.3197 24.7331 82.0673 24.7331 81.7567C24.7331 81.4683 24.808 81.2048 24.9577 80.9663C25.1131 80.7223 25.3488 80.5281 25.6649 80.3839C25.9811 80.2342 26.386 80.1593 26.8797 80.1593C27.2069 80.1593 27.5314 80.2064 27.8531 80.3007C28.1748 80.3895 28.4521 80.5143 28.6851 80.6751L28.4771 81.166C28.2275 80.9996 27.9613 80.8776 27.6784 80.7999C27.4011 80.7223 27.132 80.6834 26.8713 80.6834C26.5219 80.6834 26.2335 80.7306 26.0061 80.8249C25.7787 80.9192 25.6095 81.0467 25.4985 81.2076C25.3932 81.3629 25.3405 81.5404 25.3405 81.7401C25.3405 81.9675 25.4043 82.1505 25.5318 82.2892C25.6649 82.4279 25.8369 82.536 26.0477 82.6137C26.264 82.6913 26.4997 82.7607 26.7549 82.8217C27.01 82.8827 27.2624 82.9493 27.512 83.0214C27.7671 83.0935 28.0001 83.1878 28.2109 83.3042C28.4272 83.4152 28.5991 83.5649 28.7267 83.7535C28.8598 83.9421 28.9264 84.1889 28.9264 84.494C28.9264 84.7769 28.8487 85.0403 28.6934 85.2844C28.5381 85.5229 28.2996 85.717 27.9779 85.8668C27.6617 86.011 27.2541 86.0831 26.7549 86.0831ZM31.9485 86.0748C31.5769 86.0748 31.2524 86.0055 30.9751 85.8668C30.6977 85.7281 30.4814 85.5201 30.3261 85.2428C30.1763 84.9655 30.1015 84.6188 30.1015 84.2028V81.6652H30.6922V84.1362C30.6922 84.6022 30.8059 84.9544 31.0333 85.1929C31.2663 85.4258 31.5907 85.5423 32.0067 85.5423C32.3118 85.5423 32.5753 85.4813 32.7971 85.3593C33.0246 85.2317 33.1965 85.0487 33.313 84.8102C33.435 84.5717 33.496 84.286 33.496 83.9532V81.6652H34.0867V86.0332H33.521V84.8351L33.6125 85.0514C33.4738 85.3731 33.2575 85.6255 32.9635 85.8086C32.6751 85.9861 32.3368 86.0748 31.9485 86.0748ZM37.5468 86.0748C37.1142 86.0748 36.7259 85.9805 36.382 85.7919C36.0437 85.5978 35.7774 85.3343 35.5833 85.0015C35.3892 84.6632 35.2921 84.2777 35.2921 83.845C35.2921 83.4069 35.3892 83.0214 35.5833 82.6886C35.7774 82.3558 36.0437 82.0951 36.382 81.9065C36.7259 81.7179 37.1142 81.6236 37.5468 81.6236C37.9184 81.6236 38.254 81.6957 38.5535 81.8399C38.8531 81.9841 39.0888 82.2005 39.2607 82.4889L38.8198 82.7884C38.67 82.5665 38.4842 82.4029 38.2623 82.2975C38.0405 82.1921 37.7992 82.1394 37.5385 82.1394C37.2279 82.1394 36.9478 82.2115 36.6982 82.3558C36.4486 82.4944 36.2517 82.6913 36.1075 82.9465C35.9632 83.2016 35.8911 83.5011 35.8911 83.845C35.8911 84.1889 35.9632 84.4885 36.1075 84.7436C36.2517 84.9987 36.4486 85.1984 36.6982 85.3426C36.9478 85.4813 37.2279 85.5506 37.5385 85.5506C37.7992 85.5506 38.0405 85.4979 38.2623 85.3926C38.4842 85.2872 38.67 85.1263 38.8198 84.91L39.2607 85.2095C39.0888 85.4924 38.8531 85.7087 38.5535 85.8585C38.254 86.0027 37.9184 86.0748 37.5468 86.0748ZM42.1618 86.0748C41.7292 86.0748 41.3409 85.9805 40.997 85.7919C40.6587 85.5978 40.3924 85.3343 40.1983 85.0015C40.0042 84.6632 39.9071 84.2777 39.9071 83.845C39.9071 83.4069 40.0042 83.0214 40.1983 82.6886C40.3924 82.3558 40.6587 82.0951 40.997 81.9065C41.3409 81.7179 41.7292 81.6236 42.1618 81.6236C42.5334 81.6236 42.869 81.6957 43.1685 81.8399C43.4681 81.9841 43.7038 82.2005 43.8757 82.4889L43.4348 82.7884C43.285 82.5665 43.0992 82.4029 42.8773 82.2975C42.6555 82.1921 42.4142 82.1394 42.1535 82.1394C41.8429 82.1394 41.5628 82.2115 41.3132 82.3558C41.0636 82.4944 40.8667 82.6913 40.7225 82.9465C40.5782 83.2016 40.5061 83.5011 40.5061 83.845C40.5061 84.1889 40.5782 84.4885 40.7225 84.7436C40.8667 84.9987 41.0636 85.1984 41.3132 85.3426C41.5628 85.4813 41.8429 85.5506 42.1535 85.5506C42.4142 85.5506 42.6555 85.4979 42.8773 85.3926C43.0992 85.2872 43.285 85.1263 43.4348 84.91L43.8757 85.2095C43.7038 85.4924 43.4681 85.7087 43.1685 85.8585C42.869 86.0027 42.5334 86.0748 42.1618 86.0748ZM46.8184 86.0748C46.3636 86.0748 45.9642 85.9805 45.6203 85.7919C45.2764 85.5978 45.0074 85.3343 44.8133 85.0015C44.6192 84.6632 44.5221 84.2777 44.5221 83.845C44.5221 83.4124 44.6136 83.0297 44.7967 82.6969C44.9852 82.3641 45.2404 82.1034 45.5621 81.9148C45.8894 81.7207 46.2554 81.6236 46.6603 81.6236C47.0708 81.6236 47.4341 81.7179 47.7503 81.9065C48.072 82.0895 48.3243 82.3502 48.5074 82.6886C48.6904 83.0214 48.7819 83.4069 48.7819 83.845C48.7819 83.8728 48.7792 83.9033 48.7736 83.9366C48.7736 83.9643 48.7736 83.9948 48.7736 84.0281H44.9714V83.5871H48.4575L48.2245 83.7618C48.2245 83.4457 48.1552 83.1656 48.0165 82.9215C47.8834 82.6719 47.7003 82.4778 47.4674 82.3391C47.2344 82.2005 46.9654 82.1311 46.6603 82.1311C46.3608 82.1311 46.0918 82.2005 45.8533 82.3391C45.6148 82.4778 45.429 82.6719 45.2959 82.9215C45.1627 83.1711 45.0962 83.4568 45.0962 83.7785V83.87C45.0962 84.2028 45.1683 84.4968 45.3125 84.7519C45.4623 85.0015 45.6675 85.1984 45.9282 85.3426C46.1944 85.4813 46.4967 85.5506 46.8351 85.5506C47.1013 85.5506 47.3481 85.5035 47.5755 85.4092C47.8085 85.3149 48.0082 85.1707 48.1746 84.9766L48.5074 85.3593C48.3132 85.5922 48.0692 85.7697 47.7752 85.8918C47.4868 86.0138 47.1679 86.0748 46.8184 86.0748ZM51.1574 86.0748C50.7969 86.0748 50.4558 86.0249 50.1341 85.925C49.8124 85.8197 49.56 85.6893 49.377 85.534L49.6432 85.0681C49.8207 85.2012 50.0481 85.3177 50.3254 85.4175C50.6028 85.5118 50.894 85.559 51.199 85.559C51.615 85.559 51.9146 85.4952 52.0976 85.3676C52.2806 85.2345 52.3722 85.0598 52.3722 84.8434C52.3722 84.6826 52.3195 84.5578 52.2141 84.469C52.1142 84.3747 51.9811 84.3054 51.8147 84.261C51.6483 84.2111 51.4625 84.1695 51.2573 84.1362C51.052 84.103 50.8468 84.0641 50.6416 84.0198C50.4419 83.9754 50.2589 83.9116 50.0925 83.8284C49.9261 83.7397 49.7902 83.6204 49.6848 83.4706C49.585 83.3209 49.535 83.1212 49.535 82.8716C49.535 82.6331 49.6016 82.4195 49.7347 82.231C49.8678 82.0424 50.062 81.8954 50.3171 81.79C50.5778 81.6791 50.894 81.6236 51.2656 81.6236C51.5485 81.6236 51.8314 81.6624 52.1142 81.7401C52.3971 81.8122 52.6301 81.9093 52.8131 82.0313L52.5552 82.5055C52.3611 82.3724 52.1531 82.2781 51.9312 82.2226C51.7093 82.1616 51.4875 82.1311 51.2656 82.1311C50.8718 82.1311 50.5806 82.2005 50.392 82.3391C50.209 82.4722 50.1174 82.6442 50.1174 82.855C50.1174 83.0214 50.1674 83.1517 50.2672 83.246C50.3726 83.3403 50.5085 83.4152 50.6749 83.4706C50.8468 83.5206 51.0326 83.5622 51.2323 83.5954C51.4375 83.6287 51.64 83.6703 51.8397 83.7202C52.0449 83.7646 52.2307 83.8284 52.3971 83.9116C52.5691 83.9893 52.705 84.103 52.8048 84.2527C52.9102 84.3969 52.9629 84.5883 52.9629 84.8268C52.9629 85.0819 52.8908 85.3038 52.7466 85.4924C52.6079 85.6754 52.4027 85.8197 52.1309 85.925C51.8646 86.0249 51.5402 86.0748 51.1574 86.0748ZM55.2199 86.0748C54.8594 86.0748 54.5183 86.0249 54.1966 85.925C53.8749 85.8197 53.6225 85.6893 53.4395 85.534L53.7057 85.0681C53.8832 85.2012 54.1106 85.3177 54.3879 85.4175C54.6653 85.5118 54.9565 85.559 55.2615 85.559C55.6775 85.559 55.9771 85.4952 56.1601 85.3676C56.3431 85.2345 56.4347 85.0598 56.4347 84.8434C56.4347 84.6826 56.382 84.5578 56.2766 84.469C56.1767 84.3747 56.0436 84.3054 55.8772 84.261C55.7108 84.2111 55.525 84.1695 55.3198 84.1362C55.1145 84.103 54.9093 84.0641 54.7041 84.0198C54.5044 83.9754 54.3214 83.9116 54.155 83.8284C53.9886 83.7397 53.8527 83.6204 53.7473 83.4706C53.6475 83.3209 53.5975 83.1212 53.5975 82.8716C53.5975 82.6331 53.6641 82.4195 53.7972 82.231C53.9303 82.0424 54.1245 81.8954 54.3796 81.79C54.6403 81.6791 54.9565 81.6236 55.3281 81.6236C55.611 81.6236 55.8939 81.6624 56.1767 81.7401C56.4596 81.8122 56.6926 81.9093 56.8756 82.0313L56.6177 82.5055C56.4236 82.3724 56.2156 82.2781 55.9937 82.2226C55.7718 82.1616 55.55 82.1311 55.3281 82.1311C54.9343 82.1311 54.6431 82.2005 54.4545 82.3391C54.2715 82.4722 54.1799 82.6442 54.1799 82.855C54.1799 83.0214 54.2299 83.1517 54.3297 83.246C54.4351 83.3403 54.571 83.4152 54.7374 83.4706C54.9093 83.5206 55.0951 83.5622 55.2948 83.5954C55.5 83.6287 55.7025 83.6703 55.9022 83.7202C56.1074 83.7646 56.2932 83.8284 56.4596 83.9116C56.6316 83.9893 56.7675 84.103 56.8673 84.2527C56.9727 84.3969 57.0254 84.5883 57.0254 84.8268C57.0254 85.0819 56.9533 85.3038 56.8091 85.4924C56.6704 85.6754 56.4652 85.8197 56.1934 85.925C55.9271 86.0249 55.6027 86.0748 55.2199 86.0748Z" fill="black"/>
<rect y="72.8813" width="64" height="3.22005" fill="#64BDE9"/>
</svg>
