<svg width="64" height="64" viewBox="0 0 64 64" fill="none" xmlns="http://www.w3.org/2000/svg">
<g clip-path="url(#clip0_38_228)">
<path d="M0 4.58456C0 2.05326 2.1174 0 4.72948 0H59.2705C61.8825 0 64 2.05326 64 4.58456V59.4154C64 61.9476 61.8825 64 59.2705 64H4.72948C2.1174 64 0 61.9476 0 59.4154V4.58456Z" fill="#1D9BF0"/>
<g clip-path="url(#clip1_38_228)">
<path d="M50.9581 22.0567C50.9871 22.4822 50.9872 22.9077 50.9872 23.3371C50.9872 36.4214 41.1549 51.5116 23.1762 51.5116V51.5038C17.8652 51.5116 12.6646 49.9704 8.1936 47.0646C8.96586 47.1587 9.74199 47.2057 10.5201 47.2077C14.9213 47.2116 19.1968 45.7155 22.6594 42.9606C18.4768 42.8802 14.8091 40.1175 13.5278 36.0842C14.993 36.3704 16.5026 36.3116 17.9407 35.9136C13.3807 34.9802 10.1001 30.9214 10.1001 26.2077V26.0822C11.4588 26.8489 12.9801 27.2744 14.5362 27.3214C10.2413 24.4136 8.91747 18.6253 11.511 14.0999C16.4736 20.2861 23.7955 24.0469 31.6555 24.445C30.8678 21.0057 31.9439 17.4018 34.4833 14.9842C38.4201 11.2351 44.6117 11.4273 48.3123 15.4136C50.5013 14.9763 52.5994 14.1626 54.5194 13.0097C53.7897 15.3018 52.2626 17.2489 50.2226 18.4861C52.1601 18.2548 54.053 17.7293 55.8355 16.9273C54.5233 18.9195 52.8704 20.6548 50.9581 22.0567Z" fill="white"/>
</g>
</g>
<defs>
<clipPath id="clip0_38_228">
<rect width="64" height="64" fill="white"/>
</clipPath>
<clipPath id="clip1_38_228">
<rect width="48" height="40" fill="white" transform="translate(8 12)"/>
</clipPath>
</defs>
</svg>
