<svg width="64" height="64" viewBox="0 0 64 64" fill="none" xmlns="http://www.w3.org/2000/svg">
<g clip-path="url(#clip0_54_410)">
<path d="M0 4.58456C0 2.05326 2.1174 0 4.72948 0H59.2705C61.8825 0 64 2.05326 64 4.58456V59.4154C64 61.9476 61.8825 64 59.2705 64H4.72948C2.1174 64 0 61.9476 0 59.4154V4.58456Z" fill="#1D9BF0"/>
<g clip-path="url(#clip1_54_410)">
<path d="M50.9581 22.0572C50.9871 22.4827 50.9871 22.9082 50.9871 23.3376C50.9871 36.4219 41.1548 51.5121 23.1761 51.5121V51.5043C17.8652 51.5121 12.6645 49.9709 8.19354 47.065C8.9658 47.1592 9.74193 47.2062 10.52 47.2082C14.9213 47.2121 19.1968 45.716 22.6593 42.9611C18.4768 42.8807 14.809 40.118 13.5277 36.0847C14.9929 36.3709 16.5026 36.3121 17.9406 35.9141C13.3806 34.9807 10.1 30.9219 10.1 26.2082V26.0827C11.4587 26.8494 12.98 27.2749 14.5361 27.3219C10.2413 24.4141 8.91741 18.6258 11.511 14.1003C16.4735 20.2866 23.7955 24.0474 31.6555 24.4454C30.8677 21.0062 31.9439 17.4023 34.4832 14.9847C38.42 11.2356 44.6116 11.4278 48.3123 15.4141C50.5013 14.9768 52.5993 14.1631 54.5193 13.0101C53.7897 15.3023 52.2626 17.2494 50.2226 18.4866C52.16 18.2552 54.0529 17.7298 55.8355 16.9278C54.5232 18.92 52.8703 20.6552 50.9581 22.0572Z" fill="white"/>
</g>
</g>
<defs>
<clipPath id="clip0_54_410">
<rect width="64" height="64" fill="white"/>
</clipPath>
<clipPath id="clip1_54_410">
<rect width="48" height="40" fill="white" transform="translate(8 12)"/>
</clipPath>
</defs>
</svg>
