<svg width="64" height="64" viewBox="0 0 64 64" fill="none" xmlns="http://www.w3.org/2000/svg">
<g clip-path="url(#clip0_15_100)">
<path d="M59.2742 0H4.72832C2.11712 0 0 2.05312 0 4.58496V59.4125C0 61.9469 2.11712 64 4.72832 64H59.2742C61.8854 64 64 61.9443 64 59.4125V4.58496C64 2.05312 61.8854 0 59.2742 0V0Z" fill="#6FDA44"/>
<path d="M46.9658 37.2147C44.4467 37.2147 42.089 36.1472 39.9437 34.409L40.4659 31.9565L40.489 31.8669C40.9549 29.2557 42.4294 24.8704 46.9658 24.8704C50.368 24.8704 53.1354 27.6429 53.1354 31.0477C53.1251 34.4423 50.3578 37.2147 46.9658 37.2147ZM46.9658 18.6112C41.1699 18.6112 36.6771 22.3821 34.8519 28.5824C32.0614 24.3917 29.952 19.3613 28.7155 15.1245H22.4794V31.3754C22.4794 34.5779 19.8707 37.1891 16.6707 37.1891C13.4707 37.1891 10.8646 34.5779 10.8646 31.3754V15.1245H4.62593V31.3754C4.60289 38.0314 10.0147 43.4944 16.6605 43.4944C23.3062 43.4944 28.7181 38.0314 28.7181 31.3754V28.649C29.9315 31.1808 31.4163 33.7357 33.2211 36.009L29.399 53.9981H35.7862L38.5536 40.9498C40.9805 42.5063 43.7709 43.4816 46.9709 43.4816C53.8112 43.4816 59.3792 37.8701 59.3792 31.0221C59.3741 24.1869 53.8061 18.6112 46.9658 18.6112Z" fill="white"/>
</g>
<defs>
<clipPath id="clip0_15_100">
<rect width="64" height="64" fill="white"/>
</clipPath>
</defs>
</svg>
