<svg width="140" height="146" viewBox="0 0 140 146" fill="none" xmlns="http://www.w3.org/2000/svg">
<g filter="url(#filter0_d_610_343)">
<path d="M59.5552 25.0303C66.0185 21.2987 73.9815 21.2987 80.4448 25.0303L101.124 36.9697C107.588 40.7013 111.569 47.5975 111.569 55.0606V78.9394C111.569 86.4025 107.588 93.2987 101.124 97.0303L80.4448 108.97C73.9815 112.701 66.0185 112.701 59.5552 108.97L38.8756 97.0303C32.4123 93.2987 28.4308 86.4025 28.4308 78.9394V55.0606C28.4308 47.5975 32.4123 40.7013 38.8756 36.9697L59.5552 25.0303Z" fill="white"/>
</g>
<path d="M67.9217 86.419H65.8562C65.6091 84.5173 64.7241 82.7561 63.3464 81.422L64.3107 80.0247C64.6561 79.5267 64.5318 78.8437 64.0343 78.4988C63.5362 78.1539 62.8533 78.2776 62.5083 78.7752L61.615 80.1069C60.3527 79.3931 58.9281 79.0159 57.478 79.011C56.9261 79.0115 56.3753 79.0663 55.8342 79.1754L55.1766 77.1479C54.9888 76.5716 54.3694 76.2561 53.793 76.4439C53.2167 76.6313 52.9012 77.2507 53.089 77.8275L53.7573 79.8769C51.0715 81.1773 49.2671 83.7947 49.0073 86.7682C48.747 89.7413 50.0699 92.6317 52.4902 94.3788C54.91 96.1259 58.07 96.4713 60.8102 95.2888C63.5505 94.1063 65.4673 91.5702 65.8562 88.6108H67.9218C68.5269 88.6108 69.0176 88.1205 69.0176 87.5149C69.0176 86.9097 68.5269 86.419 67.9218 86.419H67.9217ZM57.4506 93.8055C55.7804 93.8055 54.1791 93.1421 52.9981 91.9607C51.8175 90.7797 51.1541 89.1779 51.1546 87.5076C51.1551 85.8379 51.819 84.2361 53.0004 83.056C54.182 81.8755 55.7843 81.2126 57.454 81.2136C59.1243 81.2145 60.7255 81.8794 61.9056 83.0609C63.0856 84.2429 63.7481 85.8451 63.7466 87.5149C63.7451 89.1836 63.0812 90.784 61.9007 91.9636C60.7202 93.1431 59.1194 93.8055 57.4506 93.8055V93.8055Z" fill="url(#paint0_linear_610_343)"/>
<path d="M61.9212 54.7371C62.1516 54.7366 62.3757 54.6637 62.5626 54.5287L64.2064 53.3178C65.5489 54.741 67.3444 55.6534 69.2857 55.8985V57.0932C69.2857 57.6984 69.7764 58.1891 70.3816 58.1891C70.9868 58.1891 71.4775 57.6984 71.4775 57.0932V55.8985C73.411 55.6485 75.1981 54.7365 76.5353 53.3178L78.2173 54.5399C78.4507 54.7293 78.752 54.8144 79.05 54.7757C79.3479 54.7366 79.617 54.5766 79.7941 54.3335C79.9712 54.0903 80.0402 53.7855 79.9854 53.4895C79.9311 53.194 79.7569 52.9338 79.505 52.7699L77.8283 51.5536C78.5108 50.309 78.867 48.9122 78.864 47.4934C78.864 44.4588 77.2451 41.6549 74.6175 40.1378C71.9893 38.6207 68.752 38.6207 66.1244 40.1378C63.4962 41.6549 61.8778 44.4588 61.8778 47.4934C61.8744 48.9122 62.2311 50.3089 62.913 51.5536L61.2692 52.7537C61.0334 52.9245 60.8754 53.1828 60.8304 53.4705C60.7849 53.7586 60.8563 54.0526 61.0285 54.288C61.2364 54.5727 61.5686 54.7395 61.9214 54.7371L61.9212 54.7371ZM70.3816 41.2031C72.0519 41.2017 73.6546 41.8641 74.8365 43.0446C76.0181 44.2252 76.6824 45.8269 76.6829 47.4972C76.6834 49.1675 76.02 50.7697 74.8389 51.9508C73.6579 53.1323 72.0556 53.7956 70.385 53.7953C68.7147 53.7948 67.113 53.1304 65.9324 51.9484C64.7519 50.7664 64.0894 49.1642 64.0909 47.4939C64.0924 45.8257 64.7558 44.2268 65.9354 43.0473C67.1145 41.8682 68.7138 41.2048 70.3816 41.2033V41.2031Z" fill="url(#paint1_linear_610_343)"/>
<path d="M91.3123 54.4027C89.0427 54.4096 86.8715 55.3279 85.2849 56.9507L83.581 55.7178C83.3476 55.528 83.0462 55.4429 82.7483 55.482C82.4498 55.5212 82.1808 55.6806 82.0041 55.9238C81.827 56.1669 81.7581 56.4722 81.8129 56.7677C81.8672 57.0637 82.0408 57.324 82.2933 57.4874L83.9371 58.7036V58.7041C82.9303 60.4639 82.5917 62.528 82.9836 64.5177L81.6465 64.9668C81.1338 65.1356 80.8197 65.6528 80.9073 66.1855C80.9948 66.7183 81.4572 67.1082 81.9973 67.1038C82.1147 67.1024 82.2316 67.0823 82.3427 67.0437L83.6906 66.5945C84.5433 68.3411 85.9685 69.7428 87.7287 70.5672L87.1039 72.5016V72.5011C86.917 73.0764 87.2306 73.6943 87.8055 73.8822C87.9156 73.9159 88.0301 73.9345 88.145 73.937C88.6206 73.936 89.0413 73.6283 89.1861 73.1752L89.8216 71.2301H89.8221C90.3114 71.322 90.8084 71.37 91.3069 71.3724C94.3412 71.3724 97.1449 69.7535 98.6622 67.1259C100.179 64.4982 100.179 61.2604 98.6622 58.6328C97.1451 56.0051 94.3412 54.3862 91.3069 54.3862L91.3123 54.4027ZM91.3123 69.1966C89.6425 69.1966 88.0413 68.5332 86.8602 67.3527C85.6797 66.1716 85.0163 64.5703 85.0163 62.9006C85.0163 61.2308 85.6797 59.6296 86.8602 58.4485C88.0413 57.268 89.6425 56.6045 91.3123 56.6045C92.9821 56.6045 94.5833 57.2679 95.7644 58.4485C96.9449 59.6295 97.6084 61.2308 97.6084 62.9006C97.6025 64.567 96.9366 66.1633 95.7571 67.3404C94.5771 68.517 92.9787 69.1785 91.3124 69.18L91.3123 69.1966Z" fill="url(#paint2_linear_610_343)"/>
<path d="M50.9347 71.2306L51.5756 73.2032H51.5761C51.7229 73.6538 52.1431 73.9591 52.6172 73.9595C52.7327 73.9605 52.8476 73.9419 52.9567 73.9047C53.5316 73.7164 53.8452 73.0985 53.6583 72.5237L53.0282 70.5677C54.7885 69.7434 56.2137 68.3418 57.0663 66.5951L58.4142 67.0442C58.5253 67.0829 58.6422 67.1029 58.7596 67.1044C59.2997 67.1088 59.7621 66.7189 59.8496 66.1861C59.9372 65.6533 59.6231 65.1362 59.1104 64.9674L57.7787 64.5183C58.1705 62.5285 57.832 60.4645 56.8251 58.7047L58.469 57.5099C58.9215 57.143 59.0076 56.4855 58.6647 56.0144C58.3217 55.5433 57.6701 55.4229 57.1813 55.7404L55.5374 56.9513C53.5467 54.922 50.6719 54.0247 47.8809 54.5614C45.0893 55.0981 42.7522 56.9973 41.6558 59.6201C40.5599 62.2429 40.8505 65.2405 42.4298 67.604C44.009 69.9675 46.6676 71.3824 49.51 71.3731C49.988 71.3672 50.465 71.3193 50.9347 71.2307L50.9347 71.2306ZM43.1539 62.8851C43.1539 61.2154 43.8173 59.6141 44.9979 58.4336C46.1789 57.2526 47.7802 56.5896 49.45 56.5896C51.1197 56.5896 52.721 57.2525 53.902 58.4336C55.0826 59.6141 55.746 61.2154 55.746 62.8851C55.746 64.5549 55.0826 66.1567 53.902 67.3372C52.721 68.5177 51.1197 69.1812 49.45 69.1812C47.7807 69.1797 46.1799 68.5158 44.9999 67.3358C43.8194 66.1553 43.1554 64.555 43.154 62.8853L43.1539 62.8851Z" fill="url(#paint3_linear_610_343)"/>
<path d="M87.0114 79.8937L87.6469 77.9431C87.7502 77.6638 87.7345 77.3546 87.6049 77.0865C87.4752 76.8184 87.2418 76.6149 86.9586 76.5224C86.6753 76.4304 86.3671 76.4568 86.1044 76.5968C85.8411 76.7367 85.6464 76.9774 85.5647 77.2636L84.9346 79.1921V79.1926C84.3935 79.0835 83.8431 79.0282 83.2908 79.0282C81.8407 79.0331 80.4165 79.4103 79.1538 80.1241L78.2331 78.787H78.2336C77.8882 78.2889 77.2052 78.1652 76.7071 78.5101C76.2095 78.855 76.0857 79.5385 76.4307 80.0361L77.3949 81.4333C76.0172 82.7674 75.1328 84.5292 74.8852 86.4308H72.8417C72.2365 86.4308 71.7458 86.9215 71.7458 87.5267C71.7458 88.1319 72.2365 88.6226 72.8417 88.6226H74.9072C75.2952 91.5815 77.2106 94.1187 79.9503 95.3021C82.6895 96.4856 85.8496 96.1417 88.2703 94.3961C90.691 92.6505 92.0154 89.7605 91.7571 86.7874C91.4993 83.8144 89.6965 81.1959 87.0115 79.8936L87.0114 79.8937ZM83.3128 93.8059C81.6426 93.8073 80.0398 93.1449 78.8579 91.9644C77.6764 90.7839 77.012 89.1821 77.0115 87.5118C77.011 85.8416 77.6744 84.2393 78.8555 83.0582C80.0365 81.8767 81.6388 81.2134 83.3094 81.2138C84.9797 81.2143 86.5815 81.8786 87.762 83.0606C88.9425 84.2426 89.605 85.8448 89.6035 87.5151C89.6005 89.1828 88.9367 90.7812 87.7576 91.9603C86.5786 93.1393 84.9802 93.8027 83.3129 93.8056L83.3128 93.8059Z" fill="url(#paint4_linear_610_343)"/>
<path d="M74.0151 76.5071C74.2205 76.8031 74.5586 76.9792 74.9192 76.9782C75.1423 76.9777 75.3605 76.9088 75.5434 76.7811C76.039 76.4352 76.1618 75.7542 75.8174 75.2576L75.1163 74.2439C76.2983 73.0252 76.9588 71.3936 76.9573 69.696C76.9568 69.4171 76.9368 69.1388 76.8971 68.8633L78.289 68.3976C78.5747 68.3134 78.8139 68.1167 78.9519 67.853C79.0894 67.5889 79.1138 67.2802 79.0194 66.9979C78.9245 66.7151 78.719 66.4837 78.4499 66.356C78.1809 66.2283 77.8717 66.2156 77.5928 66.3208L76.2611 66.7645H76.2615C75.3237 64.8873 73.5467 63.5703 71.4778 63.2194V62.0247C71.4778 61.4195 70.9871 60.9288 70.3819 60.9288C69.7767 60.9288 69.286 61.4195 69.286 62.0247V63.2194C67.217 63.5702 65.4401 64.8872 64.5023 66.7645L63.1706 66.3208H63.1711C62.6055 66.1549 62.0106 66.4656 61.8232 67.0238C61.6363 67.5825 61.924 68.1892 62.4749 68.3976L63.8667 68.8634C63.8271 69.1388 63.807 69.4172 63.8065 69.696C63.8051 71.3937 64.4655 73.0253 65.6475 74.2439L64.9459 75.2576H64.9464C64.602 75.7542 64.7248 76.4352 65.2204 76.7811C65.4591 76.9479 65.7546 77.013 66.0413 76.9616C66.3285 76.9103 66.5829 76.7464 66.7488 76.5071L67.4063 75.5536C69.2747 76.5106 71.489 76.5106 73.3574 75.5536L74.0151 76.5071ZM65.9984 69.6959C65.9984 68.5335 66.4602 67.4185 67.2821 66.5961C68.1046 65.7742 69.2196 65.3124 70.382 65.3124C71.5444 65.3124 72.6594 65.7742 73.4818 66.5961C74.3037 67.4185 74.7655 68.5335 74.7655 69.6959C74.7655 70.8583 74.3037 71.9734 73.4818 72.7957C72.6594 73.6176 71.5444 74.0795 70.382 74.0795C69.2196 74.0795 68.1045 73.6176 67.2821 72.7957C66.4602 71.9733 65.9984 70.8583 65.9984 69.6959Z" fill="url(#paint5_linear_610_343)"/>
<defs>
<filter id="filter0_d_610_343" x="0.430786" y="0.231689" width="139.138" height="145.537" filterUnits="userSpaceOnUse" color-interpolation-filters="sRGB">
<feFlood flood-opacity="0" result="BackgroundImageFix"/>
<feColorMatrix in="SourceAlpha" type="matrix" values="0 0 0 0 0 0 0 0 0 0 0 0 0 0 0 0 0 0 127 0" result="hardAlpha"/>
<feOffset dy="6"/>
<feGaussianBlur stdDeviation="14"/>
<feComposite in2="hardAlpha" operator="out"/>
<feColorMatrix type="matrix" values="0 0 0 0 0.0235294 0 0 0 0 0.227451 0 0 0 0 0.294118 0 0 0 0.15 0"/>
<feBlend mode="normal" in2="BackgroundImageFix" result="effect1_dropShadow_610_343"/>
<feBlend mode="normal" in="SourceGraphic" in2="effect1_dropShadow_610_343" result="shape"/>
</filter>
<linearGradient id="paint0_linear_610_343" x1="47.9757" y1="70.6971" x2="71.7014" y2="71.4316" gradientUnits="userSpaceOnUse">
<stop stop-color="#7CCBF2"/>
<stop offset="1" stop-color="#0F9EE4"/>
</linearGradient>
<linearGradient id="paint1_linear_610_343" x1="59.8604" y1="33.4248" x2="82.5739" y2="34.1121" gradientUnits="userSpaceOnUse">
<stop stop-color="#7CCBF2"/>
<stop offset="1" stop-color="#0F9EE4"/>
</linearGradient>
<linearGradient id="paint2_linear_610_343" x1="79.95" y1="48.7059" x2="102.334" y2="49.3611" gradientUnits="userSpaceOnUse">
<stop stop-color="#7CCBF2"/>
<stop offset="1" stop-color="#0F9EE4"/>
</linearGradient>
<linearGradient id="paint3_linear_610_343" x1="40.0595" y1="48.7283" x2="62.3926" y2="49.3805" gradientUnits="userSpaceOnUse">
<stop stop-color="#7CCBF2"/>
<stop offset="1" stop-color="#0F9EE4"/>
</linearGradient>
<linearGradient id="paint4_linear_610_343" x1="70.7465" y1="70.7946" x2="94.4727" y2="71.5316" gradientUnits="userSpaceOnUse">
<stop stop-color="#7CCBF2"/>
<stop offset="1" stop-color="#0F9EE4"/>
</linearGradient>
<linearGradient id="paint5_linear_610_343" x1="60.9032" y1="56.2657" x2="81.3917" y2="56.9344" gradientUnits="userSpaceOnUse">
<stop stop-color="#7CCBF2"/>
<stop offset="1" stop-color="#0F9EE4"/>
</linearGradient>
</defs>
</svg>
