<svg width="140" height="146" viewBox="0 0 140 146" fill="none" xmlns="http://www.w3.org/2000/svg">
<g filter="url(#filter0_d_610_295)">
<path d="M59.5552 25.0303C66.0185 21.2987 73.9815 21.2987 80.4448 25.0303L101.124 36.9697C107.588 40.7013 111.569 47.5975 111.569 55.0606V78.9394C111.569 86.4025 107.588 93.2987 101.124 97.0303L80.4448 108.97C73.9815 112.701 66.0185 112.701 59.5552 108.97L38.8756 97.0303C32.4123 93.2987 28.4308 86.4025 28.4308 78.9394V55.0606C28.4308 47.5975 32.4123 40.7013 38.8756 36.9697L59.5552 25.0303Z" fill="white"/>
</g>
<path d="M76.9571 85.4412H62.2347C61.9877 85.4412 61.7875 85.241 61.7875 84.9939C61.7875 84.1036 61.3125 83.2782 60.5483 82.8411C59.781 82.3991 58.8086 82.4028 58.0515 82.84C57.9488 82.8991 57.8268 82.9151 57.7118 82.8847C57.5973 82.8538 57.4993 82.7788 57.4402 82.6765L53.7618 76.2978L50.0834 69.9271C49.9599 69.713 50.0333 69.4393 50.2469 69.3163C51.0232 68.8674 51.4871 68.0596 51.4871 67.155C51.4871 66.2684 51.0115 65.4435 50.2469 65.0016C50.0328 64.878 49.9599 64.6048 50.0834 64.3908L53.7618 58.012L57.4402 51.6408C57.4993 51.538 57.5973 51.4629 57.7118 51.4326C57.8268 51.4017 57.9488 51.4182 58.051 51.4773C58.8029 51.9118 59.7779 51.914 60.5494 51.4757C61.3114 51.0337 61.787 50.2052 61.787 49.3164C61.787 49.0694 61.9872 48.8691 62.2342 48.8691H76.9566C77.2037 48.8691 77.4039 49.0694 77.4039 49.3164C77.4039 50.2025 77.8826 51.0305 78.6526 51.4778C79.412 51.9128 80.388 51.9112 81.1394 51.4772C81.3534 51.3537 81.6266 51.4266 81.7501 51.6407L85.4366 58.012L89.1156 64.3912C89.2391 64.6053 89.1656 64.8785 88.9515 65.002C88.1821 65.4466 87.7039 66.2715 87.7039 67.1554C87.7039 68.0442 88.1821 68.8722 88.9515 69.3168C89.1656 69.4403 89.2391 69.714 89.115 69.9275L81.7501 82.6775C81.6266 82.8916 81.3529 82.9651 81.1394 82.841C80.3832 82.4044 79.4109 82.4001 78.6521 82.8405C77.8811 83.2819 77.4034 84.1068 77.4034 84.9945C77.4045 85.241 77.2043 85.4412 76.9572 85.4412L76.9571 85.4412ZM62.6532 84.5466H76.54C76.6784 83.5141 77.2908 82.5892 78.2068 82.0647C78.7185 81.7681 79.3021 81.61 79.8921 81.61C80.3362 81.61 80.7765 81.6983 81.186 81.8677L88.133 69.8413C87.3076 69.2049 86.8102 68.2113 86.8102 67.1548C86.8102 66.1026 87.3081 65.1117 88.133 64.4759L84.6632 58.4587L81.186 52.4489C80.7792 52.6167 80.3404 52.704 79.8974 52.704C79.3074 52.704 78.7227 52.548 78.2068 52.2519C77.2903 51.72 76.6791 50.7923 76.54 49.7625H62.6533C62.5153 50.7944 61.9067 51.722 60.9962 52.2503C60.4733 52.5474 59.887 52.7034 59.2964 52.7034C58.8528 52.7034 58.4141 52.6161 58.0072 52.4484L54.5375 58.4581L51.0673 64.4753C51.8878 65.1095 52.3825 66.1 52.3825 67.1537C52.3825 68.2118 51.8878 69.2054 51.0673 69.8396L54.537 75.8493L58.0067 81.866C58.4162 81.6967 58.8566 81.6088 59.3012 81.6088C59.8917 81.6088 60.4769 81.7664 60.994 82.0641C61.9067 82.587 62.5159 83.5119 62.6538 84.5466L62.6532 84.5466Z" fill="url(#paint0_linear_610_295)"/>
<path d="M79.8907 52.7057C79.3001 52.7057 78.7171 52.5486 78.2043 52.252C77.422 51.8 76.8619 51.0699 76.6271 50.1966C76.3917 49.3223 76.5115 48.4106 76.9642 47.6284C77.5653 46.5831 78.6894 45.9329 79.8966 45.9329C80.4882 45.9329 81.0729 46.0905 81.5878 46.3881C82.3716 46.8392 82.9329 47.5687 83.1672 48.4414C83.4015 49.3152 83.2811 50.2278 82.828 51.0112C82.2236 52.0565 81.098 52.7057 79.8907 52.7057L79.8907 52.7057ZM79.8965 46.8275C79.0083 46.8275 78.1819 47.3057 77.7389 48.0757C77.4061 48.6513 77.3182 49.3217 77.4913 49.9644C77.6643 50.607 78.0765 51.1444 78.6521 51.4772C79.0291 51.695 79.4572 51.8106 79.8907 51.8106C80.78 51.8106 81.6086 51.3329 82.0537 50.5635C82.387 49.9873 82.4754 49.3159 82.3029 48.6732C82.1309 48.031 81.7176 47.4948 81.1404 47.1625C80.7608 46.9436 80.331 46.8275 79.8965 46.8275L79.8965 46.8275Z" fill="url(#paint1_linear_610_295)"/>
<path d="M90.1924 70.5457C88.327 70.5457 86.8095 69.025 86.8095 67.1559C86.8095 65.2905 88.3271 63.7736 90.1924 63.7736C92.0615 63.7736 93.5822 65.2912 93.5822 67.1559C93.5822 69.025 92.0615 70.5457 90.1924 70.5457ZM90.1924 64.6681C88.8202 64.6681 87.704 65.7842 87.704 67.1559C87.704 68.5319 88.8201 69.6512 90.1924 69.6512C91.5684 69.6512 92.6877 68.5319 92.6877 67.1559C92.6877 65.7843 91.5684 64.6681 90.1924 64.6681Z" fill="url(#paint2_linear_610_295)"/>
<path d="M79.9018 88.3802C78.693 88.3802 77.5673 87.7322 76.9645 86.6896C76.0348 85.073 76.5912 82.9994 78.2047 82.0659C78.7196 81.7683 79.3053 81.6107 79.8975 81.6107C81.1031 81.6107 82.2261 82.2576 82.8278 83.2987C83.7618 84.9222 83.2048 86.9995 81.5865 87.9304C81.0732 88.2254 80.4912 88.3803 79.9018 88.3803L79.9018 88.3802ZM79.8975 82.5057C79.4624 82.5057 79.0317 82.6218 78.6525 82.8406C77.4651 83.5276 77.055 85.0536 77.7393 86.2427C78.1823 87.009 79.0109 87.4856 79.9017 87.4856C80.3352 87.4856 80.7638 87.3711 81.1414 87.1549C82.331 86.4706 82.7404 84.9408 82.053 83.7458C81.611 82.9817 80.7846 82.5057 79.8975 82.5057L79.8975 82.5057Z" fill="url(#paint3_linear_610_295)"/>
<path d="M59.2944 88.3802C58.706 88.3802 58.1224 88.2253 57.6075 87.9313C55.9962 86.9995 55.4392 84.9228 56.363 83.3013C56.9669 82.2576 58.0905 81.6107 59.2976 81.6107C59.8908 81.6107 60.4776 81.7677 60.9946 82.0654C62.6059 82.9973 63.1592 85.0708 62.2284 86.6885C61.6251 87.7327 60.501 88.3802 59.2944 88.3802L59.2944 88.3802ZM59.2976 82.5057C58.4089 82.5057 57.5819 82.9812 57.1389 83.747C56.4589 84.9403 56.8684 86.4706 58.0526 87.156C58.4307 87.3711 58.861 87.4862 59.2944 87.4862C60.1826 87.4862 61.0101 87.0096 61.4537 86.2423C62.1385 85.0521 61.7322 83.526 60.5474 82.8413C60.1667 82.6219 59.7343 82.5058 59.2976 82.5058L59.2976 82.5057Z" fill="url(#paint4_linear_610_295)"/>
<path d="M48.9996 70.5457C47.1342 70.5457 45.6172 69.025 45.6172 67.1559C45.6172 65.2905 47.1349 63.7736 48.9996 63.7736C50.8649 63.7736 52.3819 65.2906 52.3819 67.1559C52.3819 69.025 50.8648 70.5457 48.9996 70.5457ZM48.9996 64.6681C47.6279 64.6681 46.5117 65.7842 46.5117 67.1559C46.5117 68.5319 47.6278 69.6512 48.9996 69.6512C50.3713 69.6512 51.4874 68.5319 51.4874 67.1559C51.4874 65.7843 50.3713 64.6681 48.9996 64.6681Z" fill="url(#paint5_linear_610_295)"/>
<path d="M59.3039 52.7057C58.0951 52.7057 56.9683 52.0566 56.3646 51.0119C55.4375 49.3936 55.994 47.3201 57.6048 46.3887C58.1229 46.0911 58.7081 45.9335 59.2992 45.9335C60.5042 45.9335 61.6267 46.5836 62.2284 47.63C62.68 48.4111 62.8014 49.3228 62.5687 50.196C62.336 51.0698 61.7769 51.8005 60.9952 52.2525C60.4797 52.5491 59.895 52.7057 59.304 52.7057L59.3039 52.7057ZM59.2991 46.8281C58.8646 46.8281 58.4327 46.9442 58.0515 47.1636C56.8672 47.8489 56.4578 49.3751 57.1398 50.5657C57.5839 51.333 58.413 51.8112 59.3039 51.8112C59.7384 51.8112 60.1692 51.6956 60.5483 51.4773C61.1223 51.1456 61.5329 50.6083 61.7044 49.9655C61.8753 49.3228 61.7864 48.6519 61.4536 48.0768C61.0105 47.3063 60.1852 46.8281 59.2991 46.8281L59.2991 46.8281Z" fill="url(#paint6_linear_610_295)"/>
<path d="M63.8434 77.577C63.6884 77.577 63.5382 77.4966 63.4552 77.3528L60.5808 72.3624L57.6989 67.3798C57.619 67.2413 57.619 67.0704 57.6989 66.932L60.5808 61.9488L63.4552 56.9663C63.535 56.8278 63.6825 56.7426 63.8428 56.7426H75.3564C75.5162 56.7426 75.6642 56.8278 75.7441 56.9663L78.619 61.9494C78.7426 62.1634 78.6691 62.4371 78.455 62.5602C78.2415 62.6837 77.9673 62.6102 77.8443 62.3961L75.0987 57.6367H64.1021L61.3565 62.3961L58.6031 67.1556L61.3555 71.915L64.2304 76.9066C64.354 77.1206 64.2799 77.3943 64.0659 77.5173C63.9956 77.5573 63.9189 77.577 63.8433 77.577L63.8434 77.577Z" fill="url(#paint7_linear_610_295)"/>
<path d="M75.357 77.577H69.6002C69.3532 77.577 69.153 77.3768 69.153 77.1297C69.153 76.8827 69.3532 76.6824 69.6002 76.6824H75.0982L80.7186 66.9325C80.8422 66.7185 81.1154 66.645 81.3294 66.7685C81.5435 66.8921 81.617 67.1658 81.4934 67.3793L75.7441 77.3529C75.6647 77.4913 75.5167 77.5771 75.3569 77.5771L75.357 77.577Z" fill="url(#paint8_linear_610_295)"/>
<path d="M75.3566 57.6364C75.2805 57.6364 75.2038 57.6172 75.1335 57.5762C74.9194 57.4527 74.846 57.179 74.9695 56.9654L78.0414 51.641C78.165 51.4269 78.4387 51.3534 78.6522 51.477C78.8663 51.6005 78.9398 51.8742 78.8162 52.0877L75.7443 57.4122C75.6617 57.556 75.5111 57.6364 75.3566 57.6364V57.6364Z" fill="url(#paint9_linear_610_295)"/>
<path d="M81.3631 47.223C81.287 47.223 81.2103 47.2038 81.14 47.1628C80.926 47.0393 80.8525 46.7656 80.9766 46.5521L85.7855 38.2238C85.909 38.0098 86.1827 37.9363 86.3962 38.0603C86.6103 38.1839 86.6838 38.4576 86.5597 38.6711L81.7508 46.9994C81.6677 47.1426 81.5181 47.223 81.3631 47.223V47.223Z" fill="url(#paint10_linear_610_295)"/>
<path d="M87.2573 67.6026H81.1065C80.8594 67.6026 80.6592 67.4024 80.6592 67.1553C80.6592 66.9082 80.8594 66.708 81.1065 66.708H87.2578C87.5049 66.708 87.7051 66.9082 87.7051 67.1553C87.7046 67.4024 87.5044 67.6026 87.2573 67.6026V67.6026Z" fill="url(#paint11_linear_610_295)"/>
<path d="M102.753 67.6026H93.1354C92.8883 67.6026 92.6881 67.4024 92.6881 67.1553C92.6881 66.9082 92.8883 66.708 93.1354 66.708H102.753C103 66.708 103.2 66.9082 103.2 67.1553C103.2 67.4024 103 67.6026 102.753 67.6026Z" fill="url(#paint12_linear_610_295)"/>
<path d="M78.4293 82.9016C78.2749 82.9016 78.1242 82.8212 78.0411 82.6775L74.9692 77.353C74.8457 77.1389 74.9192 76.8652 75.1332 76.7422C75.3473 76.6187 75.621 76.6922 75.744 76.9062L78.8159 82.2307C78.9395 82.4447 78.866 82.7184 78.6519 82.8415C78.5822 82.8825 78.5055 82.9016 78.4293 82.9016V82.9016Z" fill="url(#paint13_linear_610_295)"/>
<path d="M86.1723 96.3113C86.0179 96.3113 85.8672 96.2309 85.7846 96.0876L80.9757 87.7674C80.8522 87.5534 80.9252 87.2797 81.1392 87.1561C81.3533 87.0326 81.627 87.1061 81.7505 87.3196L86.5594 95.6398C86.683 95.8538 86.61 96.1275 86.396 96.2511C86.3251 96.2916 86.2485 96.3113 86.1723 96.3113V96.3113Z" fill="url(#paint14_linear_610_295)"/>
<path d="M60.7709 82.9016C60.6948 82.9016 60.6181 82.8825 60.5478 82.8415C60.3337 82.7179 60.2602 82.4442 60.3838 82.2307L63.4557 76.9062C63.5793 76.6922 63.853 76.6187 64.0665 76.7422C64.2806 76.8658 64.354 77.1395 64.2305 77.353L61.1586 82.6775C61.0755 82.8212 60.9253 82.9016 60.7709 82.9016V82.9016Z" fill="url(#paint15_linear_610_295)"/>
<path d="M53.0196 96.3113C52.9434 96.3113 52.8667 96.2921 52.7965 96.2511C52.5824 96.1276 52.5094 95.8539 52.633 95.6398L57.4419 87.3196C57.5654 87.1056 57.8391 87.0321 58.0527 87.1562C58.2667 87.2797 58.3397 87.5534 58.2161 87.7675L53.4072 96.0877C53.3247 96.2309 53.1745 96.3113 53.0196 96.3113V96.3113Z" fill="url(#paint16_linear_610_295)"/>
<path d="M58.0867 67.6026H51.9353C51.6883 67.6026 51.4881 67.4024 51.4881 67.1553C51.4881 66.9082 51.6883 66.708 51.9353 66.708H58.0867C58.3338 66.708 58.534 66.9082 58.534 67.1553C58.534 67.4024 58.3338 67.6026 58.0867 67.6026Z" fill="url(#paint17_linear_610_295)"/>
<path d="M46.0647 67.6026H36.4473C36.2002 67.6026 36 67.4024 36 67.1553C36 66.9082 36.2002 66.708 36.4473 66.708H46.0647C46.3118 66.708 46.512 66.9082 46.512 67.1553C46.512 67.4024 46.3118 67.6026 46.0647 67.6026Z" fill="url(#paint18_linear_610_295)"/>
<path d="M63.8433 57.6364C63.6889 57.6364 63.5382 57.556 63.4551 57.4127L60.3832 52.0883C60.2597 51.8742 60.3332 51.6005 60.5472 51.4775C60.7613 51.354 61.0344 51.4275 61.158 51.6415L64.2299 56.966C64.3535 57.18 64.28 57.4537 64.0659 57.5767C63.9956 57.6172 63.919 57.6364 63.8433 57.6364V57.6364Z" fill="url(#paint19_linear_610_295)"/>
<path d="M57.8289 47.223C57.6744 47.223 57.5237 47.1426 57.4412 46.9994L52.6323 38.6711C52.5087 38.4571 52.5822 38.1834 52.7958 38.0604C53.0098 37.9368 53.2835 38.0103 53.4065 38.2238L58.2154 46.5521C58.339 46.7661 58.2655 47.0398 58.052 47.1628C57.9817 47.2033 57.9045 47.223 57.8289 47.223V47.223Z" fill="url(#paint20_linear_610_295)"/>
<path d="M72.3154 72.3056H66.885C66.7252 72.3056 66.5777 72.2204 66.4979 72.0819L63.7827 67.3795C63.7028 67.2411 63.7028 67.0707 63.7827 66.9322L66.4984 62.2367C66.5783 62.0988 66.7258 62.0136 66.8855 62.0136H72.3159C72.4757 62.0136 72.6237 62.0988 72.7036 62.2378L75.4107 66.9323C75.4906 67.0708 75.4906 67.2412 75.4107 67.3796L72.7036 72.0815C72.6237 72.2199 72.4757 72.3057 72.3154 72.3057L72.3154 72.3056ZM67.1433 71.411H72.0566L74.5067 67.1558L72.0572 62.9081H67.1428L64.6863 67.1558L67.1433 71.411Z" fill="url(#paint21_linear_610_295)"/>
<defs>
<filter id="filter0_d_610_295" x="0.430779" y="0.231628" width="139.138" height="145.537" filterUnits="userSpaceOnUse" color-interpolation-filters="sRGB">
<feFlood flood-opacity="0" result="BackgroundImageFix"/>
<feColorMatrix in="SourceAlpha" type="matrix" values="0 0 0 0 0 0 0 0 0 0 0 0 0 0 0 0 0 0 127 0" result="hardAlpha"/>
<feOffset dy="6"/>
<feGaussianBlur stdDeviation="14"/>
<feComposite in2="hardAlpha" operator="out"/>
<feColorMatrix type="matrix" values="0 0 0 0 0.0235294 0 0 0 0 0.227451 0 0 0 0 0.294118 0 0 0 0.15 0"/>
<feBlend mode="normal" in2="BackgroundImageFix" result="effect1_dropShadow_610_295"/>
<feBlend mode="normal" in="SourceGraphic" in2="effect1_dropShadow_610_295" result="shape"/>
</filter>
<linearGradient id="paint0_linear_610_295" x1="48.0713" y1="38.2434" x2="94.4139" y2="39.745" gradientUnits="userSpaceOnUse">
<stop stop-color="#7CCBF2"/>
<stop offset="1" stop-color="#0F9EE4"/>
</linearGradient>
<linearGradient id="paint1_linear_610_295" x1="76.1715" y1="43.9651" x2="84.1916" y2="44.2079" gradientUnits="userSpaceOnUse">
<stop stop-color="#7CCBF2"/>
<stop offset="1" stop-color="#0F9EE4"/>
</linearGradient>
<linearGradient id="paint2_linear_610_295" x1="86.4718" y1="61.806" x2="94.4894" y2="62.0486" gradientUnits="userSpaceOnUse">
<stop stop-color="#7CCBF2"/>
<stop offset="1" stop-color="#0F9EE4"/>
</linearGradient>
<linearGradient id="paint3_linear_610_295" x1="76.1768" y1="79.6438" x2="84.1872" y2="79.8861" gradientUnits="userSpaceOnUse">
<stop stop-color="#7CCBF2"/>
<stop offset="1" stop-color="#0F9EE4"/>
</linearGradient>
<linearGradient id="paint4_linear_610_295" x1="55.5797" y1="79.6438" x2="63.5863" y2="79.8859" gradientUnits="userSpaceOnUse">
<stop stop-color="#7CCBF2"/>
<stop offset="1" stop-color="#0F9EE4"/>
</linearGradient>
<linearGradient id="paint5_linear_610_295" x1="45.2799" y1="61.806" x2="53.288" y2="62.0481" gradientUnits="userSpaceOnUse">
<stop stop-color="#7CCBF2"/>
<stop offset="1" stop-color="#0F9EE4"/>
</linearGradient>
<linearGradient id="paint6_linear_610_295" x1="55.5786" y1="43.9658" x2="63.5909" y2="44.2082" gradientUnits="userSpaceOnUse">
<stop stop-color="#7CCBF2"/>
<stop offset="1" stop-color="#0F9EE4"/>
</linearGradient>
<linearGradient id="paint7_linear_610_295" x1="56.5899" y1="50.6894" x2="81.4969" y2="51.4506" gradientUnits="userSpaceOnUse">
<stop stop-color="#7CCBF2"/>
<stop offset="1" stop-color="#0F9EE4"/>
</linearGradient>
<linearGradient id="paint8_linear_610_295" x1="68.5347" y1="63.5508" x2="83.2104" y2="64.0576" gradientUnits="userSpaceOnUse">
<stop stop-color="#7CCBF2"/>
<stop offset="1" stop-color="#0F9EE4"/>
</linearGradient>
<linearGradient id="paint9_linear_610_295" x1="74.7118" y1="49.61" x2="79.4101" y2="49.7007" gradientUnits="userSpaceOnUse">
<stop stop-color="#7CCBF2"/>
<stop offset="1" stop-color="#0F9EE4"/>
</linearGradient>
<linearGradient id="paint10_linear_610_295" x1="80.6318" y1="35.3203" x2="87.3879" y2="35.4468" gradientUnits="userSpaceOnUse">
<stop stop-color="#7CCBF2"/>
<stop offset="1" stop-color="#0F9EE4"/>
</linearGradient>
<linearGradient id="paint11_linear_610_295" x1="80.3079" y1="66.4481" x2="88.2077" y2="68.3313" gradientUnits="userSpaceOnUse">
<stop stop-color="#7CCBF2"/>
<stop offset="1" stop-color="#0F9EE4"/>
</linearGradient>
<linearGradient id="paint12_linear_610_295" x1="92.164" y1="66.4481" x2="103.221" y2="70.3805" gradientUnits="userSpaceOnUse">
<stop stop-color="#7CCBF2"/>
<stop offset="1" stop-color="#0F9EE4"/>
</linearGradient>
<linearGradient id="paint13_linear_610_295" x1="74.7115" y1="74.8753" x2="79.4098" y2="74.966" gradientUnits="userSpaceOnUse">
<stop stop-color="#7CCBF2"/>
<stop offset="1" stop-color="#0F9EE4"/>
</linearGradient>
<linearGradient id="paint14_linear_610_295" x1="80.6313" y1="84.4188" x2="87.3874" y2="84.5453" gradientUnits="userSpaceOnUse">
<stop stop-color="#7CCBF2"/>
<stop offset="1" stop-color="#0F9EE4"/>
</linearGradient>
<linearGradient id="paint15_linear_610_295" x1="60.126" y1="74.8753" x2="64.8244" y2="74.966" gradientUnits="userSpaceOnUse">
<stop stop-color="#7CCBF2"/>
<stop offset="1" stop-color="#0F9EE4"/>
</linearGradient>
<linearGradient id="paint16_linear_610_295" x1="52.2885" y1="84.4183" x2="59.044" y2="84.5449" gradientUnits="userSpaceOnUse">
<stop stop-color="#7CCBF2"/>
<stop offset="1" stop-color="#0F9EE4"/>
</linearGradient>
<linearGradient id="paint17_linear_610_295" x1="51.1368" y1="66.4481" x2="59.0365" y2="68.3313" gradientUnits="userSpaceOnUse">
<stop stop-color="#7CCBF2"/>
<stop offset="1" stop-color="#0F9EE4"/>
</linearGradient>
<linearGradient id="paint18_linear_610_295" x1="35.4759" y1="66.4481" x2="46.5329" y2="70.3805" gradientUnits="userSpaceOnUse">
<stop stop-color="#7CCBF2"/>
<stop offset="1" stop-color="#0F9EE4"/>
</linearGradient>
<linearGradient id="paint19_linear_610_295" x1="60.1255" y1="49.6107" x2="64.8238" y2="49.7014" gradientUnits="userSpaceOnUse">
<stop stop-color="#7CCBF2"/>
<stop offset="1" stop-color="#0F9EE4"/>
</linearGradient>
<linearGradient id="paint20_linear_610_295" x1="52.288" y1="35.3208" x2="59.0432" y2="35.4472" gradientUnits="userSpaceOnUse">
<stop stop-color="#7CCBF2"/>
<stop offset="1" stop-color="#0F9EE4"/>
</linearGradient>
<linearGradient id="paint21_linear_610_295" x1="63.1371" y1="59.0233" x2="77.0404" y2="59.5037" gradientUnits="userSpaceOnUse">
<stop stop-color="#7CCBF2"/>
<stop offset="1" stop-color="#0F9EE4"/>
</linearGradient>
</defs>
</svg>
