<svg width="722" height="181" viewBox="0 0 722 181" fill="none" xmlns="http://www.w3.org/2000/svg">
<path d="M1 181V128.5C1 83.6958 1 61.2937 9.71948 44.1808C17.3893 29.1278 29.6278 16.8893 44.6808 9.21948C61.7937 0.5 84.1958 0.5 129 0.5H145M721 181V128.5C721 83.6958 721 61.2937 712.281 44.1808C704.611 29.1278 692.372 16.8893 677.319 9.21948C660.206 0.5 637.807 0.5 593.008 0.5C587.882 0.5 582.562 0.5 577 0.5M577 0.5V181M577 0.5H433M433 0.5V181M433 0.5H289M289 0.5V181M289 0.5H145M145 0.5V181" stroke="#A6A6B0" stroke-opacity="0.15"/>
</svg>
