<svg width="64" height="64" viewBox="0 0 64 64" fill="none" xmlns="http://www.w3.org/2000/svg">
<path d="M54.3334 37.3333C54.3334 36.781 53.8856 36.3333 53.3334 36.3333C52.7811 36.3333 52.3334 36.781 52.3334 37.3333H54.3334ZM26.6672 11.6666C27.2195 11.6666 27.6672 11.2189 27.6672 10.6666C27.6672 10.1143 27.2195 9.66659 26.6672 9.66659V11.6666ZM11.248 13.5787L12.139 14.0327L11.248 13.5787ZM13.5781 11.2479L14.0321 12.1389L13.5781 11.2479ZM13.5781 52.7519L14.0321 51.8609L13.5781 52.7519ZM11.248 50.4212L10.357 50.8752L11.248 50.4212ZM52.7526 50.4212L51.8616 49.9672L52.7526 50.4212ZM50.4208 52.7519L49.9668 51.8609L50.4208 52.7519ZM26.6667 37.3333H25.6667C25.6667 37.8855 26.1144 38.3333 26.6667 38.3333V37.3333ZM26.6667 29.3333L25.9596 28.6261C25.772 28.8137 25.6667 29.068 25.6667 29.3333H26.6667ZM50.6667 5.33325L51.3738 4.62615C50.9833 4.23562 50.3501 4.23562 49.9596 4.62615L50.6667 5.33325ZM58.6667 13.3333L59.3738 14.0404C59.7643 13.6498 59.7643 13.0167 59.3738 12.6261L58.6667 13.3333ZM34.6667 37.3333V38.3333C34.9319 38.3333 35.1863 38.2279 35.3738 38.0404L34.6667 37.3333ZM43.3738 12.6261C42.9833 12.2356 42.3501 12.2356 41.9596 12.6261C41.5691 13.0167 41.5691 13.6498 41.9596 14.0404L43.3738 12.6261ZM49.9596 22.0404C50.3501 22.4309 50.9833 22.4309 51.3738 22.0404C51.7643 21.6498 51.7643 21.0167 51.3738 20.6261L49.9596 22.0404ZM52.3334 37.3333V44.7999H54.3334V37.3333H52.3334ZM44.8005 52.3333H19.2005V54.3333H44.8005V52.3333ZM11.6667 44.8V19.2H9.66669V44.8H11.6667ZM19.2005 11.6666H26.6672V9.66659H19.2005V11.6666ZM11.6667 19.2C11.6667 17.69 11.6675 16.6176 11.736 15.7785C11.8036 14.951 11.9321 14.4387 12.139 14.0327L10.357 13.1247C9.98253 13.8596 9.82039 14.6644 9.74267 15.6156C9.66591 16.5551 9.66669 17.723 9.66669 19.2H11.6667ZM19.2005 9.66659C17.7236 9.66659 16.5554 9.66581 15.6157 9.74257C14.6643 9.82027 13.8591 9.9824 13.1242 10.3569L14.0321 12.1389C14.438 11.9321 14.9506 11.8035 15.7785 11.7359C16.6179 11.6674 17.6906 11.6666 19.2005 11.6666V9.66659ZM12.139 14.0327C12.5546 13.2171 13.217 12.5542 14.0321 12.1389L13.1242 10.3569C11.9322 10.9642 10.964 11.9333 10.357 13.1247L12.139 14.0327ZM19.2005 52.3333C17.6906 52.3333 16.618 52.3325 15.7785 52.2639C14.9506 52.1962 14.4381 52.0677 14.0321 51.8609L13.1242 53.6429C13.8591 54.0174 14.6642 54.1795 15.6156 54.2572C16.5554 54.334 17.7235 54.3333 19.2005 54.3333V52.3333ZM9.66669 44.8C9.66669 46.2769 9.66591 47.4448 9.74267 48.3843C9.82039 49.3354 9.98253 50.1403 10.357 50.8752L12.139 49.9672C11.9321 49.5612 11.8036 49.0489 11.736 48.2214C11.6675 47.3822 11.6667 46.3099 11.6667 44.8H9.66669ZM14.0321 51.8609C13.217 51.4455 12.5546 50.7828 12.139 49.9672L10.357 50.8752C10.9641 52.0666 11.9322 53.0356 13.1242 53.6429L14.0321 51.8609ZM52.3334 44.7999C52.3334 46.31 52.3327 47.3823 52.2643 48.2216C52.1968 49.0491 52.0684 49.5613 51.8616 49.9672L53.6436 50.8752C54.0181 50.1401 54.1801 49.3352 54.2577 48.3841C54.3343 47.4447 54.3334 46.2768 54.3334 44.7999H52.3334ZM44.8005 54.3333C46.2775 54.3333 47.4451 54.334 48.3844 54.2572C49.3354 54.1795 50.1399 54.0173 50.8748 53.6429L49.9668 51.8609C49.5608 52.0678 49.0486 52.1963 48.2215 52.2639C47.3826 52.3325 46.3105 52.3333 44.8005 52.3333V54.3333ZM51.8616 49.9672C51.4464 50.7821 50.7826 51.4452 49.9668 51.8609L50.8748 53.6429C52.066 53.0359 53.0362 52.0673 53.6436 50.8752L51.8616 49.9672ZM27.6667 37.3333V29.3333H25.6667V37.3333H27.6667ZM27.3738 30.0404L51.3738 6.04036L49.9596 4.62615L25.9596 28.6261L27.3738 30.0404ZM49.9596 6.04036L57.9596 14.0404L59.3738 12.6261L51.3738 4.62615L49.9596 6.04036ZM57.9596 12.6261L33.9596 36.6261L35.3738 38.0404L59.3738 14.0404L57.9596 12.6261ZM34.6667 36.3333H26.6667V38.3333H34.6667V36.3333ZM41.9596 14.0404L49.9596 22.0404L51.3738 20.6261L43.3738 12.6261L41.9596 14.0404Z" fill="url(#paint0_linear_575_28)"/>
<defs>
<linearGradient id="paint0_linear_575_28" x1="8.27353" y1="-8.61274" x2="65.0964" y2="-6.89295" gradientUnits="userSpaceOnUse">
<stop stop-color="#7CCBF2"/>
<stop offset="1" stop-color="#0F9EE4"/>
</linearGradient>
</defs>
</svg>
