<svg width="64" height="64" viewBox="0 0 64 64" fill="none" xmlns="http://www.w3.org/2000/svg">
<path d="M8 24V51.7333C8 53.2268 8 53.9736 8.29065 54.544C8.54631 55.0458 8.95396 55.4536 9.45573 55.7093C10.0262 56 10.7735 56 12.2669 56H40.0003M45.3333 21.3333L34.6667 32L29.3333 26.6667M18.6667 36.8V16.5334C18.6667 13.5464 18.6667 12.053 19.248 10.9121C19.7593 9.90858 20.5746 9.09262 21.5781 8.5813C22.719 8 24.2136 8 27.2005 8H47.4672C50.4541 8 51.9466 8 53.0874 8.5813C54.091 9.09262 54.9079 9.90858 55.4193 10.9121C56.0006 12.053 56.0006 13.5464 56.0006 16.5334V36.8C56.0006 39.7869 56.0006 41.2804 55.4193 42.4213C54.9079 43.4248 54.091 44.2406 53.0874 44.752C51.9466 45.3333 50.4541 45.3333 47.4672 45.3333H27.2005C24.2136 45.3333 22.719 45.3333 21.5781 44.752C20.5746 44.2406 19.7593 43.4248 19.248 42.4213C18.6667 41.2804 18.6667 39.787 18.6667 36.8Z" stroke="url(#paint0_linear_575_140)" stroke-width="2" stroke-linecap="round" stroke-linejoin="round"/>
<defs>
<linearGradient id="paint0_linear_575_140" x1="5.60681" y1="-5.94599" x2="62.4304" y2="-4.22616" gradientUnits="userSpaceOnUse">
<stop stop-color="#7CCBF2"/>
<stop offset="1" stop-color="#0F9EE4"/>
</linearGradient>
</defs>
</svg>
