<svg width="64" height="64" viewBox="0 0 64 64" fill="none" xmlns="http://www.w3.org/2000/svg">
<path d="M56.0005 53.3333H16.5339C13.5469 53.3333 12.0523 53.3332 10.9115 52.7519C9.90793 52.2405 9.09262 51.4249 8.5813 50.4213C8 49.2805 8 47.7869 8 44.7999V13.3333M55.9999 18.6666L40.4115 32.3065C38.5445 33.94 37.6108 34.7569 36.5885 35.096C35.3827 35.496 34.0734 35.4523 32.8969 34.973C31.8994 34.5667 31.0228 33.6897 29.2687 31.9356C27.5527 30.2196 26.6947 29.3616 25.7161 28.9556C24.5619 28.4768 23.2767 28.4182 22.0838 28.7906C21.0725 29.1063 20.1401 29.8832 18.2757 31.4368L8 39.9999" stroke="url(#paint0_linear_575_68)" stroke-width="2" stroke-linecap="round" stroke-linejoin="round"/>
<defs>
<linearGradient id="paint0_linear_575_68" x1="5.60681" y1="1.71159" x2="62.4075" y2="3.77456" gradientUnits="userSpaceOnUse">
<stop stop-color="#7CCBF2"/>
<stop offset="1" stop-color="#0F9EE4"/>
</linearGradient>
</defs>
</svg>
