<svg width="178" height="264" viewBox="0 0 178 264" fill="none" xmlns="http://www.w3.org/2000/svg">
<g filter="url(#filter0_ddddd_134_587)">
<mask id="path-1-inside-1_134_587" fill="white">
<path d="M79.641 11.4115C85.2102 8.19615 92.0718 8.19615 97.641 11.4115L121.21 25.0192C126.779 28.2346 130.21 34.1769 130.21 40.6077V67.8231C130.21 74.2539 126.779 80.1962 121.21 83.4115L97.641 97.0192C92.0718 100.235 85.2102 100.235 79.641 97.0192L56.0718 83.4115C50.5026 80.1962 47.0718 74.2539 47.0718 67.8231V40.6077C47.0718 34.1769 50.5026 28.2346 56.0718 25.0192L79.641 11.4115Z"/>
</mask>
<path d="M79.641 11.4115C85.2102 8.19615 92.0718 8.19615 97.641 11.4115L121.21 25.0192C126.779 28.2346 130.21 34.1769 130.21 40.6077V67.8231C130.21 74.2539 126.779 80.1962 121.21 83.4115L97.641 97.0192C92.0718 100.235 85.2102 100.235 79.641 97.0192L56.0718 83.4115C50.5026 80.1962 47.0718 74.2539 47.0718 67.8231V40.6077C47.0718 34.1769 50.5026 28.2346 56.0718 25.0192L79.641 11.4115Z" fill="white"/>
<path d="M56.0718 83.4115L56.478 82.708L56.0718 83.4115ZM97.641 97.0192L97.2348 96.3157L97.641 97.0192ZM79.641 97.0192L79.2348 97.7228L79.641 97.0192ZM121.21 83.4115L121.616 84.1151L121.21 83.4115ZM79.641 11.4115L79.2348 10.708L79.641 11.4115ZM97.2348 12.1151L120.804 25.7228L121.616 24.3157L98.0472 10.708L97.2348 12.1151ZM129.398 40.6077V67.8231H131.023V40.6077H129.398ZM120.804 82.708L97.2348 96.3157L98.0472 97.7228L121.616 84.1151L120.804 82.708ZM80.0472 96.3157L56.478 82.708L55.6656 84.1151L79.2348 97.7228L80.0472 96.3157ZM47.8842 67.8231V40.6077H46.2594V67.8231H47.8842ZM56.478 25.7228L80.0472 12.1151L79.2348 10.708L55.6656 24.3157L56.478 25.7228ZM47.8842 40.6077C47.8842 34.4671 51.1601 28.793 56.478 25.7228L55.6656 24.3157C49.845 27.6762 46.2594 33.8867 46.2594 40.6077H47.8842ZM56.478 82.708C51.1601 79.6377 47.8842 73.9636 47.8842 67.8231H46.2594C46.2594 74.5441 49.845 80.7546 55.6656 84.1151L56.478 82.708ZM97.2348 96.3157C91.9169 99.386 85.3651 99.386 80.0472 96.3157L79.2348 97.7228C85.0554 101.083 92.2266 101.083 98.0472 97.7228L97.2348 96.3157ZM129.398 67.8231C129.398 73.9636 126.122 79.6377 120.804 82.708L121.616 84.1151C127.437 80.7546 131.023 74.5441 131.023 67.8231H129.398ZM120.804 25.7228C126.122 28.793 129.398 34.4671 129.398 40.6077H131.023C131.023 33.8867 127.437 27.6762 121.616 24.3157L120.804 25.7228ZM98.0472 10.708C92.2266 7.3475 85.0554 7.3475 79.2348 10.708L80.0472 12.1151C85.3651 9.04481 91.9169 9.04481 97.2348 12.1151L98.0472 10.708Z" fill="#A6A6B0" fill-opacity="0.05" mask="url(#path-1-inside-1_134_587)"/>
</g>
<path d="M85.9218 72.6189H83.8562C83.6092 70.7172 82.7241 68.956 81.3465 67.6219L82.3107 66.2247C82.6561 65.7266 82.5319 65.0437 82.0343 64.6987C81.5363 64.3538 80.8533 64.4776 80.5083 64.9751L79.615 66.3069C78.3528 65.5931 76.9281 65.2159 75.478 65.211C74.9262 65.2115 74.3753 65.2663 73.8342 65.3754L73.1767 63.3479C72.9888 62.7716 72.3694 62.456 71.7931 62.6439C71.2168 62.8313 70.9012 63.4506 71.0891 64.0275L71.7574 66.0768C69.0715 67.3772 67.2671 69.9946 67.0073 72.9682C66.7471 75.9412 68.07 78.8316 70.4903 80.5788C72.91 82.3258 76.07 82.6713 78.8103 81.4888C81.5505 80.3063 83.4674 77.7701 83.8563 74.8107H85.9218C86.527 74.8107 87.0177 74.3205 87.0177 73.7148C87.0177 73.1096 86.527 72.6189 85.9218 72.6189H85.9218ZM75.4507 80.0055C73.7804 80.0055 72.1792 79.3421 70.9981 78.1606C69.8176 76.9796 69.1541 75.3778 69.1546 73.7076C69.1551 72.0378 69.819 70.436 71.0005 69.256C72.182 68.0755 73.7843 67.4125 75.4541 67.4135C77.1243 67.4145 78.7256 68.0794 79.9056 69.2609C81.0857 70.4429 81.7481 72.0451 81.7466 73.7148C81.7451 75.3836 81.0813 76.984 79.9008 78.1635C78.7203 79.3431 77.1195 80.0055 75.4507 80.0055Z" fill="url(#paint0_linear_134_587)"/>
<path d="M79.9212 40.9371C80.1517 40.9366 80.3757 40.8637 80.5626 40.7287L82.2065 39.5178C83.549 40.941 85.3445 41.8534 87.2858 42.0985V43.2932C87.2858 43.8984 87.7765 44.3891 88.3816 44.3891C88.9868 44.3891 89.4775 43.8984 89.4775 43.2932V42.0985C91.4111 41.8485 93.1982 40.9366 94.5353 39.5178L96.2173 40.7399C96.4507 40.9293 96.7521 41.0144 97.05 40.9757C97.348 40.9366 97.617 40.7766 97.7941 40.5335C97.9712 40.2903 98.0402 39.9855 97.9854 39.6895C97.9311 39.394 97.757 39.1338 97.505 38.9699L95.8284 37.7536C96.5108 36.509 96.867 35.1122 96.8641 33.6935C96.8641 30.6588 95.2451 27.8549 92.6175 26.3378C89.9894 24.8207 86.7521 24.8207 84.1244 26.3378C81.4963 27.8549 79.8779 30.6588 79.8779 33.6935C79.8744 35.1122 80.2311 36.509 80.9131 37.7536L79.2693 38.9537C79.0334 39.1245 78.8754 39.3828 78.8304 39.6705C78.7849 39.9586 78.8563 40.2527 79.0286 40.488C79.2365 40.7727 79.5687 40.9395 79.9214 40.9371L79.9212 40.9371ZM88.3816 27.4032C90.0519 27.4017 91.6547 28.0641 92.8366 29.2446C94.0181 30.4252 94.6824 32.0269 94.6829 33.6972C94.6834 35.3675 94.02 36.9697 92.839 38.1508C91.658 39.3323 90.0557 39.9956 88.385 39.9953C86.7148 39.9948 85.113 39.3304 83.9324 38.1484C82.7519 36.9664 82.0895 35.3642 82.091 33.694C82.0924 32.0257 82.7558 30.4268 83.9355 29.2473C85.1145 28.0682 86.7139 27.4048 88.3816 27.4033V27.4032Z" fill="url(#paint1_linear_134_587)"/>
<path d="M109.312 40.6027C107.043 40.6095 104.872 41.5278 103.285 43.1507L101.581 41.9178C101.348 41.728 101.046 41.6428 100.748 41.682C100.45 41.7211 100.181 41.8806 100.004 42.1237C99.8271 42.3669 99.7581 42.6722 99.8129 42.9677C99.8672 43.2637 100.041 43.5239 100.293 43.6874L101.937 44.9036V44.9041C100.93 46.6639 100.592 48.7279 100.984 50.7177L99.6465 51.1668C99.1338 51.3356 98.8197 51.8527 98.9073 52.3855C98.9949 52.9183 99.4572 53.3082 99.9973 53.3038C100.115 53.3023 100.232 53.2823 100.343 53.2436L101.691 52.7945C102.543 54.541 103.969 55.9428 105.729 56.7671L105.104 58.7015V58.701C104.917 59.2764 105.231 59.8943 105.806 60.0821C105.916 60.1159 106.03 60.1345 106.145 60.1369C106.621 60.1359 107.041 59.8282 107.186 59.3752L107.822 57.43H107.822C108.311 57.522 108.808 57.5699 109.307 57.5724C112.341 57.5724 115.145 55.9535 116.662 53.3258C118.179 50.6982 118.179 47.4604 116.662 44.8327C115.145 42.2051 112.341 40.5862 109.307 40.5862L109.312 40.6027ZM109.312 55.3966C107.643 55.3966 106.041 54.7332 104.86 53.5526C103.68 52.3716 103.016 50.7703 103.016 49.1005C103.016 47.4308 103.68 45.8295 104.86 44.6485C106.041 43.4679 107.643 42.8045 109.312 42.8045C110.982 42.8045 112.583 43.4679 113.764 44.6485C114.945 45.8295 115.608 47.4308 115.608 49.1005C115.603 50.7669 114.937 52.3633 113.757 53.5403C112.577 54.7169 110.979 55.3784 109.312 55.3799L109.312 55.3966Z" fill="url(#paint2_linear_134_587)"/>
<path d="M68.9347 57.4306L69.5756 59.4032H69.5761C69.7229 59.8538 70.1431 60.1591 70.6172 60.1596C70.7327 60.1605 70.8476 60.1419 70.9567 60.1048C71.5316 59.9164 71.8452 59.2985 71.6583 58.7237L71.0282 56.7677C72.7885 55.9434 74.2137 54.5418 75.0663 52.7951L76.4142 53.2442C76.5253 53.2829 76.6422 53.3029 76.7596 53.3044C77.2997 53.3088 77.7621 52.9189 77.8496 52.3861C77.9372 51.8533 77.6231 51.3362 77.1104 51.1674L75.7787 50.7183C76.1705 48.7285 75.832 46.6645 74.8251 44.9047L76.469 43.71C76.9215 43.343 77.0076 42.6855 76.6647 42.2144C76.3217 41.7433 75.6701 41.6229 75.1813 41.9404L73.5374 43.1513C71.5467 41.122 68.6719 40.2247 65.8809 40.7614C63.0893 41.2981 60.7522 43.1973 59.6558 45.8201C58.5599 48.4429 58.8505 51.4405 60.4298 53.804C62.009 56.1675 64.6676 57.5824 67.51 57.5731C67.988 57.5672 68.465 57.5193 68.9347 57.4307L68.9347 57.4306ZM61.1539 49.0852C61.1539 47.4154 61.8173 45.8141 62.9979 44.6336C64.1789 43.4526 65.7802 42.7896 67.45 42.7896C69.1197 42.7896 70.721 43.4525 71.902 44.6336C73.0826 45.8141 73.746 47.4154 73.746 49.0852C73.746 50.7549 73.0826 52.3567 71.902 53.5372C70.721 54.7178 69.1197 55.3812 67.45 55.3812C65.7807 55.3797 64.1799 54.7158 62.9999 53.5359C61.8194 52.3553 61.1554 50.755 61.154 49.0853L61.1539 49.0852Z" fill="url(#paint3_linear_134_587)"/>
<path d="M105.011 66.0938L105.647 64.1432C105.75 63.8638 105.734 63.5546 105.605 63.2865C105.475 63.0185 105.242 62.8149 104.959 62.7225C104.675 62.6305 104.367 62.6569 104.104 62.7968C103.841 62.9367 103.646 63.1775 103.565 63.4637L102.935 65.3922V65.3927C102.393 65.2836 101.843 65.2283 101.291 65.2283C99.8406 65.2332 98.4165 65.6104 97.1538 66.3242L96.233 64.9871H96.2335C95.8881 64.489 95.2051 64.3652 94.707 64.7101C94.2095 65.0551 94.0857 65.7385 94.4306 66.2361L95.3949 67.6334C94.0172 68.9675 93.1327 70.7293 92.8851 72.6309H90.8416C90.2364 72.6309 89.7457 73.1216 89.7457 73.7268C89.7457 74.3319 90.2364 74.8227 90.8416 74.8227H92.9072C93.2951 77.7816 95.2105 80.3188 97.9503 81.5022C100.689 82.6857 103.85 82.3417 106.27 80.5961C108.691 78.8505 110.015 75.9606 109.757 72.9875C109.499 70.0145 107.696 67.396 105.011 66.0937L105.011 66.0938ZM101.313 80.0059C99.6425 80.0074 98.0397 79.345 96.8578 78.1645C95.6763 76.9839 95.012 75.3822 95.0115 73.7119C95.011 72.0416 95.6744 70.4394 96.8554 69.2583C98.0365 68.0768 99.6387 67.4135 101.309 67.4138C102.98 67.4143 104.581 68.0787 105.762 69.2607C106.942 70.4427 107.605 72.0449 107.603 73.7151C107.601 75.3829 106.937 76.9813 105.758 78.1603C104.579 79.3394 102.98 80.0028 101.313 80.0057L101.313 80.0059Z" fill="url(#paint4_linear_134_587)"/>
<path d="M92.015 62.7071C92.2205 63.0031 92.5586 63.1792 92.9191 63.1782C93.1422 63.1778 93.3604 63.1088 93.5434 62.9811C94.039 62.6352 94.1618 61.9542 93.8174 61.4576L93.1163 60.4439C94.2983 59.2252 94.9588 57.5936 94.9573 55.896C94.9568 55.6172 94.9367 55.3388 94.8971 55.0633L96.2889 54.5976C96.5746 54.5134 96.8139 54.3168 96.9519 54.0531C97.0893 53.7889 97.1138 53.4802 97.0194 53.1979C96.9245 52.9151 96.719 52.6837 96.4499 52.556C96.1808 52.4283 95.8716 52.4156 95.5927 52.5208L94.261 52.9645H94.2615C93.3236 51.0873 91.5467 49.7703 89.4778 49.4195V48.2247C89.4778 47.6196 88.9871 47.1288 88.3819 47.1288C87.7767 47.1288 87.286 47.6196 87.286 48.2247V49.4195C85.217 49.7702 83.4401 51.0872 82.5023 52.9645L81.1706 52.5208H81.171C80.6055 52.3549 80.0106 52.6656 79.8232 53.2238C79.6363 53.7825 79.9239 54.3892 80.4748 54.5976L81.8667 55.0634C81.827 55.3388 81.807 55.6172 81.8065 55.8961C81.805 57.5937 82.4655 59.2253 83.6475 60.4439L82.9459 61.4576H82.9464C82.602 61.9542 82.7248 62.6352 83.2204 62.9811C83.4591 63.1479 83.7546 63.213 84.0413 63.1616C84.3285 63.1103 84.5829 62.9464 84.7487 62.7071L85.4063 61.7536C87.2747 62.7106 89.489 62.7106 91.3574 61.7536L92.015 62.7071ZM83.9984 55.8959C83.9984 54.7335 84.4602 53.6185 85.2821 52.7961C86.1045 51.9742 87.2195 51.5124 88.3819 51.5124C89.5443 51.5124 90.6594 51.9742 91.4817 52.7961C92.3037 53.6185 92.7655 54.7335 92.7655 55.8959C92.7655 57.0583 92.3037 58.1734 91.4817 58.9957C90.6593 59.8177 89.5443 60.2795 88.3819 60.2795C87.2195 60.2795 86.1045 59.8177 85.2821 58.9957C84.4602 58.1733 83.9984 57.0583 83.9984 55.8959Z" fill="url(#paint5_linear_134_587)"/>
<defs>
<filter id="filter0_ddddd_134_587" x="0.0717773" y="0" width="177.138" height="263.431" filterUnits="userSpaceOnUse" color-interpolation-filters="sRGB">
<feFlood flood-opacity="0" result="BackgroundImageFix"/>
<feColorMatrix in="SourceAlpha" type="matrix" values="0 0 0 0 0 0 0 0 0 0 0 0 0 0 0 0 0 0 127 0" result="hardAlpha"/>
<feOffset/>
<feColorMatrix type="matrix" values="0 0 0 0 0.0235294 0 0 0 0 0.227451 0 0 0 0 0.294118 0 0 0 0.05 0"/>
<feBlend mode="normal" in2="BackgroundImageFix" result="effect1_dropShadow_134_587"/>
<feColorMatrix in="SourceAlpha" type="matrix" values="0 0 0 0 0 0 0 0 0 0 0 0 0 0 0 0 0 0 127 0" result="hardAlpha"/>
<feOffset dy="7"/>
<feGaussianBlur stdDeviation="8"/>
<feColorMatrix type="matrix" values="0 0 0 0 0.0235294 0 0 0 0 0.227451 0 0 0 0 0.294118 0 0 0 0.05 0"/>
<feBlend mode="normal" in2="effect1_dropShadow_134_587" result="effect2_dropShadow_134_587"/>
<feColorMatrix in="SourceAlpha" type="matrix" values="0 0 0 0 0 0 0 0 0 0 0 0 0 0 0 0 0 0 127 0" result="hardAlpha"/>
<feOffset dy="29"/>
<feGaussianBlur stdDeviation="14.5"/>
<feColorMatrix type="matrix" values="0 0 0 0 0.0235294 0 0 0 0 0.227451 0 0 0 0 0.294118 0 0 0 0.04 0"/>
<feBlend mode="normal" in2="effect2_dropShadow_134_587" result="effect3_dropShadow_134_587"/>
<feColorMatrix in="SourceAlpha" type="matrix" values="0 0 0 0 0 0 0 0 0 0 0 0 0 0 0 0 0 0 127 0" result="hardAlpha"/>
<feOffset dy="66"/>
<feGaussianBlur stdDeviation="19.5"/>
<feColorMatrix type="matrix" values="0 0 0 0 0.0235294 0 0 0 0 0.227451 0 0 0 0 0.294118 0 0 0 0.03 0"/>
<feBlend mode="normal" in2="effect3_dropShadow_134_587" result="effect4_dropShadow_134_587"/>
<feColorMatrix in="SourceAlpha" type="matrix" values="0 0 0 0 0 0 0 0 0 0 0 0 0 0 0 0 0 0 127 0" result="hardAlpha"/>
<feOffset dy="117"/>
<feGaussianBlur stdDeviation="23.5"/>
<feColorMatrix type="matrix" values="0 0 0 0 0.0235294 0 0 0 0 0.227451 0 0 0 0 0.294118 0 0 0 0.01 0"/>
<feBlend mode="normal" in2="effect4_dropShadow_134_587" result="effect5_dropShadow_134_587"/>
<feBlend mode="normal" in="SourceGraphic" in2="effect5_dropShadow_134_587" result="shape"/>
</filter>
<linearGradient id="paint0_linear_134_587" x1="65.9757" y1="56.897" x2="89.7015" y2="57.6316" gradientUnits="userSpaceOnUse">
<stop stop-color="#7CCBF2"/>
<stop offset="1" stop-color="#0F9EE4"/>
</linearGradient>
<linearGradient id="paint1_linear_134_587" x1="77.8604" y1="19.6248" x2="100.574" y2="20.3121" gradientUnits="userSpaceOnUse">
<stop stop-color="#7CCBF2"/>
<stop offset="1" stop-color="#0F9EE4"/>
</linearGradient>
<linearGradient id="paint2_linear_134_587" x1="97.95" y1="34.9059" x2="120.334" y2="35.5611" gradientUnits="userSpaceOnUse">
<stop stop-color="#7CCBF2"/>
<stop offset="1" stop-color="#0F9EE4"/>
</linearGradient>
<linearGradient id="paint3_linear_134_587" x1="58.0595" y1="34.9284" x2="80.3926" y2="35.5805" gradientUnits="userSpaceOnUse">
<stop stop-color="#7CCBF2"/>
<stop offset="1" stop-color="#0F9EE4"/>
</linearGradient>
<linearGradient id="paint4_linear_134_587" x1="88.7464" y1="56.9946" x2="112.473" y2="57.7316" gradientUnits="userSpaceOnUse">
<stop stop-color="#7CCBF2"/>
<stop offset="1" stop-color="#0F9EE4"/>
</linearGradient>
<linearGradient id="paint5_linear_134_587" x1="78.9032" y1="42.4657" x2="99.3916" y2="43.1344" gradientUnits="userSpaceOnUse">
<stop stop-color="#7CCBF2"/>
<stop offset="1" stop-color="#0F9EE4"/>
</linearGradient>
</defs>
</svg>
