<svg width="140" height="146" viewBox="0 0 140 146" fill="none" xmlns="http://www.w3.org/2000/svg">
<g filter="url(#filter0_d_610_322)">
<path d="M59.5552 25.0303C66.0185 21.2987 73.9815 21.2987 80.4448 25.0303L101.124 36.9697C107.588 40.7013 111.569 47.5975 111.569 55.0606V78.9394C111.569 86.4025 107.588 93.2987 101.124 97.0303L80.4448 108.97C73.9815 112.701 66.0185 112.701 59.5552 108.97L38.8756 97.0303C32.4123 93.2987 28.4308 86.4025 28.4308 78.9394V55.0606C28.4308 47.5975 32.4123 40.7013 38.8756 36.9697L59.5552 25.0303Z" fill="white"/>
</g>
<path d="M90.5923 48.0785C92.5853 48.0785 94.2 46.4941 94.2 44.5393C94.2 42.5845 92.5849 41 90.5923 41C88.5988 41 86.9837 42.5845 86.9837 44.5393C86.9837 45.3147 87.2457 46.0263 87.6763 46.6091L70.2609 63.6104C69.4536 62.983 68.4346 62.6062 67.324 62.6062C66.6744 62.6062 66.0548 62.7351 65.4912 62.9671L58.0103 50.02C58.5014 49.576 58.8143 48.9445 58.8143 48.2382C58.8143 46.8961 57.7053 45.8084 56.3368 45.8084C54.9684 45.8084 53.8589 46.8961 53.8589 48.2382C53.8589 49.5804 54.9684 50.6681 56.3368 50.6681C56.5801 50.6681 56.8104 50.6231 57.0332 50.5584L64.5191 63.5139C63.9758 63.9064 63.5202 64.4073 63.189 64.9875L54.8753 61.6266C54.8765 61.6008 54.8836 61.5763 54.8836 61.5497C54.8836 60.6449 54.136 59.9116 53.2134 59.9116C52.2909 59.9116 51.5441 60.6449 51.5441 61.5497C51.5441 62.4545 52.2918 63.1865 53.2134 63.1865C53.7049 63.1865 54.1422 62.9746 54.4481 62.6431L62.7635 66.0048C62.6504 66.4026 62.5853 66.8208 62.5853 67.2546C62.5853 67.8242 62.6954 68.3681 62.8861 68.8718L50.0251 75.355C49.5065 74.7216 48.7204 74.3075 47.8276 74.3075C46.2663 74.3075 45 75.5494 45 77.0815C45 78.6119 46.2662 79.8547 47.8276 79.8547C49.3893 79.8547 50.6552 78.6128 50.6552 77.0815C50.6552 76.82 50.6068 76.5728 50.5379 76.333L63.3947 69.8539C64.2462 71.0906 65.6886 71.9036 67.325 71.9036C67.7017 71.9036 68.0668 71.8565 68.4189 71.7747L74.2033 87.235C73.1089 87.8357 72.3604 88.9704 72.3604 90.2878C72.3604 92.2279 73.9639 93.8 75.9427 93.8C77.9208 93.8 79.5237 92.2274 79.5237 90.2878C79.5237 88.3473 77.9203 86.7755 75.9427 86.7755C75.7057 86.7755 75.4754 86.8001 75.2514 86.843L69.4716 71.3974C70.3782 70.9444 71.1142 70.214 71.5681 69.3203L85.4353 74.1572C85.4169 74.2857 85.3957 74.4133 85.3957 74.5459C85.3957 76.0776 86.6619 77.3196 88.2232 77.3196C89.7849 77.3196 91.0513 76.0784 91.0513 74.5459C91.0513 73.0147 89.7858 71.7722 88.2232 71.7722C87.1952 71.7722 86.3044 72.3161 85.8095 73.1197L71.9445 68.2841C72.0205 67.9526 72.0655 67.6105 72.0655 67.257C72.0655 66.8494 72.0063 66.4569 71.9057 66.0808L82.3882 62.0358C82.664 62.3214 83.0503 62.5023 83.4825 62.5023C84.3158 62.5023 84.9904 61.8406 84.9904 61.0234C84.9904 60.2066 84.3149 59.5445 83.4825 59.5445C82.6531 59.5445 81.9806 60.2009 81.9751 61.014L71.4994 65.0537C71.3701 64.8196 71.2195 64.5991 71.0538 64.3912L88.4681 47.3899C89.0652 47.8187 89.7941 48.0798 90.5923 48.0798L90.5923 48.0785ZM67.3247 70.3523C65.5799 70.3523 64.1647 68.9655 64.1647 67.2538C64.1647 65.542 65.579 64.1544 67.3247 64.1544C69.07 64.1544 70.4848 65.5416 70.4848 67.2538C70.4844 68.9655 69.0692 70.3523 67.3247 70.3523ZM67.3247 65.7045C66.4519 65.7045 65.7443 66.3981 65.7443 67.2546C65.7443 68.1099 66.4519 68.8035 67.3247 68.8035C68.1968 68.8035 68.9044 68.1094 68.9044 67.2546C68.9044 66.3977 68.1967 65.7045 67.3247 65.7045Z" fill="url(#paint0_linear_610_322)"/>
<defs>
<filter id="filter0_d_610_322" x="0.430779" y="0.231628" width="139.138" height="145.537" filterUnits="userSpaceOnUse" color-interpolation-filters="sRGB">
<feFlood flood-opacity="0" result="BackgroundImageFix"/>
<feColorMatrix in="SourceAlpha" type="matrix" values="0 0 0 0 0 0 0 0 0 0 0 0 0 0 0 0 0 0 127 0" result="hardAlpha"/>
<feOffset dy="6"/>
<feGaussianBlur stdDeviation="14"/>
<feComposite in2="hardAlpha" operator="out"/>
<feColorMatrix type="matrix" values="0 0 0 0 0.0235294 0 0 0 0 0.227451 0 0 0 0 0.294118 0 0 0 0.15 0"/>
<feBlend mode="normal" in2="BackgroundImageFix" result="effect1_dropShadow_610_322"/>
<feBlend mode="normal" in="SourceGraphic" in2="effect1_dropShadow_610_322" result="shape"/>
</filter>
<linearGradient id="paint0_linear_610_322" x1="42.547" y1="25.6594" x2="100.798" y2="27.3022" gradientUnits="userSpaceOnUse">
<stop stop-color="#7CCBF2"/>
<stop offset="1" stop-color="#0F9EE4"/>
</linearGradient>
</defs>
</svg>
