<svg width="178" height="264" viewBox="0 0 178 264" fill="none" xmlns="http://www.w3.org/2000/svg">
<g filter="url(#filter0_ddddd_134_598)">
<mask id="path-1-inside-1_134_598" fill="white">
<path d="M79.641 11.4115C85.2102 8.19615 92.0718 8.19615 97.641 11.4115L121.21 25.0192C126.779 28.2346 130.21 34.1769 130.21 40.6077V67.8231C130.21 74.2539 126.779 80.1962 121.21 83.4115L97.641 97.0192C92.0718 100.235 85.2102 100.235 79.641 97.0192L56.0718 83.4115C50.5026 80.1962 47.0718 74.2539 47.0718 67.8231V40.6077C47.0718 34.1769 50.5026 28.2346 56.0718 25.0192L79.641 11.4115Z"/>
</mask>
<path d="M79.641 11.4115C85.2102 8.19615 92.0718 8.19615 97.641 11.4115L121.21 25.0192C126.779 28.2346 130.21 34.1769 130.21 40.6077V67.8231C130.21 74.2539 126.779 80.1962 121.21 83.4115L97.641 97.0192C92.0718 100.235 85.2102 100.235 79.641 97.0192L56.0718 83.4115C50.5026 80.1962 47.0718 74.2539 47.0718 67.8231V40.6077C47.0718 34.1769 50.5026 28.2346 56.0718 25.0192L79.641 11.4115Z" fill="white"/>
<path d="M56.0718 83.4115L56.478 82.708L56.0718 83.4115ZM97.641 97.0192L97.2348 96.3157L97.641 97.0192ZM79.641 97.0192L79.2348 97.7228L79.641 97.0192ZM121.21 83.4115L121.616 84.1151L121.21 83.4115ZM79.641 11.4115L79.2348 10.708L79.641 11.4115ZM97.2348 12.1151L120.804 25.7228L121.616 24.3157L98.0472 10.708L97.2348 12.1151ZM129.398 40.6077V67.8231H131.023V40.6077H129.398ZM120.804 82.708L97.2348 96.3157L98.0472 97.7228L121.616 84.1151L120.804 82.708ZM80.0472 96.3157L56.478 82.708L55.6656 84.1151L79.2348 97.7228L80.0472 96.3157ZM47.8842 67.8231V40.6077H46.2594V67.8231H47.8842ZM56.478 25.7228L80.0472 12.1151L79.2348 10.708L55.6656 24.3157L56.478 25.7228ZM47.8842 40.6077C47.8842 34.4671 51.1601 28.793 56.478 25.7228L55.6656 24.3157C49.845 27.6762 46.2594 33.8867 46.2594 40.6077H47.8842ZM56.478 82.708C51.1601 79.6377 47.8842 73.9636 47.8842 67.8231H46.2594C46.2594 74.5441 49.845 80.7546 55.6656 84.1151L56.478 82.708ZM97.2348 96.3157C91.9169 99.386 85.3651 99.386 80.0472 96.3157L79.2348 97.7228C85.0554 101.083 92.2266 101.083 98.0472 97.7228L97.2348 96.3157ZM129.398 67.8231C129.398 73.9636 126.122 79.6377 120.804 82.708L121.616 84.1151C127.437 80.7546 131.023 74.5441 131.023 67.8231H129.398ZM120.804 25.7228C126.122 28.793 129.398 34.4671 129.398 40.6077H131.023C131.023 33.8867 127.437 27.6762 121.616 24.3157L120.804 25.7228ZM98.0472 10.708C92.2266 7.3475 85.0554 7.3475 79.2348 10.708L80.0472 12.1151C85.3651 9.04481 91.9169 9.04481 97.2348 12.1151L98.0472 10.708Z" fill="#A6A6B0" fill-opacity="0.05" mask="url(#path-1-inside-1_134_598)"/>
</g>
<path d="M109.392 35.8785C111.385 35.8785 113 34.2941 113 32.3393C113 30.3845 111.385 28.8 109.392 28.8C107.399 28.8 105.784 30.3845 105.784 32.3393C105.784 33.1147 106.046 33.8263 106.476 34.4091L89.0609 51.4104C88.2535 50.783 87.2346 50.4062 86.124 50.4062C85.4744 50.4062 84.8548 50.5351 84.2912 50.7671L76.8103 37.82C77.3014 37.376 77.6143 36.7445 77.6143 36.0382C77.6143 34.6961 76.5053 33.6083 75.1368 33.6083C73.7684 33.6083 72.6589 34.6961 72.6589 36.0382C72.6589 37.3804 73.7684 38.4681 75.1368 38.4681C75.3801 38.4681 75.6104 38.4231 75.8332 38.3584L83.3191 51.3139C82.7758 51.7064 82.3202 52.2072 81.989 52.7875L73.6753 49.4266C73.6765 49.4008 73.6836 49.3763 73.6836 49.3497C73.6836 48.4449 72.936 47.7116 72.0134 47.7116C71.0909 47.7116 70.3441 48.4449 70.3441 49.3497C70.3441 50.2545 71.0918 50.9865 72.0134 50.9865C72.5049 50.9865 72.9422 50.7746 73.2481 50.4431L81.5634 53.8048C81.4504 54.2025 81.3853 54.6208 81.3853 55.0546C81.3853 55.6242 81.4954 56.168 81.6861 56.6718L68.8251 63.155C68.3065 62.5216 67.5204 62.1074 66.6276 62.1074C65.0663 62.1074 63.8 63.3494 63.8 64.8815C63.8 66.4119 65.0662 67.6547 66.6276 67.6547C68.1892 67.6547 69.4552 66.4128 69.4552 64.8815C69.4552 64.62 69.4068 64.3728 69.3379 64.133L82.1947 57.6539C83.0462 58.8906 84.4886 59.7036 86.1249 59.7036C86.5017 59.7036 86.8668 59.6565 87.2189 59.5747L93.0033 75.035C91.9089 75.6357 91.1604 76.7704 91.1604 78.0877C91.1604 80.0279 92.7638 81.6 94.7427 81.6C96.7208 81.6 98.3237 80.0274 98.3237 78.0877C98.3237 76.1473 96.7203 74.5755 94.7427 74.5755C94.5057 74.5755 94.2754 74.6001 94.0514 74.643L88.2715 59.1974C89.1782 58.7444 89.9142 58.0139 90.3681 57.1202L104.235 61.9572C104.217 62.0857 104.196 62.2133 104.196 62.3459C104.196 63.8776 105.462 65.1196 107.023 65.1196C108.585 65.1196 109.851 63.8784 109.851 62.3459C109.851 60.8147 108.586 59.5722 107.023 59.5722C105.995 59.5722 105.104 60.1161 104.61 60.9197L90.7445 56.0841C90.8204 55.7526 90.8655 55.4105 90.8655 55.0569C90.8655 54.6494 90.8063 54.2569 90.7057 53.8808L101.188 49.8358C101.464 50.1214 101.85 50.3023 102.283 50.3023C103.116 50.3023 103.79 49.6406 103.79 48.8234C103.79 48.0066 103.115 47.3445 102.283 47.3445C101.453 47.3445 100.781 48.0009 100.775 48.814L90.2994 52.8537C90.1701 52.6196 90.0194 52.399 89.8538 52.1912L107.268 35.1899C107.865 35.6187 108.594 35.8798 109.392 35.8798L109.392 35.8785ZM86.1247 58.1523C84.3799 58.1523 82.9646 56.7655 82.9646 55.0538C82.9646 53.342 84.379 51.9544 86.1247 51.9544C87.87 51.9544 89.2848 53.3416 89.2848 55.0538C89.2844 56.7655 87.8692 58.1523 86.1247 58.1523ZM86.1247 53.5045C85.2519 53.5045 84.5443 54.1981 84.5443 55.0546C84.5443 55.9099 85.2519 56.6035 86.1247 56.6035C86.9967 56.6035 87.7043 55.9094 87.7043 55.0546C87.7043 54.1977 86.9967 53.5045 86.1247 53.5045Z" fill="url(#paint0_linear_134_598)"/>
<defs>
<filter id="filter0_ddddd_134_598" x="0.0717773" y="0" width="177.138" height="263.431" filterUnits="userSpaceOnUse" color-interpolation-filters="sRGB">
<feFlood flood-opacity="0" result="BackgroundImageFix"/>
<feColorMatrix in="SourceAlpha" type="matrix" values="0 0 0 0 0 0 0 0 0 0 0 0 0 0 0 0 0 0 127 0" result="hardAlpha"/>
<feOffset/>
<feColorMatrix type="matrix" values="0 0 0 0 0.0235294 0 0 0 0 0.227451 0 0 0 0 0.294118 0 0 0 0.05 0"/>
<feBlend mode="normal" in2="BackgroundImageFix" result="effect1_dropShadow_134_598"/>
<feColorMatrix in="SourceAlpha" type="matrix" values="0 0 0 0 0 0 0 0 0 0 0 0 0 0 0 0 0 0 127 0" result="hardAlpha"/>
<feOffset dy="7"/>
<feGaussianBlur stdDeviation="8"/>
<feColorMatrix type="matrix" values="0 0 0 0 0.0235294 0 0 0 0 0.227451 0 0 0 0 0.294118 0 0 0 0.05 0"/>
<feBlend mode="normal" in2="effect1_dropShadow_134_598" result="effect2_dropShadow_134_598"/>
<feColorMatrix in="SourceAlpha" type="matrix" values="0 0 0 0 0 0 0 0 0 0 0 0 0 0 0 0 0 0 127 0" result="hardAlpha"/>
<feOffset dy="29"/>
<feGaussianBlur stdDeviation="14.5"/>
<feColorMatrix type="matrix" values="0 0 0 0 0.0235294 0 0 0 0 0.227451 0 0 0 0 0.294118 0 0 0 0.04 0"/>
<feBlend mode="normal" in2="effect2_dropShadow_134_598" result="effect3_dropShadow_134_598"/>
<feColorMatrix in="SourceAlpha" type="matrix" values="0 0 0 0 0 0 0 0 0 0 0 0 0 0 0 0 0 0 127 0" result="hardAlpha"/>
<feOffset dy="66"/>
<feGaussianBlur stdDeviation="19.5"/>
<feColorMatrix type="matrix" values="0 0 0 0 0.0235294 0 0 0 0 0.227451 0 0 0 0 0.294118 0 0 0 0.03 0"/>
<feBlend mode="normal" in2="effect3_dropShadow_134_598" result="effect4_dropShadow_134_598"/>
<feColorMatrix in="SourceAlpha" type="matrix" values="0 0 0 0 0 0 0 0 0 0 0 0 0 0 0 0 0 0 127 0" result="hardAlpha"/>
<feOffset dy="117"/>
<feGaussianBlur stdDeviation="23.5"/>
<feColorMatrix type="matrix" values="0 0 0 0 0.0235294 0 0 0 0 0.227451 0 0 0 0 0.294118 0 0 0 0.01 0"/>
<feBlend mode="normal" in2="effect4_dropShadow_134_598" result="effect5_dropShadow_134_598"/>
<feBlend mode="normal" in="SourceGraphic" in2="effect5_dropShadow_134_598" result="shape"/>
</filter>
<linearGradient id="paint0_linear_134_598" x1="61.347" y1="13.4594" x2="119.598" y2="15.1022" gradientUnits="userSpaceOnUse">
<stop stop-color="#7CCBF2"/>
<stop offset="1" stop-color="#0F9EE4"/>
</linearGradient>
</defs>
</svg>
