<svg width="178" height="264" viewBox="0 0 178 264" fill="none" xmlns="http://www.w3.org/2000/svg">
<g filter="url(#filter0_ddddd_134_540)">
<mask id="path-1-inside-1_134_540" fill="white">
<path d="M78.1244 12.7524C84.5877 9.02078 92.5508 9.02078 99.014 12.7524L119.694 24.6917C126.157 28.4233 130.138 35.3195 130.138 42.7827V66.6614C130.138 74.1245 126.157 81.0208 119.694 84.7523L99.014 96.6917C92.5508 100.423 84.5877 100.423 78.1244 96.6917L57.4448 84.7523C50.9815 81.0208 47 74.1245 47 66.6614V42.7827C47 35.3195 50.9815 28.4233 57.4448 24.6917L78.1244 12.7524Z"/>
</mask>
<path d="M78.1244 12.7524C84.5877 9.02078 92.5508 9.02078 99.014 12.7524L119.694 24.6917C126.157 28.4233 130.138 35.3195 130.138 42.7827V66.6614C130.138 74.1245 126.157 81.0208 119.694 84.7523L99.014 96.6917C92.5508 100.423 84.5877 100.423 78.1244 96.6917L57.4448 84.7523C50.9815 81.0208 47 74.1245 47 66.6614V42.7827C47 35.3195 50.9815 28.4233 57.4448 24.6917L78.1244 12.7524Z" fill="white"/>
<path d="M57.4448 24.6917L57.0386 23.9882L57.4448 24.6917ZM99.014 96.6917L99.4202 97.3952L99.014 96.6917ZM78.1244 96.6917L77.7182 97.3952L78.1244 96.6917ZM119.694 24.6917L119.287 25.3953L119.694 24.6917ZM99.014 12.7524L98.6078 13.4559L99.014 12.7524ZM98.6078 13.4559L119.287 25.3953L120.1 23.9882L99.4202 12.0488L98.6078 13.4559ZM129.326 42.7827V66.6614H130.951V42.7827H129.326ZM119.287 84.0488L98.6078 95.9882L99.4202 97.3952L120.1 85.4559L119.287 84.0488ZM78.5306 95.9882L57.851 84.0488L57.0386 85.4559L77.7182 97.3952L78.5306 95.9882ZM47.8124 66.6614V42.7827H46.1876V66.6614H47.8124ZM57.851 25.3953L78.5306 13.4559L77.7182 12.0488L57.0386 23.9882L57.851 25.3953ZM47.8124 42.7827C47.8124 35.6098 51.6391 28.9817 57.851 25.3953L57.0386 23.9882C50.324 27.8649 46.1876 35.0293 46.1876 42.7827H47.8124ZM57.851 84.0488C51.6391 80.4624 47.8124 73.8343 47.8124 66.6614H46.1876C46.1876 74.4148 50.324 81.5792 57.0386 85.4559L57.851 84.0488ZM98.6078 95.9882C92.3959 99.5746 84.7425 99.5746 78.5306 95.9882L77.7182 97.3952C84.4328 101.272 92.7056 101.272 99.4202 97.3952L98.6078 95.9882ZM129.326 66.6614C129.326 73.8343 125.499 80.4624 119.287 84.0488L120.1 85.4559C126.814 81.5792 130.951 74.4148 130.951 66.6614H129.326ZM119.287 25.3953C125.499 28.9817 129.326 35.6098 129.326 42.7827H130.951C130.951 35.0293 126.814 27.8649 120.1 23.9882L119.287 25.3953ZM99.4202 12.0488C92.7056 8.17213 84.4328 8.17213 77.7182 12.0488L78.5306 13.4559C84.7425 9.86943 92.3959 9.86944 98.6078 13.4559L99.4202 12.0488Z" fill="#A6A6B0" fill-opacity="0.05" mask="url(#path-1-inside-1_134_540)"/>
</g>
<path d="M96.3572 72.4412H81.6348C81.3877 72.4412 81.1875 72.241 81.1875 71.9939C81.1875 71.1036 80.7125 70.2782 79.9484 69.8411C79.1811 69.3991 78.2087 69.4028 77.4516 69.84C77.3488 69.8991 77.2269 69.9151 77.1119 69.8847C76.9974 69.8538 76.8994 69.7788 76.8403 69.6765L73.1619 63.2978L69.4834 56.9271C69.3599 56.713 69.4334 56.4393 69.6469 56.3163C70.4233 55.8674 70.8871 55.0596 70.8871 54.155C70.8871 53.2684 70.4116 52.4435 69.6469 52.0016C69.4329 51.878 69.3599 51.6048 69.4834 51.3908L73.1619 45.012L76.8403 38.6408C76.8994 38.538 76.9974 38.4629 77.1119 38.4326C77.2269 38.4017 77.3488 38.4182 77.4511 38.4773C78.2029 38.9118 79.1779 38.914 79.9495 38.4757C80.7115 38.0337 81.187 37.2052 81.187 36.3164C81.187 36.0694 81.3872 35.8691 81.6343 35.8691H96.3567C96.6038 35.8691 96.804 36.0694 96.804 36.3164C96.804 37.2025 97.2827 38.0305 98.0527 38.4778C98.812 38.9128 99.788 38.9112 100.539 38.4772C100.753 38.3537 101.027 38.4266 101.15 38.6407L104.837 45.012L108.516 51.3912C108.639 51.6053 108.566 51.8785 108.352 52.002C107.582 52.4466 107.104 53.2715 107.104 54.1554C107.104 55.0442 107.582 55.8722 108.352 56.3168C108.566 56.4403 108.639 56.714 108.515 56.9275L101.15 69.6775C101.027 69.8916 100.753 69.9651 100.539 69.841C99.7833 69.4044 98.8109 69.4001 98.0521 69.8405C97.2811 70.2819 96.8034 71.1068 96.8034 71.9945C96.8045 72.241 96.6043 72.4412 96.3572 72.4412L96.3572 72.4412ZM82.0533 71.5466H95.94C96.0785 70.5141 96.6909 69.5892 97.6068 69.0647C98.1185 68.7681 98.7022 68.61 99.2921 68.61C99.7362 68.61 100.177 68.6983 100.586 68.8677L107.533 56.8413C106.708 56.2049 106.21 55.2113 106.21 54.1548C106.21 53.1026 106.708 52.1117 107.533 51.4759L104.063 45.4587L100.586 39.4489C100.179 39.6167 99.7405 39.704 99.2974 39.704C98.7074 39.704 98.1228 39.548 97.6068 39.2519C96.6904 38.72 96.0791 37.7923 95.9401 36.7625H82.0533C81.9154 37.7944 81.3067 38.722 80.3962 39.2503C79.8733 39.5474 79.287 39.7034 78.6965 39.7034C78.2529 39.7034 77.8141 39.6161 77.4073 39.4484L73.9376 45.4581L70.4673 51.4753C71.2879 52.1095 71.7826 53.1 71.7826 54.1537C71.7826 55.2118 71.2879 56.2054 70.4673 56.8396L73.937 62.8493L77.4067 68.866C77.8162 68.6967 78.2566 68.6088 78.7012 68.6088C79.2918 68.6088 79.877 68.7664 80.394 69.0641C81.3067 69.587 81.9159 70.5119 82.0539 71.5466L82.0533 71.5466Z" fill="url(#paint0_linear_134_540)"/>
<path d="M99.2907 39.7057C98.7002 39.7057 98.1171 39.5486 97.6043 39.252C96.8221 38.8 96.2619 38.0699 96.0271 37.1966C95.7917 36.3223 95.9116 35.4106 96.3642 34.6284C96.9654 33.5831 98.0894 32.9329 99.2967 32.9329C99.8883 32.9329 100.473 33.0905 100.988 33.3881C101.772 33.8392 102.333 34.5687 102.567 35.4414C102.802 36.3152 102.681 37.2278 102.228 38.0112C101.624 39.0565 100.498 39.7057 99.2908 39.7057L99.2907 39.7057ZM99.2966 33.8275C98.4084 33.8275 97.5819 34.3057 97.1389 35.0757C96.8061 35.6513 96.7183 36.3217 96.8913 36.9644C97.0644 37.607 97.4765 38.1444 98.0521 38.4772C98.4291 38.695 98.8573 38.8106 99.2907 38.8106C100.18 38.8106 101.009 38.3329 101.454 37.5635C101.787 36.9873 101.875 36.3159 101.703 35.6732C101.531 35.031 101.118 34.4948 100.54 34.1625C100.161 33.9436 99.7311 33.8275 99.2965 33.8275L99.2966 33.8275Z" fill="url(#paint1_linear_134_540)"/>
<path d="M109.592 57.5457C107.727 57.5457 106.21 56.025 106.21 54.1559C106.21 52.2905 107.727 50.7736 109.592 50.7736C111.461 50.7736 112.982 52.2912 112.982 54.1559C112.982 56.025 111.461 57.5457 109.592 57.5457ZM109.592 51.6681C108.22 51.6681 107.104 52.7842 107.104 54.1559C107.104 55.5319 108.22 56.6512 109.592 56.6512C110.968 56.6512 112.088 55.5319 112.088 54.1559C112.088 52.7843 110.968 51.6681 109.592 51.6681Z" fill="url(#paint2_linear_134_540)"/>
<path d="M99.3018 75.3802C98.093 75.3802 96.9673 74.7322 96.3645 73.6896C95.4348 72.073 95.9912 69.9994 97.6047 69.0659C98.1196 68.7683 98.7054 68.6107 99.2975 68.6107C100.503 68.6107 101.626 69.2576 102.228 70.2987C103.162 71.9222 102.605 73.9995 100.987 74.9304C100.473 75.2254 99.8912 75.3803 99.3018 75.3803L99.3018 75.3802ZM99.2975 69.5057C98.8625 69.5057 98.4317 69.6218 98.0525 69.8406C96.8651 70.5276 96.455 72.0536 97.1393 73.2427C97.5824 74.009 98.4109 74.4856 99.3017 74.4856C99.7352 74.4856 100.164 74.3711 100.541 74.1549C101.731 73.4706 102.14 71.9408 101.453 70.7458C101.011 69.9817 100.185 69.5057 99.2976 69.5057L99.2975 69.5057Z" fill="url(#paint3_linear_134_540)"/>
<path d="M78.6944 75.3802C78.106 75.3802 77.5224 75.2253 77.0075 74.9313C75.3962 73.9995 74.8392 71.9228 75.7631 70.3013C76.3669 69.2576 77.4905 68.6107 78.6976 68.6107C79.2908 68.6107 79.8776 68.7677 80.3946 69.0654C82.0059 69.9973 82.5592 72.0708 81.6284 73.6885C81.0251 74.7327 79.901 75.3802 78.6944 75.3802L78.6944 75.3802ZM78.6976 69.5057C77.8089 69.5057 76.9819 69.9812 76.5389 70.747C75.8589 71.9403 76.2684 73.4706 77.4527 74.156C77.8307 74.3711 78.261 74.4862 78.6944 74.4862C79.5826 74.4862 80.4101 74.0096 80.8537 73.2423C81.5385 72.0521 81.1322 70.526 79.9474 69.8413C79.5667 69.6219 79.1343 69.5058 78.6977 69.5058L78.6976 69.5057Z" fill="url(#paint4_linear_134_540)"/>
<path d="M68.3995 57.5457C66.5342 57.5457 65.0172 56.025 65.0172 54.1559C65.0172 52.2905 66.5348 50.7736 68.3995 50.7736C70.2649 50.7736 71.7819 52.2906 71.7819 54.1559C71.7819 56.025 70.2648 57.5457 68.3995 57.5457ZM68.3995 51.6681C67.0279 51.6681 65.9117 52.7842 65.9117 54.1559C65.9117 55.5319 67.0278 56.6512 68.3995 56.6512C69.7713 56.6512 70.8874 55.5319 70.8874 54.1559C70.8874 52.7843 69.7713 51.6681 68.3995 51.6681Z" fill="url(#paint5_linear_134_540)"/>
<path d="M78.7039 39.7057C77.4951 39.7057 76.3684 39.0566 75.7646 38.0119C74.8375 36.3936 75.394 34.3201 77.0048 33.3887C77.5229 33.0911 78.1081 32.9335 78.6992 32.9335C79.9043 32.9335 81.0267 33.5836 81.6284 34.63C82.08 35.4111 82.2014 36.3228 81.9687 37.196C81.736 38.0698 81.1769 38.8005 80.3952 39.2525C79.8797 39.5491 79.2951 39.7057 78.704 39.7057L78.7039 39.7057ZM78.6991 33.8281C78.2646 33.8281 77.8327 33.9442 77.4515 34.1636C76.2672 34.8489 75.8578 36.3751 76.5399 37.5657C76.984 38.333 77.813 38.8112 78.7039 38.8112C79.1384 38.8112 79.5692 38.6956 79.9484 38.4773C80.5224 38.1456 80.9329 37.6083 81.1044 36.9655C81.2753 36.3228 81.1864 35.6519 80.8536 35.0768C80.4106 34.3063 79.5852 33.8281 78.6991 33.8281L78.6991 33.8281Z" fill="url(#paint6_linear_134_540)"/>
<path d="M83.2434 64.577C83.0885 64.577 82.9383 64.4966 82.8552 64.3528L79.9808 59.3624L77.0989 54.3798C77.019 54.2413 77.019 54.0704 77.0989 53.932L79.9808 48.9488L82.8552 43.9663C82.9351 43.8278 83.0826 43.7426 83.2429 43.7426H94.7565C94.9162 43.7426 95.0643 43.8278 95.1441 43.9663L98.0191 48.9494C98.1426 49.1634 98.0691 49.4371 97.8551 49.5602C97.6416 49.6837 97.3673 49.6102 97.2443 49.3961L94.4987 44.6367H83.5022L80.7566 49.3961L78.0031 54.1556L80.7555 58.915L83.6305 63.9066C83.754 64.1206 83.68 64.3943 83.4659 64.5173C83.3956 64.5573 83.319 64.577 83.2433 64.577L83.2434 64.577Z" fill="url(#paint7_linear_134_540)"/>
<path d="M94.757 64.577H89.0003C88.7532 64.577 88.553 64.3768 88.553 64.1297C88.553 63.8827 88.7532 63.6824 89.0003 63.6824H94.4983L100.119 53.9325C100.242 53.7185 100.515 53.645 100.729 53.7685C100.944 53.8921 101.017 54.1658 100.893 54.3793L95.1441 64.3529C95.0647 64.4913 94.9167 64.5771 94.757 64.5771L94.757 64.577Z" fill="url(#paint8_linear_134_540)"/>
<path d="M94.7567 44.6364C94.6805 44.6364 94.6038 44.6172 94.5335 44.5762C94.3195 44.4527 94.246 44.179 94.3695 43.9654L97.4415 38.641C97.565 38.4269 97.8387 38.3534 98.0523 38.477C98.2663 38.6005 98.3398 38.8742 98.2163 39.0877L95.1443 44.4122C95.0618 44.556 94.9111 44.6364 94.7567 44.6364V44.6364Z" fill="url(#paint9_linear_134_540)"/>
<path d="M100.763 34.223C100.687 34.223 100.61 34.2038 100.54 34.1628C100.326 34.0393 100.252 33.7656 100.377 33.5521L105.185 25.2238C105.309 25.0098 105.583 24.9363 105.796 25.0603C106.01 25.1839 106.084 25.4576 105.96 25.6711L101.151 33.9994C101.068 34.1426 100.918 34.223 100.763 34.223V34.223Z" fill="url(#paint10_linear_134_540)"/>
<path d="M106.657 54.6026H100.506C100.259 54.6026 100.059 54.4024 100.059 54.1553C100.059 53.9082 100.259 53.708 100.506 53.708H106.658C106.905 53.708 107.105 53.9082 107.105 54.1553C107.105 54.4024 106.904 54.6026 106.657 54.6026V54.6026Z" fill="url(#paint11_linear_134_540)"/>
<path d="M122.153 54.6026H112.535C112.288 54.6026 112.088 54.4024 112.088 54.1553C112.088 53.9082 112.288 53.708 112.535 53.708H122.153C122.4 53.708 122.6 53.9082 122.6 54.1553C122.6 54.4024 122.4 54.6026 122.153 54.6026Z" fill="url(#paint12_linear_134_540)"/>
<path d="M97.8294 69.9016C97.6749 69.9016 97.5242 69.8212 97.4412 69.6775L94.3692 64.353C94.2457 64.1389 94.3192 63.8652 94.5332 63.7422C94.7473 63.6187 95.021 63.6922 95.144 63.9062L98.2159 69.2307C98.3395 69.4447 98.266 69.7184 98.0519 69.8415C97.9822 69.8825 97.9055 69.9016 97.8294 69.9016V69.9016Z" fill="url(#paint13_linear_134_540)"/>
<path d="M105.572 83.3113C105.418 83.3113 105.267 83.2309 105.185 83.0876L100.376 74.7674C100.252 74.5534 100.325 74.2797 100.539 74.1561C100.753 74.0326 101.027 74.1061 101.151 74.3196L105.959 82.6398C106.083 82.8538 106.01 83.1275 105.796 83.2511C105.725 83.2916 105.648 83.3113 105.572 83.3113V83.3113Z" fill="url(#paint14_linear_134_540)"/>
<path d="M80.1709 69.9016C80.0948 69.9016 80.0181 69.8825 79.9478 69.8415C79.7337 69.7179 79.6602 69.4442 79.7838 69.2307L82.8557 63.9062C82.9793 63.6922 83.253 63.6187 83.4665 63.7422C83.6806 63.8658 83.754 64.1395 83.6305 64.353L80.5586 69.6775C80.4755 69.8212 80.3253 69.9016 80.1709 69.9016V69.9016Z" fill="url(#paint15_linear_134_540)"/>
<path d="M72.4196 83.3113C72.3434 83.3113 72.2668 83.2921 72.1965 83.2511C71.9824 83.1276 71.9095 82.8539 72.033 82.6398L76.8419 74.3196C76.9654 74.1056 77.2392 74.0321 77.4527 74.1562C77.6667 74.2797 77.7397 74.5534 77.6162 74.7675L72.8073 83.0877C72.7247 83.2309 72.5746 83.3113 72.4196 83.3113V83.3113Z" fill="url(#paint16_linear_134_540)"/>
<path d="M77.4867 54.6026H71.3353C71.0883 54.6026 70.8881 54.4024 70.8881 54.1553C70.8881 53.9082 71.0883 53.708 71.3353 53.708H77.4867C77.7338 53.708 77.934 53.9082 77.934 54.1553C77.934 54.4024 77.7338 54.6026 77.4867 54.6026Z" fill="url(#paint17_linear_134_540)"/>
<path d="M65.4647 54.6026H55.8473C55.6002 54.6026 55.4 54.4024 55.4 54.1553C55.4 53.9082 55.6002 53.708 55.8473 53.708H65.4647C65.7118 53.708 65.912 53.9082 65.912 54.1553C65.912 54.4024 65.7118 54.6026 65.4647 54.6026Z" fill="url(#paint18_linear_134_540)"/>
<path d="M83.2434 44.6364C83.0889 44.6364 82.9382 44.556 82.8552 44.4127L79.7832 39.0883C79.6597 38.8742 79.7332 38.6005 79.9472 38.4775C80.1613 38.354 80.4345 38.4275 80.558 38.6415L83.6299 43.966C83.7535 44.18 83.68 44.4537 83.4659 44.5767C83.3957 44.6172 83.319 44.6364 83.2434 44.6364V44.6364Z" fill="url(#paint19_linear_134_540)"/>
<path d="M77.2289 34.223C77.0745 34.223 76.9238 34.1426 76.8412 33.9994L72.0323 25.6711C71.9088 25.4571 71.9823 25.1834 72.1958 25.0604C72.4099 24.9368 72.6836 25.0103 72.8066 25.2238L77.6155 33.5521C77.739 33.7661 77.6655 34.0398 77.452 34.1628C77.3817 34.2033 77.3045 34.223 77.2289 34.223V34.223Z" fill="url(#paint20_linear_134_540)"/>
<path d="M91.7154 59.3056H86.285C86.1253 59.3056 85.9778 59.2204 85.8979 59.0819L83.1827 54.3795C83.1028 54.2411 83.1028 54.0707 83.1827 53.9322L85.8984 49.2367C85.9783 49.0988 86.1258 49.0136 86.2856 49.0136H91.7159C91.8757 49.0136 92.0237 49.0988 92.1036 49.2378L94.8108 53.9323C94.8906 54.0708 94.8906 54.2412 94.8108 54.3796L92.1036 59.0815C92.0237 59.2199 91.8757 59.3057 91.7154 59.3057L91.7154 59.3056ZM86.5433 58.411H91.4567L93.9067 54.1558L91.4572 49.9081H86.5428L84.0863 54.1558L86.5433 58.411Z" fill="url(#paint21_linear_134_540)"/>
<defs>
<filter id="filter0_ddddd_134_540" x="0" y="0.953674" width="177.138" height="262.537" filterUnits="userSpaceOnUse" color-interpolation-filters="sRGB">
<feFlood flood-opacity="0" result="BackgroundImageFix"/>
<feColorMatrix in="SourceAlpha" type="matrix" values="0 0 0 0 0 0 0 0 0 0 0 0 0 0 0 0 0 0 127 0" result="hardAlpha"/>
<feOffset/>
<feColorMatrix type="matrix" values="0 0 0 0 0.0235294 0 0 0 0 0.227451 0 0 0 0 0.294118 0 0 0 0.05 0"/>
<feBlend mode="normal" in2="BackgroundImageFix" result="effect1_dropShadow_134_540"/>
<feColorMatrix in="SourceAlpha" type="matrix" values="0 0 0 0 0 0 0 0 0 0 0 0 0 0 0 0 0 0 127 0" result="hardAlpha"/>
<feOffset dy="7"/>
<feGaussianBlur stdDeviation="8"/>
<feColorMatrix type="matrix" values="0 0 0 0 0.0235294 0 0 0 0 0.227451 0 0 0 0 0.294118 0 0 0 0.05 0"/>
<feBlend mode="normal" in2="effect1_dropShadow_134_540" result="effect2_dropShadow_134_540"/>
<feColorMatrix in="SourceAlpha" type="matrix" values="0 0 0 0 0 0 0 0 0 0 0 0 0 0 0 0 0 0 127 0" result="hardAlpha"/>
<feOffset dy="29"/>
<feGaussianBlur stdDeviation="14.5"/>
<feColorMatrix type="matrix" values="0 0 0 0 0.0235294 0 0 0 0 0.227451 0 0 0 0 0.294118 0 0 0 0.04 0"/>
<feBlend mode="normal" in2="effect2_dropShadow_134_540" result="effect3_dropShadow_134_540"/>
<feColorMatrix in="SourceAlpha" type="matrix" values="0 0 0 0 0 0 0 0 0 0 0 0 0 0 0 0 0 0 127 0" result="hardAlpha"/>
<feOffset dy="66"/>
<feGaussianBlur stdDeviation="19.5"/>
<feColorMatrix type="matrix" values="0 0 0 0 0.0235294 0 0 0 0 0.227451 0 0 0 0 0.294118 0 0 0 0.03 0"/>
<feBlend mode="normal" in2="effect3_dropShadow_134_540" result="effect4_dropShadow_134_540"/>
<feColorMatrix in="SourceAlpha" type="matrix" values="0 0 0 0 0 0 0 0 0 0 0 0 0 0 0 0 0 0 127 0" result="hardAlpha"/>
<feOffset dy="117"/>
<feGaussianBlur stdDeviation="23.5"/>
<feColorMatrix type="matrix" values="0 0 0 0 0.0235294 0 0 0 0 0.227451 0 0 0 0 0.294118 0 0 0 0.01 0"/>
<feBlend mode="normal" in2="effect4_dropShadow_134_540" result="effect5_dropShadow_134_540"/>
<feBlend mode="normal" in="SourceGraphic" in2="effect5_dropShadow_134_540" result="shape"/>
</filter>
<linearGradient id="paint0_linear_134_540" x1="67.4713" y1="25.2434" x2="113.814" y2="26.745" gradientUnits="userSpaceOnUse">
<stop stop-color="#7CCBF2"/>
<stop offset="1" stop-color="#0F9EE4"/>
</linearGradient>
<linearGradient id="paint1_linear_134_540" x1="95.5715" y1="30.9651" x2="103.592" y2="31.2079" gradientUnits="userSpaceOnUse">
<stop stop-color="#7CCBF2"/>
<stop offset="1" stop-color="#0F9EE4"/>
</linearGradient>
<linearGradient id="paint2_linear_134_540" x1="105.872" y1="48.806" x2="113.889" y2="49.0486" gradientUnits="userSpaceOnUse">
<stop stop-color="#7CCBF2"/>
<stop offset="1" stop-color="#0F9EE4"/>
</linearGradient>
<linearGradient id="paint3_linear_134_540" x1="95.5768" y1="66.6438" x2="103.587" y2="66.8861" gradientUnits="userSpaceOnUse">
<stop stop-color="#7CCBF2"/>
<stop offset="1" stop-color="#0F9EE4"/>
</linearGradient>
<linearGradient id="paint4_linear_134_540" x1="74.9797" y1="66.6438" x2="82.9864" y2="66.8859" gradientUnits="userSpaceOnUse">
<stop stop-color="#7CCBF2"/>
<stop offset="1" stop-color="#0F9EE4"/>
</linearGradient>
<linearGradient id="paint5_linear_134_540" x1="64.6799" y1="48.806" x2="72.688" y2="49.0481" gradientUnits="userSpaceOnUse">
<stop stop-color="#7CCBF2"/>
<stop offset="1" stop-color="#0F9EE4"/>
</linearGradient>
<linearGradient id="paint6_linear_134_540" x1="74.9786" y1="30.9658" x2="82.9909" y2="31.2082" gradientUnits="userSpaceOnUse">
<stop stop-color="#7CCBF2"/>
<stop offset="1" stop-color="#0F9EE4"/>
</linearGradient>
<linearGradient id="paint7_linear_134_540" x1="75.99" y1="37.6894" x2="100.897" y2="38.4506" gradientUnits="userSpaceOnUse">
<stop stop-color="#7CCBF2"/>
<stop offset="1" stop-color="#0F9EE4"/>
</linearGradient>
<linearGradient id="paint8_linear_134_540" x1="87.9347" y1="50.5508" x2="102.61" y2="51.0576" gradientUnits="userSpaceOnUse">
<stop stop-color="#7CCBF2"/>
<stop offset="1" stop-color="#0F9EE4"/>
</linearGradient>
<linearGradient id="paint9_linear_134_540" x1="94.1118" y1="36.61" x2="98.8101" y2="36.7007" gradientUnits="userSpaceOnUse">
<stop stop-color="#7CCBF2"/>
<stop offset="1" stop-color="#0F9EE4"/>
</linearGradient>
<linearGradient id="paint10_linear_134_540" x1="100.032" y1="22.3203" x2="106.788" y2="22.4468" gradientUnits="userSpaceOnUse">
<stop stop-color="#7CCBF2"/>
<stop offset="1" stop-color="#0F9EE4"/>
</linearGradient>
<linearGradient id="paint11_linear_134_540" x1="99.7079" y1="53.4481" x2="107.608" y2="55.3313" gradientUnits="userSpaceOnUse">
<stop stop-color="#7CCBF2"/>
<stop offset="1" stop-color="#0F9EE4"/>
</linearGradient>
<linearGradient id="paint12_linear_134_540" x1="111.564" y1="53.4481" x2="122.621" y2="57.3805" gradientUnits="userSpaceOnUse">
<stop stop-color="#7CCBF2"/>
<stop offset="1" stop-color="#0F9EE4"/>
</linearGradient>
<linearGradient id="paint13_linear_134_540" x1="94.1115" y1="61.8753" x2="98.8098" y2="61.966" gradientUnits="userSpaceOnUse">
<stop stop-color="#7CCBF2"/>
<stop offset="1" stop-color="#0F9EE4"/>
</linearGradient>
<linearGradient id="paint14_linear_134_540" x1="100.031" y1="71.4188" x2="106.787" y2="71.5453" gradientUnits="userSpaceOnUse">
<stop stop-color="#7CCBF2"/>
<stop offset="1" stop-color="#0F9EE4"/>
</linearGradient>
<linearGradient id="paint15_linear_134_540" x1="79.526" y1="61.8753" x2="84.2244" y2="61.966" gradientUnits="userSpaceOnUse">
<stop stop-color="#7CCBF2"/>
<stop offset="1" stop-color="#0F9EE4"/>
</linearGradient>
<linearGradient id="paint16_linear_134_540" x1="71.6885" y1="71.4183" x2="78.4441" y2="71.5449" gradientUnits="userSpaceOnUse">
<stop stop-color="#7CCBF2"/>
<stop offset="1" stop-color="#0F9EE4"/>
</linearGradient>
<linearGradient id="paint17_linear_134_540" x1="70.5368" y1="53.4481" x2="78.4366" y2="55.3313" gradientUnits="userSpaceOnUse">
<stop stop-color="#7CCBF2"/>
<stop offset="1" stop-color="#0F9EE4"/>
</linearGradient>
<linearGradient id="paint18_linear_134_540" x1="54.8759" y1="53.4481" x2="65.933" y2="57.3805" gradientUnits="userSpaceOnUse">
<stop stop-color="#7CCBF2"/>
<stop offset="1" stop-color="#0F9EE4"/>
</linearGradient>
<linearGradient id="paint19_linear_134_540" x1="79.5255" y1="36.6107" x2="84.2238" y2="36.7014" gradientUnits="userSpaceOnUse">
<stop stop-color="#7CCBF2"/>
<stop offset="1" stop-color="#0F9EE4"/>
</linearGradient>
<linearGradient id="paint20_linear_134_540" x1="71.688" y1="22.3208" x2="78.4432" y2="22.4472" gradientUnits="userSpaceOnUse">
<stop stop-color="#7CCBF2"/>
<stop offset="1" stop-color="#0F9EE4"/>
</linearGradient>
<linearGradient id="paint21_linear_134_540" x1="82.5371" y1="46.0233" x2="96.4405" y2="46.5037" gradientUnits="userSpaceOnUse">
<stop stop-color="#7CCBF2"/>
<stop offset="1" stop-color="#0F9EE4"/>
</linearGradient>
</defs>
</svg>
