<svg width="64" height="64" viewBox="0 0 64 64" fill="none" xmlns="http://www.w3.org/2000/svg">
<g clip-path="url(#clip0_15_45)">
<path d="M0 4.58456C0 2.05326 2.1174 -9.826e-07 4.72948 -9.826e-07H59.2705C61.8825 -9.826e-07 64 2.05326 64 4.58456V59.4154C64 61.9476 61.8825 64 59.2705 64H4.72948C2.1174 64 0 61.9476 0 59.4154V4.58456V4.58456Z" fill="#006699"/>
<path fill-rule="evenodd" clip-rule="evenodd" d="M19.4004 53.5747V24.6751H9.73373V53.5747H19.4004V53.5747ZM14.567 20.7294C17.9379 20.7294 20.0361 18.5102 20.0361 15.7369C19.9733 12.9012 17.938 10.7436 14.6309 10.7436C11.3243 10.7436 9.16229 12.9012 9.16229 15.7369C9.16229 18.5102 11.26 20.7294 14.504 20.7294H14.5668H14.567Z" fill="white"/>
<path fill-rule="evenodd" clip-rule="evenodd" d="M24.7493 53.5747H34.4158V37.436C34.4158 36.5722 34.4786 35.7094 34.7339 35.0919C35.4327 33.3662 37.0232 31.5789 39.6937 31.5789C43.1916 31.5789 44.5908 34.2291 44.5908 38.1141V53.5747H54.2566V37.0041C54.2566 28.1274 49.4876 23.997 43.1277 23.997C37.9128 23.997 35.6235 26.8934 34.3515 28.8663H34.4161V24.6751H24.7495C24.8764 27.3869 24.7495 53.5747 24.7495 53.5747H24.7493Z" fill="white"/>
</g>
<defs>
<clipPath id="clip0_15_45">
<rect width="64" height="64" fill="white"/>
</clipPath>
</defs>
</svg>
