<svg width="178" height="263" viewBox="0 0 178 263" fill="none" xmlns="http://www.w3.org/2000/svg">
<g filter="url(#filter0_ddddd_134_567)">
<mask id="path-1-inside-1_134_567" fill="white">
<path d="M78.7136 11.6446C84.8123 8.12351 92.3262 8.12352 98.4248 11.6446L120.283 24.2643C126.381 27.7854 130.138 34.2926 130.138 41.3347V66.5742C130.138 73.6163 126.381 80.1235 120.283 83.6446L98.4248 96.2643C92.3262 99.7854 84.8123 99.7854 78.7136 96.2643L56.8556 83.6446C50.7569 80.1235 47 73.6163 47 66.5742V41.3347C47 34.2926 50.7569 27.7854 56.8556 24.2643L78.7136 11.6446Z"/>
</mask>
<path d="M78.7136 11.6446C84.8123 8.12351 92.3262 8.12352 98.4248 11.6446L120.283 24.2643C126.381 27.7854 130.138 34.2926 130.138 41.3347V66.5742C130.138 73.6163 126.381 80.1235 120.283 83.6446L98.4248 96.2643C92.3262 99.7854 84.8123 99.7854 78.7136 96.2643L56.8556 83.6446C50.7569 80.1235 47 73.6163 47 66.5742V41.3347C47 34.2926 50.7569 27.7854 56.8556 24.2643L78.7136 11.6446Z" fill="white"/>
<path d="M56.8556 24.2643L56.4494 23.5608L56.8556 24.2643ZM56.8556 83.6446L56.4494 84.3481L56.8556 83.6446ZM78.7136 96.2643L79.1198 95.5608L78.7136 96.2643ZM120.283 83.6446L120.689 84.3481L120.283 83.6446ZM98.4248 11.6446L98.0187 12.3481L98.4248 11.6446ZM98.0187 12.3481L119.877 24.9678L120.689 23.5608L98.831 10.9411L98.0187 12.3481ZM129.326 41.3347V66.5742H130.951V41.3347H129.326ZM119.877 82.9411L98.0187 95.5608L98.831 96.9678L120.689 84.3481L119.877 82.9411ZM79.1198 95.5608L57.2618 82.9411L56.4494 84.3481L78.3074 96.9678L79.1198 95.5608ZM47.8124 66.5742V41.3347H46.1876V66.5742H47.8124ZM57.2618 24.9678L79.1198 12.3481L78.3074 10.9411L56.4494 23.5608L57.2618 24.9678ZM47.8124 41.3347C47.8124 34.5828 51.4145 28.3438 57.2618 24.9678L56.4494 23.5608C50.0994 27.227 46.1876 34.0024 46.1876 41.3347H47.8124ZM57.2618 82.9411C51.4145 79.5651 47.8124 73.3261 47.8124 66.5742H46.1876C46.1876 73.9065 50.0994 80.6819 56.4494 84.3481L57.2618 82.9411ZM98.0187 95.5608C92.1713 98.9367 84.9671 98.9367 79.1198 95.5608L78.3074 96.9678C84.6574 100.634 92.481 100.634 98.831 96.9678L98.0187 95.5608ZM129.326 66.5742C129.326 73.3261 125.724 79.5651 119.877 82.9411L120.689 84.3481C127.039 80.6819 130.951 73.9065 130.951 66.5742H129.326ZM119.877 24.9678C125.724 28.3438 129.326 34.5828 129.326 41.3347H130.951C130.951 34.0024 127.039 27.227 120.689 23.5608L119.877 24.9678ZM98.831 10.9411C92.481 7.27486 84.6574 7.27486 78.3074 10.9411L79.1198 12.3481C84.9671 8.97217 92.1713 8.97217 98.0187 12.3481L98.831 10.9411Z" fill="#A6A6B0" fill-opacity="0.05" mask="url(#path-1-inside-1_134_567)"/>
</g>
<path d="M112.077 53.672C112.077 53.1718 111.912 52.685 111.605 52.2891C111.299 51.8932 110.87 51.6105 110.385 51.4846C110.01 47.6513 108.615 43.9883 106.346 40.8761C106.332 40.8331 106.311 40.7928 106.283 40.7573C104.666 38.5531 102.649 36.6726 100.336 35.2153C100.311 35.1858 100.283 35.16 100.252 35.138C100.077 35.0262 99.8883 34.9284 99.7137 34.8235L99.5532 34.7328H99.5527C98.6757 34.2269 97.765 33.7809 96.8271 33.398L96.6666 33.3353C96.3802 33.2234 96.0933 33.1116 95.7999 33.0138L95.5064 32.916C95.0871 32.776 94.6608 32.6436 94.2274 32.5317L93.5287 32.3572L92.9835 32.2383L92.5641 32.1545L92.3404 32.0909L91.7606 31.9931L91.5158 31.9861H91.411L91.0895 31.951L90.3908 31.8812H89.8526C89.4543 31.8812 89.049 31.8461 88.6503 31.8461C88.1332 31.8461 87.6301 31.8461 87.12 31.9018H86.7358C86.2538 31.9439 85.7643 31.9996 85.2893 32.0694L85.0099 32.125C84.6116 32.1878 84.2204 32.265 83.8287 32.3558L83.3602 32.4606C82.9268 32.5725 82.5005 32.6913 82.0742 32.8242L81.5992 32.9848C81.2777 33.0966 80.9702 33.2085 80.6557 33.3344L80.1872 33.5159C79.782 33.6905 79.3907 33.8725 78.999 34.0611L78.524 34.3059C78.1674 34.4945 77.8253 34.6901 77.4687 34.8928L77.0774 35.1375C76.7419 35.3472 76.4133 35.5639 76.0989 35.7876C76.0151 35.8433 75.9313 35.8924 75.8471 35.9551V35.9907C71.732 38.977 68.7822 43.3003 67.5028 48.2205C67.5028 48.3183 67.4607 48.4161 67.4331 48.514C67.3633 48.8074 67.2931 49.1078 67.2374 49.4153C67.2023 49.5623 67.1817 49.7158 67.1537 49.8627C67.1045 50.1351 67.0629 50.4079 67.0208 50.6873C67.0208 50.8343 67.0208 50.9807 66.9651 51.1277C66.9651 51.4282 66.9094 51.7286 66.8813 52.0291V52.3992C66.8813 52.8186 66.8462 53.2449 66.8462 53.6783V54.8455V55.167V55.4955L66.8883 55.957C66.8883 56.1736 66.9375 56.3973 66.9721 56.614V56.8377L67.0142 57.0965C67.0563 57.3413 67.098 57.5926 67.1471 57.8374V57.8795C67.1892 58.0751 67.2239 58.2777 67.273 58.4804H67.2721C67.2693 58.4986 67.2693 58.5178 67.2721 58.5361C67.3909 59.0462 67.5239 59.5563 67.6774 60.0594V60.1502C67.8243 60.6187 67.9848 61.0726 68.1594 61.5481C68.1594 61.5972 68.1945 61.6529 68.2151 61.7086L68.2155 61.7091C68.7912 63.1819 69.5245 64.5877 70.403 65.9023L70.4451 65.972C71.7362 67.8759 73.3185 69.5643 75.1344 70.9759C75.1663 71.0002 75.2018 71.0189 75.2393 71.032C78.4863 73.5246 82.3729 75.0465 86.4491 75.4209C86.619 76.0696 87.0678 76.6092 87.6752 76.8942C88.2822 77.1787 88.9842 77.1787 89.5911 76.8942C90.1986 76.6092 90.6474 76.0696 90.8172 75.4209C95.6446 74.9403 100.174 72.8647 103.69 69.5224C103.996 69.6773 104.333 69.7587 104.676 69.7601C105.277 69.7582 105.854 69.5182 106.28 69.0928C106.705 68.6673 106.945 68.0908 106.947 67.4889C106.947 67.0289 106.805 66.5801 106.542 66.2029C108.693 63.1412 110.017 59.5762 110.386 55.8527C110.868 55.7254 111.294 55.4427 111.601 55.0487C111.906 54.6546 112.074 54.1707 112.077 53.6719L112.077 53.672ZM104.676 65.2245C104.2 65.2254 103.735 65.3743 103.348 65.6508C102.342 64.9722 101.291 64.3624 100.203 63.827V63.5893C100.2 62.8962 99.8809 62.2429 99.3362 61.8142C99.9895 59.8833 100.414 57.8827 100.601 55.8529C101.333 55.6484 101.915 55.0929 102.153 54.3713H107.66C107.876 55.0096 108.361 55.5207 108.988 55.7687C108.632 59.2104 107.409 62.505 105.43 65.3434C105.188 65.261 104.933 65.2212 104.676 65.2245H104.676ZM85.7509 33.3979C86.1281 33.3422 86.5128 33.3001 86.897 33.272H87.2742C87.7216 33.272 88.1756 33.2229 88.6721 33.2229C89.1682 33.2229 89.4897 33.2229 89.895 33.258H90.0765L90.4748 33.2931L91.1735 33.3628H91.2156L91.9143 33.4606L92.4104 33.5444C92.6851 33.5959 92.958 33.6516 93.228 33.7119L93.5425 33.7887C93.8593 33.8631 94.1738 33.9469 94.486 34.0405H94.5487C94.8842 34.1383 95.2474 34.2501 95.5549 34.369L95.7575 34.4457C96.0163 34.5436 96.2746 34.6414 96.5334 34.7532L96.8971 34.9072L97.4634 35.166L97.9318 35.3897C98.0437 35.4524 98.1555 35.5156 98.2744 35.5713C98.5608 35.7253 98.8407 35.8858 99.1201 36.0533C98.2463 38.8486 97.0726 40.6869 95.7866 41.2668V41.2673C95.028 41.6173 94.1471 41.5836 93.4176 41.1765C90.0982 39.604 89.1125 40.1001 87.8756 41.1138C87.1769 41.7077 86.3172 42.3788 84.0109 42.4485C80.8309 42.5253 78.4198 39.1361 77.1478 36.7455L77.2807 36.6617C77.5952 36.4451 77.9167 36.2494 78.2382 36.0608L78.6716 35.8091C78.965 35.6415 79.2655 35.4875 79.5729 35.334L80.0971 35.0823C80.3695 34.9634 80.6423 34.8375 80.9217 34.7256C81.0822 34.6559 81.2502 34.5927 81.4248 34.53C81.751 34.4041 82.0865 34.2853 82.431 34.1734L82.92 34.0265C83.2205 33.9427 83.5209 33.8589 83.8214 33.7887L84.2898 33.6769C84.7021 33.5931 85.1144 33.5093 85.5267 33.4461L85.7509 33.3979ZM108.989 51.5546C108.357 51.7965 107.867 52.3099 107.654 52.952H102.119C101.884 52.2453 101.317 51.6997 100.602 51.4914C100.51 50.3898 100.347 49.2947 100.113 48.2141C102.418 46.7554 104.354 44.7819 105.767 42.4485C107.561 45.1787 108.666 48.3035 108.989 51.5547V51.5546ZM97.9538 64.4625C97.8382 64.4607 97.7244 64.4368 97.6182 64.3923C97.3239 64.2641 97.1235 63.9842 97.0969 63.6641C97.0702 63.344 97.2214 63.0351 97.4909 62.8597C97.76 62.6846 98.1035 62.6711 98.3857 62.8246C98.6675 62.9785 98.8425 63.2743 98.8411 63.5958C98.842 63.7058 98.8205 63.8153 98.7784 63.9173C98.6408 64.2505 98.3141 64.4667 97.9538 64.4625L97.9538 64.4625ZM89.9726 73.0165C89.7779 72.8779 89.5636 72.7694 89.3366 72.695V63.9729C89.9815 63.7562 90.4944 63.2611 90.734 62.6241C92.4202 62.7542 94.0881 63.0612 95.7102 63.5395C95.7111 64.1592 95.9629 64.7521 96.4089 65.1822C94.8234 68.2068 92.6323 70.874 89.9726 73.0165H89.9726ZM86.4781 61.2197C85.6465 61.2895 84.8148 61.3943 83.9973 61.5412C83.9973 61.4434 84.053 61.3526 84.074 61.2548V61.2544C84.5523 58.8718 85.3296 56.5585 86.3874 54.3706H87.9598V59.6748C87.2288 59.9009 86.663 60.4826 86.4571 61.2193L86.4781 61.2197ZM98.799 48.8629C98.9801 49.7502 99.1154 50.646 99.2043 51.5468C98.5664 51.7869 98.0694 52.2998 97.8486 52.9442H89.3362V51.1621C91.1412 50.1714 93.1681 49.6542 95.2278 49.6598C96.4568 49.6135 97.6669 49.3435 98.7991 48.8629L98.799 48.8629ZM87.9383 52.9724H87.2396C87.4572 52.7136 87.6907 52.4688 87.9383 52.2386V52.9724ZM88.637 60.9466C89.1195 60.9466 89.5108 61.3378 89.5108 61.8203C89.5108 62.3028 89.1195 62.6936 88.637 62.6936C88.155 62.6936 87.7637 62.3028 87.7637 61.8203C87.7637 61.3378 88.155 60.9466 88.637 60.9466ZM97.9529 61.3167L97.9534 61.3172C97.2397 61.321 96.569 61.6598 96.1432 62.2326C94.408 61.7122 92.623 61.3752 90.818 61.226C90.6135 60.4945 90.0579 59.9123 89.3363 59.6746V54.3704H97.8065C98.0232 55.0153 98.5188 55.5282 99.1553 55.7678C98.9924 57.6501 98.6148 59.5071 98.0302 61.3032L97.9529 61.3167ZM99.9658 54.5449C99.4833 54.5449 99.0925 54.1537 99.0925 53.6712C99.0925 53.1891 99.4833 52.7979 99.9658 52.7979C100.448 52.7979 100.84 53.1891 100.84 53.6712C100.84 54.1537 100.448 54.5449 99.9658 54.5449ZM75.1275 61.8901C75.1832 62.477 74.2192 63.4906 71.3747 64.6855C70.215 62.8692 69.3493 60.8807 68.8101 58.7943C68.775 58.6684 68.7404 58.5496 68.7123 58.4242C68.6842 58.2983 68.6075 57.9697 68.5654 57.7255C68.5233 57.4807 68.4535 57.1386 68.4049 56.8377L68.4044 56.8372C68.4077 56.8072 68.4077 56.7768 68.4044 56.7464L68.3623 56.4179V56.3411C68.3201 56.0266 68.2925 55.7192 68.2645 55.4047V55.202V54.9713C68.2645 54.545 68.2223 54.1116 68.2223 53.6853V52.5949V52.2247C68.2223 51.9869 68.2574 51.7562 68.278 51.526C68.2991 51.2953 68.3201 51.2045 68.3407 51.051C68.3618 50.897 68.3899 50.6597 68.4175 50.4711C68.4456 50.2825 68.4802 50.101 68.5153 49.9189C68.5504 49.7373 68.578 49.5974 68.6061 49.4439C68.6342 49.2899 68.6412 49.304 68.6552 49.2412C75.6438 50.8559 78.1526 54.2802 78.7681 55.3144L78.769 55.3139C79.1664 55.8427 79.355 56.4993 79.3002 57.1587C78.9787 58.2351 78.3988 58.3188 77.5181 58.4377C76.1413 58.5982 74.8271 59.0176 75.1276 61.8901L75.1275 61.8901ZM72.1923 65.8246C75.2464 64.5315 76.6649 63.1967 76.5184 61.7502C76.3368 59.9821 76.707 59.933 77.6996 59.8006C78.6922 59.6677 80.048 59.4791 80.6348 57.5365C80.8145 56.4947 80.5623 55.4244 79.9357 54.5732C79.237 53.4201 76.4411 49.6251 68.9706 47.8711C70.1761 43.794 72.6181 40.1918 75.9592 37.5626C77.6014 40.5887 80.2015 43.8524 83.8144 43.8524H83.996C86.7913 43.7687 87.8887 42.8598 88.6993 42.1962C89.5099 41.5321 90.0064 41.1409 92.7597 42.448H92.7602C93.8422 43.0265 95.1296 43.0779 96.2547 42.5875C98.2254 41.6932 99.4764 39.1492 100.231 36.8709C101.98 38.0864 103.531 39.5646 104.83 41.2527C101.999 45.8026 98.8122 48.1089 95.1642 48.2624C85.6873 48.6747 84.2338 54.6219 82.6959 60.9187C82.081 63.4276 79.6348 66.3839 75.6583 69.4873C74.3581 68.4118 73.1943 67.1824 72.1918 65.8253L72.1923 65.8246ZM80.3691 67.1803V67.1808C81.927 69.7922 83.9333 72.1083 86.2958 74.0223C82.8832 73.6283 79.6278 72.3676 76.8399 70.3603C78.0853 69.3794 79.2641 68.317 80.3691 67.1808V67.1803ZM87.323 73.0162C84.9269 71.0979 82.9098 68.7491 81.3757 66.0903C82.168 65.1726 82.8485 64.1641 83.4021 63.0853C84.4373 62.8621 85.4852 62.7058 86.5399 62.6169C86.7805 63.2547 87.2929 63.7518 87.9378 63.9726V72.6946C87.7179 72.7704 87.5106 72.8785 87.3229 73.0161L87.323 73.0162ZM97.659 65.8315H97.9525H97.9529C98.596 65.8306 99.2082 65.5563 99.6373 65.0771C100.636 65.5704 101.6 66.131 102.523 66.7544C102.449 66.98 102.409 67.2154 102.405 67.4531C102.406 67.8402 102.508 68.2206 102.698 68.5571C99.4843 71.6014 95.3692 73.5193 90.971 74.0223C93.7298 71.7708 96.0048 68.9848 97.6591 65.8315L97.659 65.8315ZM109.806 54.5449C109.324 54.5449 108.932 54.1537 108.932 53.6712C108.932 53.1891 109.324 52.7979 109.806 52.7979C110.288 52.7979 110.68 53.1891 110.68 53.6712C110.68 54.1537 110.288 54.5449 109.806 54.5449ZM88.6364 75.7135C88.1544 75.7135 87.7631 75.3223 87.7631 74.8402C87.7631 74.3577 88.1544 73.9665 88.6364 73.9665C89.1189 73.9665 89.5102 74.3577 89.5102 74.8402C89.5102 75.3223 89.1189 75.7135 88.6364 75.7135ZM104.676 68.3683C104.323 68.3683 104.005 68.1554 103.869 67.8292C103.734 67.5025 103.809 67.1272 104.059 66.8773C104.308 66.6274 104.684 66.5525 105.011 66.6878C105.337 66.823 105.55 67.1417 105.55 67.495C105.546 67.9757 105.157 68.3646 104.676 68.3683L104.676 68.3683Z" fill="url(#paint0_linear_134_567)"/>
<defs>
<filter id="filter0_ddddd_134_567" x="0" y="0.00378418" width="177.138" height="262.901" filterUnits="userSpaceOnUse" color-interpolation-filters="sRGB">
<feFlood flood-opacity="0" result="BackgroundImageFix"/>
<feColorMatrix in="SourceAlpha" type="matrix" values="0 0 0 0 0 0 0 0 0 0 0 0 0 0 0 0 0 0 127 0" result="hardAlpha"/>
<feOffset/>
<feColorMatrix type="matrix" values="0 0 0 0 0.0235294 0 0 0 0 0.227451 0 0 0 0 0.294118 0 0 0 0.05 0"/>
<feBlend mode="normal" in2="BackgroundImageFix" result="effect1_dropShadow_134_567"/>
<feColorMatrix in="SourceAlpha" type="matrix" values="0 0 0 0 0 0 0 0 0 0 0 0 0 0 0 0 0 0 127 0" result="hardAlpha"/>
<feOffset dy="7"/>
<feGaussianBlur stdDeviation="8"/>
<feColorMatrix type="matrix" values="0 0 0 0 0.0235294 0 0 0 0 0.227451 0 0 0 0 0.294118 0 0 0 0.05 0"/>
<feBlend mode="normal" in2="effect1_dropShadow_134_567" result="effect2_dropShadow_134_567"/>
<feColorMatrix in="SourceAlpha" type="matrix" values="0 0 0 0 0 0 0 0 0 0 0 0 0 0 0 0 0 0 127 0" result="hardAlpha"/>
<feOffset dy="29"/>
<feGaussianBlur stdDeviation="14.5"/>
<feColorMatrix type="matrix" values="0 0 0 0 0.0235294 0 0 0 0 0.227451 0 0 0 0 0.294118 0 0 0 0.04 0"/>
<feBlend mode="normal" in2="effect2_dropShadow_134_567" result="effect3_dropShadow_134_567"/>
<feColorMatrix in="SourceAlpha" type="matrix" values="0 0 0 0 0 0 0 0 0 0 0 0 0 0 0 0 0 0 127 0" result="hardAlpha"/>
<feOffset dy="66"/>
<feGaussianBlur stdDeviation="19.5"/>
<feColorMatrix type="matrix" values="0 0 0 0 0.0235294 0 0 0 0 0.227451 0 0 0 0 0.294118 0 0 0 0.03 0"/>
<feBlend mode="normal" in2="effect3_dropShadow_134_567" result="effect4_dropShadow_134_567"/>
<feColorMatrix in="SourceAlpha" type="matrix" values="0 0 0 0 0 0 0 0 0 0 0 0 0 0 0 0 0 0 127 0" result="hardAlpha"/>
<feOffset dy="117"/>
<feGaussianBlur stdDeviation="23.5"/>
<feColorMatrix type="matrix" values="0 0 0 0 0.0235294 0 0 0 0 0.227451 0 0 0 0 0.294118 0 0 0 0.01 0"/>
<feBlend mode="normal" in2="effect4_dropShadow_134_567" result="effect5_dropShadow_134_567"/>
<feBlend mode="normal" in="SourceGraphic" in2="effect5_dropShadow_134_567" result="shape"/>
</filter>
<linearGradient id="paint0_linear_134_567" x1="64.5911" y1="18.6958" x2="118.136" y2="20.3153" gradientUnits="userSpaceOnUse">
<stop stop-color="#7CCBF2"/>
<stop offset="1" stop-color="#0F9EE4"/>
</linearGradient>
</defs>
</svg>
