<svg width="140" height="146" viewBox="0 0 140 146" fill="none" xmlns="http://www.w3.org/2000/svg">
<g filter="url(#filter0_d_610_334)">
<path d="M59.5552 25.0303C66.0185 21.2987 73.9815 21.2987 80.4448 25.0303L101.124 36.9697C107.588 40.7013 111.569 47.5975 111.569 55.0606V78.9394C111.569 86.4025 107.588 93.2987 101.124 97.0303L80.4448 108.97C73.9815 112.701 66.0185 112.701 59.5552 108.97L38.8756 97.0303C32.4123 93.2987 28.4308 86.4025 28.4308 78.9394V55.0606C28.4308 47.5975 32.4123 40.7013 38.8756 36.9697L59.5552 25.0303Z" fill="white"/>
</g>
<path d="M92.2306 65.8259C92.2311 65.3256 92.0654 64.8389 91.7589 64.443C91.4528 64.0471 91.0236 63.7644 90.5392 63.6385C90.1634 59.8052 88.7689 56.1422 86.5 53.03C86.4859 52.9869 86.4644 52.9467 86.4368 52.9111C84.8199 50.7069 82.8023 48.8265 80.4895 47.3691C80.4647 47.3396 80.4366 47.3139 80.4057 47.2919C80.2311 47.1801 80.0421 47.0822 79.8675 46.9774L79.707 46.8866H79.7065C78.8295 46.3807 77.9188 45.9347 76.9809 45.5519L76.8204 45.4892C76.534 45.3773 76.2471 45.2654 75.9537 45.1676L75.6602 45.0698C75.2409 44.9299 74.8146 44.7975 74.3812 44.6856L73.6825 44.5111L73.1373 44.3922L72.7179 44.3084L72.4942 44.2448L71.9144 44.147L71.6696 44.1399H71.5648L71.2433 44.1048L70.5446 44.0351H70.0064C69.6081 44.0351 69.2029 44 68.8041 44C68.287 44 67.7839 44 67.2738 44.0557H66.8896C66.4076 44.0978 65.9181 44.1535 65.4431 44.2232L65.1637 44.2789C64.7654 44.3416 64.3742 44.4189 63.9825 44.5096L63.514 44.6145C63.0806 44.7263 62.6543 44.8452 62.228 44.9781L61.753 45.1386C61.4315 45.2505 61.124 45.3623 60.8095 45.4882L60.3411 45.6698C59.9358 45.8444 59.5445 46.0264 59.1528 46.215L58.6778 46.4598C58.3212 46.6484 57.9791 46.844 57.6225 47.0466L57.2312 47.2914C56.8957 47.5011 56.5672 47.7177 56.2527 47.9415C56.1689 47.9971 56.0851 48.0463 56.0009 48.109V48.1446C51.8858 51.1308 48.936 55.4542 47.6566 60.3744C47.6566 60.4722 47.6145 60.57 47.5869 60.6678C47.5171 60.9613 47.4469 61.2617 47.3912 61.5692C47.3561 61.7161 47.3356 61.8696 47.3075 62.0166C47.2583 62.289 47.2167 62.5618 47.1746 62.8412C47.1746 62.9881 47.1746 63.1346 47.1189 63.2816C47.1189 63.582 47.0632 63.8825 47.0351 64.1829V64.5531C47.0351 64.9724 47 65.3988 47 65.8322V66.9993V67.3208V67.6494L47.0421 68.1108C47.0421 68.3275 47.0913 68.5512 47.1259 68.7679V68.9916L47.168 69.2504C47.2101 69.4952 47.2518 69.7465 47.3009 69.9912V70.0334C47.343 70.229 47.3777 70.4316 47.4268 70.6343H47.4259C47.4231 70.6525 47.4231 70.6717 47.4259 70.6899C47.5447 71.2001 47.6777 71.7102 47.8312 72.2133V72.3041C47.9781 72.7725 48.1386 73.2265 48.3132 73.702C48.3132 73.7511 48.3483 73.8068 48.3689 73.8625L48.3693 73.863C48.945 75.3357 49.6784 76.7416 50.5568 78.0562L50.5989 78.1259C51.89 80.0298 53.4723 81.7182 55.2882 83.1298C55.3201 83.1541 55.3556 83.1728 55.3931 83.1859C58.6401 85.6785 62.5267 87.2004 66.6029 87.5748C66.7728 88.2234 67.2216 88.763 67.829 89.048C68.436 89.3326 69.138 89.3326 69.7449 89.048C70.3524 88.763 70.8012 88.2234 70.971 87.5748C75.7984 87.0942 80.3277 85.0186 83.8442 81.6762C84.1498 81.8311 84.4872 81.9126 84.8294 81.914C85.4312 81.9121 86.0082 81.672 86.4337 81.2466C86.8591 80.8212 87.0992 80.2446 87.101 79.6428C87.1006 79.1827 86.9588 78.7339 86.6958 78.3568C88.8471 75.2951 90.1711 71.73 90.5394 68.0066C91.0214 67.8793 91.4482 67.5966 91.7543 67.2026C92.0599 66.8085 92.2275 66.3246 92.2308 65.8257L92.2306 65.8259ZM84.8293 77.3784C84.3534 77.3793 83.8891 77.5281 83.5016 77.8047C82.4959 77.1261 81.4453 76.5163 80.3567 75.9809V75.7432C80.3539 75.05 80.0347 74.3968 79.49 73.9681C80.1433 72.0372 80.5678 70.0365 80.755 68.0068C81.487 67.8023 82.0692 67.2467 82.3069 66.5251H87.8138C88.0295 67.1635 88.5153 67.6745 89.1415 67.9225C88.7863 71.3642 87.5624 74.6589 85.5843 77.4972C85.3414 77.4149 85.0864 77.3751 84.8294 77.3784H84.8293ZM65.9047 45.5518C66.2819 45.4961 66.6666 45.454 67.0508 45.4259H67.428C67.8754 45.4259 68.3294 45.3768 68.8259 45.3768C69.322 45.3768 69.6435 45.3768 70.0488 45.4118H70.2304L70.6286 45.4469L71.3273 45.5167H71.3694L72.0682 45.6145L72.5642 45.6983C72.8389 45.7497 73.1118 45.8054 73.3818 45.8658L73.6963 45.9426C74.0131 46.017 74.3276 46.1007 74.6398 46.1943H74.7025C75.038 46.2921 75.4012 46.404 75.7087 46.5229L75.9113 46.5996C76.1701 46.6974 76.4284 46.7952 76.6872 46.9071L77.0509 47.0611L77.6172 47.3199L78.0856 47.5436C78.1975 47.6063 78.3093 47.6695 78.4282 47.7252C78.7146 47.8791 78.9945 48.0396 79.2739 48.2072C78.4001 51.0025 77.2264 52.8408 75.9404 53.4207V53.4211C75.1818 53.7712 74.3009 53.7375 73.5714 53.3304C70.252 51.7579 69.2663 52.254 68.0294 53.2676C67.3307 53.8615 66.471 54.5327 64.1647 54.6024C60.9847 54.6792 58.5736 51.29 57.3016 48.8994L57.4345 48.8156C57.749 48.5989 58.0705 48.4033 58.392 48.2147L58.8254 47.9629C59.1188 47.7954 59.4193 47.6414 59.7268 47.4879L60.2509 47.2361C60.5233 47.1173 60.7961 46.9914 61.0755 46.8795C61.236 46.8098 61.404 46.7466 61.5786 46.6839C61.9048 46.558 62.2403 46.4391 62.5848 46.3273L63.0738 46.1803C63.3743 46.0966 63.6747 46.0128 63.9752 45.9426L64.4437 45.8307C64.856 45.747 65.2683 45.6632 65.6805 45.6L65.9047 45.5518ZM89.1424 63.7084C88.5106 63.9504 88.0206 64.4638 87.8076 65.1059H82.2726C82.0377 64.3992 81.471 63.8535 80.7559 63.6453C80.6637 62.5437 80.5004 61.4485 80.2668 60.368C82.5722 58.9092 84.5078 56.9358 85.9206 54.6023C87.7145 57.3326 88.8198 60.4574 89.1424 63.7086V63.7084ZM78.1076 76.6164C77.992 76.6145 77.8783 76.5907 77.772 76.5462C77.4777 76.418 77.2774 76.1381 77.2507 75.818C77.224 75.4979 77.3752 75.189 77.6447 75.0135C77.9138 74.8385 78.2573 74.8249 78.5395 74.9784C78.8213 75.1324 78.9963 75.4282 78.9949 75.7497C78.9958 75.8597 78.9743 75.9692 78.9322 76.0712C78.7946 76.4044 78.4679 76.6206 78.1076 76.6164L78.1076 76.6164ZM70.1264 85.1703C69.9317 85.0318 69.7174 84.9232 69.4904 84.8488V76.1268C70.1353 75.9101 70.6483 75.415 70.8879 74.778C72.574 74.9081 74.242 75.2151 75.864 75.6934C75.8649 76.313 76.1167 76.906 76.5627 77.3361C74.9772 80.3607 72.7861 83.0278 70.1264 85.1703H70.1264ZM66.6319 73.3736C65.8003 73.4433 64.9686 73.5482 64.1511 73.6951C64.1511 73.5973 64.2068 73.5065 64.2278 73.4087V73.4082C64.7061 71.0256 65.4834 68.7124 66.5412 66.5245H68.1136V71.8287C67.3826 72.0547 66.8169 72.6365 66.6109 73.3731L66.6319 73.3736ZM78.9528 61.0168C79.1339 61.9041 79.2692 62.7998 79.3581 63.7007C78.7202 63.9407 78.2232 64.4537 78.0024 65.0981H69.49V63.316C71.295 62.3252 73.3219 61.8081 75.3816 61.8137C76.6106 61.7674 77.8207 61.4973 78.9529 61.0167L78.9528 61.0168ZM68.0921 65.1262H67.3934C67.611 64.8674 67.8446 64.6227 68.0921 64.3924V65.1262ZM68.7908 73.1004C69.2733 73.1004 69.6646 73.4917 69.6646 73.9742C69.6646 74.4567 69.2733 74.8475 68.7908 74.8475C68.3088 74.8475 67.9175 74.4567 67.9175 73.9742C67.9175 73.4917 68.3088 73.1004 68.7908 73.1004ZM78.1067 73.4706L78.1072 73.4711C77.3935 73.4748 76.7228 73.8137 76.2971 74.3865C74.5618 73.8661 72.7768 73.5291 70.9718 73.3798C70.7673 72.6483 70.2117 72.0661 69.4901 71.8285V66.5243H77.9603C78.177 67.1692 78.6726 67.6821 79.3091 67.9217C79.1462 69.804 78.7686 71.661 78.1841 73.4571L78.1067 73.4706ZM80.1196 66.6988C79.6371 66.6988 79.2463 66.3076 79.2463 65.825C79.2463 65.343 79.6371 64.9518 80.1196 64.9518C80.6021 64.9518 80.9934 65.343 80.9934 65.825C80.9934 66.3075 80.6021 66.6988 80.1196 66.6988ZM55.2813 74.044C55.337 74.6309 54.373 75.6445 51.5285 76.8393C50.3688 75.0231 49.5031 73.0345 48.9639 70.9482C48.9288 70.8223 48.8942 70.7034 48.8661 70.578C48.8381 70.4521 48.7613 70.1236 48.7192 69.8793C48.6771 69.6346 48.6073 69.2925 48.5587 68.9915L48.5582 68.9911C48.5615 68.9611 48.5615 68.9307 48.5582 68.9003L48.5161 68.5717V68.495C48.474 68.1805 48.4463 67.873 48.4183 67.5585V67.3559V67.1252C48.4183 66.6988 48.3761 66.2655 48.3761 65.8392V64.7487V64.3786C48.3761 64.1408 48.4112 63.9101 48.4318 63.6798C48.4529 63.4491 48.474 63.3583 48.4945 63.2048C48.5156 63.0509 48.5437 62.8136 48.5713 62.625C48.5994 62.4364 48.634 62.2548 48.6691 62.0728C48.7042 61.8912 48.7318 61.7513 48.7599 61.5978C48.788 61.4438 48.795 61.4578 48.809 61.3951C55.7976 63.0097 58.3065 66.4341 58.9219 67.4682L58.9228 67.4678C59.3202 67.9966 59.5088 68.6532 59.454 69.3125C59.1325 70.3889 58.5527 70.4727 57.6719 70.5916C56.2951 70.7521 54.9809 71.1714 55.2814 74.0439L55.2813 74.044ZM52.3461 77.9785C55.4002 76.6854 56.8187 75.3506 56.6722 73.9041C56.4906 72.136 56.8608 72.0869 57.8534 71.9545C58.846 71.8216 60.2018 71.633 60.7886 69.6904C60.9684 68.6486 60.7161 67.5783 60.0895 66.7271C59.3908 65.5739 56.595 61.7789 49.1244 60.025C50.3299 55.9478 52.7719 52.3456 56.113 49.7165C57.7552 52.7425 60.3553 56.0063 63.9682 56.0063H64.1498C66.9451 55.9225 68.0425 55.0137 68.8531 54.3501C69.6637 53.686 70.1602 53.2948 72.9135 54.6019H72.914C73.996 55.1803 75.2834 55.2318 76.4085 54.7414C78.3792 53.847 79.6302 51.303 80.385 49.0248C82.1339 50.2402 83.6848 51.7185 84.9835 53.4066C82.1531 57.9565 78.966 60.2628 75.318 60.4162C65.8411 60.8285 64.3876 66.7758 62.8497 73.0726C62.2348 75.5814 59.7886 78.5378 55.8121 81.6411C54.5119 80.5657 53.3481 79.3363 52.3456 77.9791L52.3461 77.9785ZM60.5229 79.3342V79.3346C62.0808 81.9461 64.0871 84.2622 66.4496 86.1762C63.037 85.7821 59.7816 84.5214 56.9937 82.5142C58.2391 81.5333 59.4179 80.4709 60.5229 79.3346V79.3342ZM67.4768 85.1701C65.0807 83.2517 63.0636 80.9029 61.5295 78.2442C62.3218 77.3264 63.0023 76.3179 63.5559 75.2392C64.5911 75.016 65.639 74.8597 66.6937 74.7707C66.9343 75.4086 67.4467 75.9056 68.0916 76.1265V84.8485C67.8717 84.9243 67.6644 85.0324 67.4767 85.17L67.4768 85.1701ZM77.8129 77.9854H78.1063H78.1068C78.7498 77.9845 79.362 77.7102 79.7911 77.231C80.7898 77.7243 81.7539 78.2849 82.6772 78.9083C82.6028 79.1339 82.5631 79.3693 82.5584 79.607C82.5602 79.994 82.6613 80.3745 82.8518 80.711C79.6381 83.7553 75.523 85.6731 71.1248 86.1762C73.8836 83.9247 76.1586 81.1387 77.8129 77.9854L77.8129 77.9854ZM89.96 66.6988C89.4775 66.6988 89.0863 66.3076 89.0863 65.825C89.0863 65.343 89.4775 64.9518 89.96 64.9518C90.4421 64.9518 90.8333 65.343 90.8333 65.825C90.8333 66.3075 90.4421 66.6988 89.96 66.6988ZM68.7902 87.8674C68.3082 87.8674 67.9169 87.4762 67.9169 86.9941C67.9169 86.5116 68.3082 86.1204 68.7902 86.1204C69.2727 86.1204 69.664 86.5116 69.664 86.9941C69.664 87.4761 69.2727 87.8674 68.7902 87.8674ZM84.8299 80.5222C84.4766 80.5222 84.1583 80.3092 84.0231 79.9831C83.8878 79.6564 83.9627 79.2811 84.2126 79.0312C84.4621 78.7812 84.8379 78.7064 85.1645 78.8416C85.4907 78.9769 85.7037 79.2956 85.7037 79.6489C85.6999 80.1295 85.311 80.5184 84.8299 80.5222L84.8299 80.5222Z" fill="url(#paint0_linear_610_334)"/>
<defs>
<filter id="filter0_d_610_334" x="0.430779" y="0.231689" width="139.138" height="145.537" filterUnits="userSpaceOnUse" color-interpolation-filters="sRGB">
<feFlood flood-opacity="0" result="BackgroundImageFix"/>
<feColorMatrix in="SourceAlpha" type="matrix" values="0 0 0 0 0 0 0 0 0 0 0 0 0 0 0 0 0 0 127 0" result="hardAlpha"/>
<feOffset dy="6"/>
<feGaussianBlur stdDeviation="14"/>
<feComposite in2="hardAlpha" operator="out"/>
<feColorMatrix type="matrix" values="0 0 0 0 0.0235294 0 0 0 0 0.227451 0 0 0 0 0.294118 0 0 0 0.15 0"/>
<feBlend mode="normal" in2="BackgroundImageFix" result="effect1_dropShadow_610_334"/>
<feBlend mode="normal" in="SourceGraphic" in2="effect1_dropShadow_610_334" result="shape"/>
</filter>
<linearGradient id="paint0_linear_610_334" x1="44.7449" y1="30.8497" x2="98.2896" y2="32.4692" gradientUnits="userSpaceOnUse">
<stop stop-color="#7CCBF2"/>
<stop offset="1" stop-color="#0F9EE4"/>
</linearGradient>
</defs>
</svg>
