<svg width="140" height="146" viewBox="0 0 140 146" fill="none" xmlns="http://www.w3.org/2000/svg">
<g filter="url(#filter0_d_610_326)">
<path d="M59.5552 25.0303C66.0185 21.2987 73.9815 21.2987 80.4448 25.0303L101.124 36.9697C107.588 40.7013 111.569 47.5975 111.569 55.0606V78.9394C111.569 86.4025 107.588 93.2987 101.124 97.0303L80.4448 108.97C73.9815 112.701 66.0185 112.701 59.5552 108.97L38.8756 97.0303C32.4123 93.2987 28.4308 86.4025 28.4308 78.9394V55.0606C28.4308 47.5975 32.4123 40.7013 38.8756 36.9697L59.5552 25.0303Z" fill="white"/>
</g>
<path d="M93 53H57C56.4478 53 56 53.4478 56 54V90C56 90.2652 56.1054 90.5196 56.2929 90.7071C56.4804 90.8946 56.7348 91 57 91H93C93.2652 91 93.5196 90.8946 93.7071 90.7071C93.8946 90.5196 94 90.2652 94 90V54C94 53.7348 93.8946 53.4804 93.7071 53.2929C93.5196 53.1054 93.2652 53 93 53ZM64.7051 85.7051C65.3002 85.115 65.86 84.64 66.4051 84.2051C68.1002 82.7551 69.5703 81.5002 70.0002 78.1253C70.1297 76.7543 70.1516 75.3749 70.0654 74.0002H70.0904C70.6426 73.9507 71.0498 73.4627 71.0002 72.91C70.9507 72.3578 70.4627 71.9507 69.91 72.0002C69.6556 72.0132 69.4002 72.0132 69.1453 72.0002C69.0739 71.9926 69.0016 71.9926 68.9301 72.0002C67.865 71.9502 66.1704 71.7051 65.0753 70.7002C64.3289 69.9868 63.9355 68.9806 64.0003 67.9503C63.9815 66.9686 64.4864 66.0507 65.3253 65.5405C66.1057 65.0007 67.082 64.8275 68.0003 65.0655V65.3556V68.0003C68.0003 68.5526 68.4481 69.0003 69.0003 69.0003C69.5525 69.0003 70.0003 68.5526 70.0003 68.0003V65.3552C70.0016 64.2007 70.461 63.0936 71.2775 62.2775C72.0936 61.461 73.2007 61.0016 74.3553 61.0002H77.5004C78.6937 61.0002 79.8383 61.4743 80.6826 62.318C81.5263 63.1622 82.0004 64.3068 82.0004 65.5002V69.4203C81.8209 69.306 81.6357 69.2007 81.4455 69.1052C80.9544 68.8797 80.3732 69.0851 80.1326 69.5685C79.8919 70.0525 80.0794 70.64 80.5553 70.8953C82.1624 71.7672 83.354 73.2449 83.8656 75.0002H79.0005C78.4482 75.0002 78.0005 75.448 78.0005 76.0002C78.0005 76.5524 78.4482 77.0002 79.0005 77.0002H83.7853C83.2152 78.2703 81.5853 79.0002 80.0005 79.0002C78.2447 79.0538 76.5335 78.4448 75.2054 77.2953C74.8085 76.9556 74.2174 76.9783 73.8478 77.3475C73.4786 77.7172 73.4558 78.3082 73.7956 78.7051C74.4366 79.3203 75.1839 79.8149 76.0005 80.1654C75.9719 80.8846 76.1514 81.597 76.5165 82.2176C76.8817 82.8381 77.4179 83.3408 78.0603 83.6654C78.3201 83.8198 78.5648 83.9988 78.7907 84.2002C79.3777 84.7328 80.0255 85.1939 80.7206 85.5751C82.1858 86.4653 83.6907 87.385 83.9506 88.9953H64.0008C63.9557 88.0002 64.091 86.3252 64.7058 85.7051L64.7051 85.7051ZM92 89.0002H86C85.75 86.2801 83.5 84.8953 81.7848 83.8703C81.2321 83.564 80.7116 83.2042 80.2299 82.7953C79.8983 82.4873 79.5308 82.2203 79.1349 82.0002C78.5849 81.6453 78.2349 81.4203 78.0849 80.8301C78.7165 80.9476 79.3577 81.0047 80.0001 81.0002C82.95 81.0002 86.0001 79.1302 86.0001 76.0002C85.93 74.1958 85.221 72.4752 84.0001 71.1454V65.5002C84.0001 63.7761 83.3152 62.123 82.0961 60.9042C80.8773 59.685 79.2242 59.0002 77.5001 59.0002H74.3549C73.0353 59.0029 71.7486 59.4154 70.6737 60.1815C69.5987 60.9476 68.7884 62.0284 68.3549 63.2752H68.3098C67.225 62.7752 65.5501 63.0404 64.2398 63.885H64.2402C62.8348 64.7565 61.9857 66.297 62 67.9502C61.9344 69.5462 62.5656 71.0917 63.7299 72.185C64.9585 73.2015 66.4705 73.8145 68.0599 73.9403C68.142 75.2511 68.1255 76.5666 68.0099 77.8752C67.68 80.4904 66.7148 81.3051 65.1148 82.6551C64.5648 83.1149 63.9447 83.6551 63.2947 84.2953C62.0598 85.5253 61.9495 87.8855 61.9746 89.0002H58V55.0002H92L92 89.0002Z" fill="url(#paint0_linear_610_326)"/>
<path d="M53 79H48V45H82V50C82 50.5522 82.4478 51 83 51C83.5522 51 84 50.5522 84 50V44C84 43.7348 83.8946 43.4804 83.7071 43.2929C83.5196 43.1054 83.2652 43 83 43H47C46.4478 43 46 43.4478 46 44V80C46 80.2652 46.1054 80.5196 46.2929 80.7071C46.4804 80.8946 46.7348 81 47 81H53C53.5522 81 54 80.5522 54 80C54 79.4478 53.5522 79 53 79Z" fill="url(#paint1_linear_610_326)"/>
<path d="M76 66C76 66.5522 75.5522 67 75 67C74.4478 67 74 66.5522 74 66C74 65.4478 74.4478 65 75 65C75.5522 65 76 65.4478 76 66Z" fill="url(#paint2_linear_610_326)"/>
<path d="M80 66C80 66.5522 79.5522 67 79 67C78.4478 67 78 66.5522 78 66C78 65.4478 78.4478 65 79 65C79.5522 65 80 65.4478 80 66Z" fill="url(#paint3_linear_610_326)"/>
<defs>
<filter id="filter0_d_610_326" x="0.430786" y="0.231628" width="139.138" height="145.537" filterUnits="userSpaceOnUse" color-interpolation-filters="sRGB">
<feFlood flood-opacity="0" result="BackgroundImageFix"/>
<feColorMatrix in="SourceAlpha" type="matrix" values="0 0 0 0 0 0 0 0 0 0 0 0 0 0 0 0 0 0 127 0" result="hardAlpha"/>
<feOffset dy="6"/>
<feGaussianBlur stdDeviation="14"/>
<feComposite in2="hardAlpha" operator="out"/>
<feColorMatrix type="matrix" values="0 0 0 0 0.0235294 0 0 0 0 0.227451 0 0 0 0 0.294118 0 0 0 0.15 0"/>
<feBlend mode="normal" in2="BackgroundImageFix" result="effect1_dropShadow_610_326"/>
<feBlend mode="normal" in="SourceGraphic" in2="effect1_dropShadow_610_326" result="shape"/>
</filter>
<linearGradient id="paint0_linear_610_326" x1="54.1054" y1="41.9594" x2="99.0902" y2="43.3209" gradientUnits="userSpaceOnUse">
<stop stop-color="#7CCBF2"/>
<stop offset="1" stop-color="#0F9EE4"/>
</linearGradient>
<linearGradient id="paint1_linear_610_326" x1="44.1054" y1="31.9594" x2="89.0902" y2="33.3209" gradientUnits="userSpaceOnUse">
<stop stop-color="#7CCBF2"/>
<stop offset="1" stop-color="#0F9EE4"/>
</linearGradient>
<linearGradient id="paint2_linear_610_326" x1="73.9003" y1="64.4189" x2="76.2679" y2="64.4906" gradientUnits="userSpaceOnUse">
<stop stop-color="#7CCBF2"/>
<stop offset="1" stop-color="#0F9EE4"/>
</linearGradient>
<linearGradient id="paint3_linear_610_326" x1="77.9003" y1="64.4189" x2="80.2679" y2="64.4906" gradientUnits="userSpaceOnUse">
<stop stop-color="#7CCBF2"/>
<stop offset="1" stop-color="#0F9EE4"/>
</linearGradient>
</defs>
</svg>
