<svg width="178" height="264" viewBox="0 0 178 264" fill="none" xmlns="http://www.w3.org/2000/svg">
<g filter="url(#filter0_ddddd_134_578)">
<mask id="path-1-inside-1_134_578" fill="white">
<path d="M79.641 11.4115C85.2102 8.19615 92.0718 8.19615 97.641 11.4115L121.21 25.0192C126.779 28.2346 130.21 34.1769 130.21 40.6077V67.8231C130.21 74.2539 126.779 80.1962 121.21 83.4115L97.641 97.0192C92.0718 100.235 85.2102 100.235 79.641 97.0192L56.0718 83.4115C50.5026 80.1962 47.0718 74.2539 47.0718 67.8231V40.6077C47.0718 34.1769 50.5026 28.2346 56.0718 25.0192L79.641 11.4115Z"/>
</mask>
<path d="M79.641 11.4115C85.2102 8.19615 92.0718 8.19615 97.641 11.4115L121.21 25.0192C126.779 28.2346 130.21 34.1769 130.21 40.6077V67.8231C130.21 74.2539 126.779 80.1962 121.21 83.4115L97.641 97.0192C92.0718 100.235 85.2102 100.235 79.641 97.0192L56.0718 83.4115C50.5026 80.1962 47.0718 74.2539 47.0718 67.8231V40.6077C47.0718 34.1769 50.5026 28.2346 56.0718 25.0192L79.641 11.4115Z" fill="white"/>
<path d="M56.0718 83.4115L56.478 82.708L56.0718 83.4115ZM97.641 97.0192L97.2348 96.3157L97.641 97.0192ZM79.641 97.0192L79.2348 97.7228L79.641 97.0192ZM121.21 83.4115L121.616 84.1151L121.21 83.4115ZM79.641 11.4115L79.2348 10.708L79.641 11.4115ZM97.2348 12.1151L120.804 25.7228L121.616 24.3157L98.0472 10.708L97.2348 12.1151ZM129.398 40.6077V67.8231H131.023V40.6077H129.398ZM120.804 82.708L97.2348 96.3157L98.0472 97.7228L121.616 84.1151L120.804 82.708ZM80.0472 96.3157L56.478 82.708L55.6656 84.1151L79.2348 97.7228L80.0472 96.3157ZM47.8842 67.8231V40.6077H46.2594V67.8231H47.8842ZM56.478 25.7228L80.0472 12.1151L79.2348 10.708L55.6656 24.3157L56.478 25.7228ZM47.8842 40.6077C47.8842 34.4671 51.1601 28.793 56.478 25.7228L55.6656 24.3157C49.845 27.6762 46.2594 33.8867 46.2594 40.6077H47.8842ZM56.478 82.708C51.1601 79.6377 47.8842 73.9636 47.8842 67.8231H46.2594C46.2594 74.5441 49.845 80.7546 55.6656 84.1151L56.478 82.708ZM97.2348 96.3157C91.9169 99.386 85.3651 99.386 80.0472 96.3157L79.2348 97.7228C85.0554 101.083 92.2266 101.083 98.0472 97.7228L97.2348 96.3157ZM129.398 67.8231C129.398 73.9636 126.122 79.6377 120.804 82.708L121.616 84.1151C127.437 80.7546 131.023 74.5441 131.023 67.8231H129.398ZM120.804 25.7228C126.122 28.793 129.398 34.4671 129.398 40.6077H131.023C131.023 33.8867 127.437 27.6762 121.616 24.3157L120.804 25.7228ZM98.0472 10.708C92.2266 7.3475 85.0554 7.3475 79.2348 10.708L80.0472 12.1151C85.3651 9.04481 91.9169 9.04481 97.2348 12.1151L98.0472 10.708Z" fill="#A6A6B0" fill-opacity="0.05" mask="url(#path-1-inside-1_134_578)"/>
</g>
<path d="M112 40H76C75.4478 40 75 40.4478 75 41V77C75 77.2652 75.1054 77.5196 75.2929 77.7071C75.4804 77.8946 75.7348 78 76 78H112C112.265 78 112.52 77.8946 112.707 77.7071C112.895 77.5196 113 77.2652 113 77V41C113 40.7348 112.895 40.4804 112.707 40.2929C112.52 40.1054 112.265 40 112 40ZM83.7051 72.7051C84.3002 72.115 84.86 71.64 85.4051 71.2051C87.1002 69.7551 88.5703 68.5002 89.0002 65.1253C89.1297 63.7543 89.1516 62.3749 89.0654 61.0002H89.0904C89.6426 60.9507 90.0498 60.4627 90.0002 59.91C89.9507 59.3578 89.4627 58.9507 88.91 59.0002C88.6556 59.0132 88.4002 59.0132 88.1453 59.0002C88.0739 58.9926 88.0016 58.9926 87.9301 59.0002C86.865 58.9502 85.1704 58.7051 84.0753 57.7002C83.3289 56.9868 82.9355 55.9806 83.0003 54.9503C82.9815 53.9686 83.4864 53.0507 84.3253 52.5405C85.1057 52.0007 86.082 51.8275 87.0003 52.0655V52.3556V55.0003C87.0003 55.5526 87.4481 56.0003 88.0003 56.0003C88.5525 56.0003 89.0003 55.5526 89.0003 55.0003V52.3552C89.0016 51.2007 89.461 50.0936 90.2775 49.2775C91.0936 48.461 92.2007 48.0016 93.3553 48.0002H96.5004C97.6937 48.0002 98.8383 48.4743 99.6826 49.318C100.526 50.1622 101 51.3068 101 52.5002V56.4203C100.821 56.306 100.636 56.2007 100.445 56.1052C99.9544 55.8797 99.3732 56.0851 99.1326 56.5685C98.8919 57.0525 99.0794 57.64 99.5553 57.8953C101.162 58.7672 102.354 60.2449 102.866 62.0002H98.0005C97.4482 62.0002 97.0005 62.448 97.0005 63.0002C97.0005 63.5524 97.4482 64.0002 98.0005 64.0002H102.785C102.215 65.2703 100.585 66.0002 99.0005 66.0002C97.2447 66.0538 95.5335 65.4448 94.2054 64.2953C93.8085 63.9556 93.2174 63.9783 92.8478 64.3475C92.4786 64.7172 92.4558 65.3082 92.7956 65.7051C93.4366 66.3203 94.1839 66.8149 95.0005 67.1654C94.9719 67.8846 95.1514 68.597 95.5165 69.2176C95.8817 69.8381 96.4179 70.3408 97.0603 70.6654C97.3201 70.8198 97.5648 70.9988 97.7907 71.2002C98.3777 71.7328 99.0255 72.1939 99.7206 72.5751C101.186 73.4653 102.691 74.385 102.951 75.9953H83.0008C82.9557 75.0002 83.091 73.3252 83.7058 72.7051L83.7051 72.7051ZM111 76.0002H105C104.75 73.2801 102.5 71.8953 100.785 70.8703C100.232 70.564 99.7116 70.2042 99.2299 69.7953C98.8983 69.4873 98.5308 69.2203 98.1349 69.0002C97.5849 68.6453 97.2349 68.4203 97.0849 67.8301C97.7165 67.9476 98.3577 68.0047 99.0001 68.0002C101.95 68.0002 105 66.1302 105 63.0002C104.93 61.1958 104.221 59.4752 103 58.1454V52.5002C103 50.7761 102.315 49.123 101.096 47.9042C99.8773 46.685 98.2242 46.0002 96.5001 46.0002H93.3549C92.0353 46.0029 90.7486 46.4154 89.6737 47.1815C88.5987 47.9476 87.7884 49.0284 87.3549 50.2752H87.3098C86.225 49.7752 84.5501 50.0404 83.2398 50.885H83.2402C81.8348 51.7565 80.9857 53.297 81 54.9502C80.9344 56.5462 81.5656 58.0917 82.7299 59.185C83.9585 60.2015 85.4705 60.8145 87.0599 60.9403C87.142 62.2511 87.1255 63.5666 87.0099 64.8752C86.68 67.4904 85.7148 68.3051 84.1148 69.6551C83.5648 70.1149 82.9447 70.6551 82.2947 71.2953C81.0598 72.5253 80.9495 74.8855 80.9746 76.0002H77V42.0002H111L111 76.0002Z" fill="url(#paint0_linear_134_578)"/>
<path d="M72 66H67V32H101V37C101 37.5522 101.448 38 102 38C102.552 38 103 37.5522 103 37V31C103 30.7348 102.895 30.4804 102.707 30.2929C102.52 30.1054 102.265 30 102 30H66C65.4478 30 65 30.4478 65 31V67C65 67.2652 65.1054 67.5196 65.2929 67.7071C65.4804 67.8946 65.7348 68 66 68H72C72.5522 68 73 67.5522 73 67C73 66.4478 72.5522 66 72 66Z" fill="url(#paint1_linear_134_578)"/>
<path d="M95 53C95 53.5522 94.5522 54 94 54C93.4478 54 93 53.5522 93 53C93 52.4478 93.4478 52 94 52C94.5522 52 95 52.4478 95 53Z" fill="url(#paint2_linear_134_578)"/>
<path d="M99 53C99 53.5522 98.5522 54 98 54C97.4478 54 97 53.5522 97 53C97 52.4478 97.4478 52 98 52C98.5522 52 99 52.4478 99 53Z" fill="url(#paint3_linear_134_578)"/>
<defs>
<filter id="filter0_ddddd_134_578" x="0.0717773" y="0" width="177.138" height="263.431" filterUnits="userSpaceOnUse" color-interpolation-filters="sRGB">
<feFlood flood-opacity="0" result="BackgroundImageFix"/>
<feColorMatrix in="SourceAlpha" type="matrix" values="0 0 0 0 0 0 0 0 0 0 0 0 0 0 0 0 0 0 127 0" result="hardAlpha"/>
<feOffset/>
<feColorMatrix type="matrix" values="0 0 0 0 0.0235294 0 0 0 0 0.227451 0 0 0 0 0.294118 0 0 0 0.05 0"/>
<feBlend mode="normal" in2="BackgroundImageFix" result="effect1_dropShadow_134_578"/>
<feColorMatrix in="SourceAlpha" type="matrix" values="0 0 0 0 0 0 0 0 0 0 0 0 0 0 0 0 0 0 127 0" result="hardAlpha"/>
<feOffset dy="7"/>
<feGaussianBlur stdDeviation="8"/>
<feColorMatrix type="matrix" values="0 0 0 0 0.0235294 0 0 0 0 0.227451 0 0 0 0 0.294118 0 0 0 0.05 0"/>
<feBlend mode="normal" in2="effect1_dropShadow_134_578" result="effect2_dropShadow_134_578"/>
<feColorMatrix in="SourceAlpha" type="matrix" values="0 0 0 0 0 0 0 0 0 0 0 0 0 0 0 0 0 0 127 0" result="hardAlpha"/>
<feOffset dy="29"/>
<feGaussianBlur stdDeviation="14.5"/>
<feColorMatrix type="matrix" values="0 0 0 0 0.0235294 0 0 0 0 0.227451 0 0 0 0 0.294118 0 0 0 0.04 0"/>
<feBlend mode="normal" in2="effect2_dropShadow_134_578" result="effect3_dropShadow_134_578"/>
<feColorMatrix in="SourceAlpha" type="matrix" values="0 0 0 0 0 0 0 0 0 0 0 0 0 0 0 0 0 0 127 0" result="hardAlpha"/>
<feOffset dy="66"/>
<feGaussianBlur stdDeviation="19.5"/>
<feColorMatrix type="matrix" values="0 0 0 0 0.0235294 0 0 0 0 0.227451 0 0 0 0 0.294118 0 0 0 0.03 0"/>
<feBlend mode="normal" in2="effect3_dropShadow_134_578" result="effect4_dropShadow_134_578"/>
<feColorMatrix in="SourceAlpha" type="matrix" values="0 0 0 0 0 0 0 0 0 0 0 0 0 0 0 0 0 0 127 0" result="hardAlpha"/>
<feOffset dy="117"/>
<feGaussianBlur stdDeviation="23.5"/>
<feColorMatrix type="matrix" values="0 0 0 0 0.0235294 0 0 0 0 0.227451 0 0 0 0 0.294118 0 0 0 0.01 0"/>
<feBlend mode="normal" in2="effect4_dropShadow_134_578" result="effect5_dropShadow_134_578"/>
<feBlend mode="normal" in="SourceGraphic" in2="effect5_dropShadow_134_578" result="shape"/>
</filter>
<linearGradient id="paint0_linear_134_578" x1="73.1054" y1="28.9594" x2="118.09" y2="30.3209" gradientUnits="userSpaceOnUse">
<stop stop-color="#7CCBF2"/>
<stop offset="1" stop-color="#0F9EE4"/>
</linearGradient>
<linearGradient id="paint1_linear_134_578" x1="63.1054" y1="18.9594" x2="108.09" y2="20.3209" gradientUnits="userSpaceOnUse">
<stop stop-color="#7CCBF2"/>
<stop offset="1" stop-color="#0F9EE4"/>
</linearGradient>
<linearGradient id="paint2_linear_134_578" x1="92.9003" y1="51.4189" x2="95.2679" y2="51.4906" gradientUnits="userSpaceOnUse">
<stop stop-color="#7CCBF2"/>
<stop offset="1" stop-color="#0F9EE4"/>
</linearGradient>
<linearGradient id="paint3_linear_134_578" x1="96.9003" y1="51.4189" x2="99.2679" y2="51.4906" gradientUnits="userSpaceOnUse">
<stop stop-color="#7CCBF2"/>
<stop offset="1" stop-color="#0F9EE4"/>
</linearGradient>
</defs>
</svg>
