<svg width="140" height="146" viewBox="0 0 140 146" fill="none" xmlns="http://www.w3.org/2000/svg">
<g filter="url(#filter0_d_610_296)">
<path d="M59.5552 25.0303C66.0185 21.2987 73.9815 21.2987 80.4448 25.0303L101.124 36.9697C107.588 40.7013 111.569 47.5975 111.569 55.0606V78.9394C111.569 86.4025 107.588 93.2987 101.124 97.0303L80.4448 108.97C73.9815 112.701 66.0185 112.701 59.5552 108.97L38.8756 97.0303C32.4123 93.2987 28.4308 86.4025 28.4308 78.9394V55.0606C28.4308 47.5975 32.4123 40.7013 38.8756 36.9697L59.5552 25.0303Z" fill="white"/>
</g>
<path d="M53.1761 67.997H56.113C59.4555 67.997 61.5325 69.7007 61.5325 72.4591C61.5325 74.9093 59.3095 76.6617 56.2103 76.6617C53.0625 76.6617 51.0667 75.0066 50.8071 72.6052H48C48.2109 76.4832 51.3425 79.1929 56.2428 79.1929C60.8347 79.1929 64.5018 76.3858 64.5018 72.3618C64.5018 69.0679 62.2302 66.8774 58.6929 66.6665V66.6016C61.6136 66.0823 63.4958 63.973 63.4958 61.0361C63.4958 57.515 60.3317 55 56.1454 55C51.7482 55 48.7951 57.5475 48.4706 61.5228H51.2776C51.5373 59.0727 53.3221 57.5313 56.0156 57.5313C58.985 57.5313 60.5589 59.1052 60.5589 61.4255C60.5589 63.7945 58.6767 65.5306 55.9832 65.5306H53.1761V67.997Z" fill="url(#paint0_linear_610_296)"/>
<path d="M69.905 78.9657C70.9597 78.9657 71.7548 78.1544 71.7548 77.116C71.7548 76.0613 70.9597 75.2662 69.905 75.2662C68.8666 75.2662 68.0553 76.0613 68.0553 77.116C68.0553 78.1544 68.8666 78.9657 69.905 78.9657Z" fill="url(#paint1_linear_610_296)"/>
<path d="M84.2163 79.1929C89.6683 79.1929 92.8161 74.4712 92.8161 67.0721C92.8161 59.7218 89.652 55 84.2163 55C78.7807 55 75.5841 59.7542 75.5841 67.0883C75.5841 74.4874 78.7482 79.1929 84.2163 79.1929ZM84.2163 76.6454C80.5493 76.6454 78.521 72.9135 78.521 67.0721C78.521 61.3606 80.598 57.5637 84.2163 57.5637C87.8347 57.5637 89.8792 61.3281 89.8792 67.0883C89.8792 72.9297 87.8672 76.6454 84.2163 76.6454Z" fill="url(#paint2_linear_610_296)"/>
<defs>
<filter id="filter0_d_610_296" x="0.430786" y="0.231628" width="139.138" height="145.537" filterUnits="userSpaceOnUse" color-interpolation-filters="sRGB">
<feFlood flood-opacity="0" result="BackgroundImageFix"/>
<feColorMatrix in="SourceAlpha" type="matrix" values="0 0 0 0 0 0 0 0 0 0 0 0 0 0 0 0 0 0 127 0" result="hardAlpha"/>
<feOffset dy="6"/>
<feGaussianBlur stdDeviation="14"/>
<feComposite in2="hardAlpha" operator="out"/>
<feColorMatrix type="matrix" values="0 0 0 0 0.0235294 0 0 0 0 0.227451 0 0 0 0 0.294118 0 0 0 0.15 0"/>
<feBlend mode="normal" in2="BackgroundImageFix" result="effect1_dropShadow_610_296"/>
<feBlend mode="normal" in="SourceGraphic" in2="effect1_dropShadow_610_296" result="shape"/>
</filter>
<linearGradient id="paint0_linear_610_296" x1="45.7656" y1="47.971" x2="98.7016" y2="50.9389" gradientUnits="userSpaceOnUse">
<stop stop-color="#7CCBF2"/>
<stop offset="1" stop-color="#0F9EE4"/>
</linearGradient>
<linearGradient id="paint1_linear_610_296" x1="45.7656" y1="47.971" x2="98.7016" y2="50.9389" gradientUnits="userSpaceOnUse">
<stop stop-color="#7CCBF2"/>
<stop offset="1" stop-color="#0F9EE4"/>
</linearGradient>
<linearGradient id="paint2_linear_610_296" x1="45.7656" y1="47.971" x2="98.7016" y2="50.9389" gradientUnits="userSpaceOnUse">
<stop stop-color="#7CCBF2"/>
<stop offset="1" stop-color="#0F9EE4"/>
</linearGradient>
</defs>
</svg>
