<svg width="178" height="266" viewBox="0 0 178 266" fill="none" xmlns="http://www.w3.org/2000/svg">
<g filter="url(#filter0_ddddd_134_573)">
<mask id="path-1-inside-1_134_573" fill="white">
<path d="M82.0702 10.8192C86.0918 8.49729 91.0466 8.49729 95.0682 10.8192L123.639 27.3148C127.661 29.6366 130.138 33.9276 130.138 38.5714V71.5626C130.138 76.2063 127.661 80.4973 123.639 82.8192L95.0682 99.3148C91.0466 101.637 86.0918 101.637 82.0702 99.3148L53.4989 82.8192C49.4773 80.4973 46.9999 76.2063 46.9999 71.5626V38.5714C46.9999 33.9276 49.4773 29.6366 53.4989 27.3148L82.0702 10.8192Z"/>
</mask>
<path d="M82.0702 10.8192C86.0918 8.49729 91.0466 8.49729 95.0682 10.8192L123.639 27.3148C127.661 29.6366 130.138 33.9276 130.138 38.5714V71.5626C130.138 76.2063 127.661 80.4973 123.639 82.8192L95.0682 99.3148C91.0466 101.637 86.0918 101.637 82.0702 99.3148L53.4989 82.8192C49.4773 80.4973 46.9999 76.2063 46.9999 71.5626V38.5714C46.9999 33.9276 49.4773 29.6366 53.4989 27.3148L82.0702 10.8192Z" fill="white"/>
<path d="M53.4989 82.8192L53.0927 83.5227L53.4989 82.8192ZM95.0682 99.3148L94.662 98.6112L95.0682 99.3148ZM82.0702 99.3148L82.4763 98.6112L82.0702 99.3148ZM123.639 27.3148L124.046 26.6112L123.639 27.3148ZM95.0682 10.8192L95.4743 10.1156L95.0682 10.8192ZM94.662 11.5227L123.233 28.0183L124.046 26.6112L95.4743 10.1156L94.662 11.5227ZM129.326 38.5714V71.5626H130.951V38.5714H129.326ZM123.233 82.1156L94.662 98.6112L95.4743 100.018L124.046 83.5227L123.233 82.1156ZM82.4763 98.6112L53.9051 82.1156L53.0927 83.5227L81.664 100.018L82.4763 98.6112ZM47.8123 71.5626V38.5714H46.1876V71.5626H47.8123ZM53.9051 28.0183L82.4763 11.5227L81.664 10.1156L53.0927 26.6112L53.9051 28.0183ZM47.8123 38.5714C47.8123 34.2179 50.1349 30.1951 53.9051 28.0183L53.0927 26.6112C48.8198 29.0782 46.1876 33.6374 46.1876 38.5714H47.8123ZM53.9051 82.1156C50.1349 79.9389 47.8123 75.9161 47.8123 71.5626H46.1876C46.1876 76.4965 48.8198 81.0557 53.0927 83.5227L53.9051 82.1156ZM94.662 98.6112C90.8917 100.788 86.2466 100.788 82.4763 98.6112L81.664 100.018C85.9369 102.485 91.2014 102.485 95.4743 100.018L94.662 98.6112ZM129.326 71.5626C129.326 75.9161 127.003 79.9389 123.233 82.1156L124.046 83.5227C128.319 81.0557 130.951 76.4965 130.951 71.5626H129.326ZM123.233 28.0183C127.003 30.1951 129.326 34.2179 129.326 38.5714H130.951C130.951 33.6374 128.319 29.0782 124.046 26.6112L123.233 28.0183ZM95.4743 10.1156C91.2014 7.64864 85.9369 7.64864 81.664 10.1156L82.4763 11.5227C86.2466 9.34595 90.8917 9.34595 94.662 11.5227L95.4743 10.1156Z" fill="#A6A6B0" fill-opacity="0.05" mask="url(#path-1-inside-1_134_573)"/>
</g>
<path d="M71.7842 55.3473H74.7211C78.0637 55.3473 80.1406 57.0511 80.1406 59.8095C80.1406 62.2596 77.9177 64.012 74.8185 64.012C71.6707 64.012 69.6749 62.357 69.4152 59.9555H66.6082C66.8191 63.8335 69.9507 66.5433 74.8509 66.5433C79.4429 66.5433 83.11 63.7362 83.11 59.7121C83.11 56.4183 80.8383 54.2277 77.3011 54.0168V53.9519C80.2217 53.4327 82.1039 51.3233 82.1039 48.3864C82.1039 44.8654 78.9399 42.3503 74.7536 42.3503C70.3564 42.3503 67.4032 44.8978 67.0787 48.8732H69.8858C70.1454 46.4231 71.9303 44.8816 74.6238 44.8816C77.5931 44.8816 79.167 46.4555 79.167 48.7758C79.167 51.1448 77.2848 52.881 74.5913 52.881H71.7842V55.3473Z" fill="url(#paint0_linear_134_573)"/>
<path d="M88.5132 66.3161C89.5679 66.3161 90.363 65.5048 90.363 64.4663C90.363 63.4116 89.5679 62.6166 88.5132 62.6166C87.4747 62.6166 86.6634 63.4116 86.6634 64.4663C86.6634 65.5048 87.4747 66.3161 88.5132 66.3161Z" fill="url(#paint1_linear_134_573)"/>
<path d="M102.825 66.5433C108.276 66.5433 111.424 61.8215 111.424 54.4225C111.424 47.0721 108.26 42.3503 102.825 42.3503C97.3888 42.3503 94.1923 47.1045 94.1923 54.4387C94.1923 61.8377 97.3564 66.5433 102.825 66.5433ZM102.825 63.9958C99.1574 63.9958 97.1292 60.2638 97.1292 54.4225C97.1292 48.7109 99.2061 44.914 102.825 44.914C106.443 44.914 108.487 48.6785 108.487 54.4387C108.487 60.28 106.475 63.9958 102.825 63.9958Z" fill="url(#paint2_linear_134_573)"/>
<defs>
<filter id="filter0_ddddd_134_573" x="-6.10352e-05" y="0.0777588" width="177.138" height="264.978" filterUnits="userSpaceOnUse" color-interpolation-filters="sRGB">
<feFlood flood-opacity="0" result="BackgroundImageFix"/>
<feColorMatrix in="SourceAlpha" type="matrix" values="0 0 0 0 0 0 0 0 0 0 0 0 0 0 0 0 0 0 127 0" result="hardAlpha"/>
<feOffset/>
<feColorMatrix type="matrix" values="0 0 0 0 0.0235294 0 0 0 0 0.227451 0 0 0 0 0.294118 0 0 0 0.05 0"/>
<feBlend mode="normal" in2="BackgroundImageFix" result="effect1_dropShadow_134_573"/>
<feColorMatrix in="SourceAlpha" type="matrix" values="0 0 0 0 0 0 0 0 0 0 0 0 0 0 0 0 0 0 127 0" result="hardAlpha"/>
<feOffset dy="7"/>
<feGaussianBlur stdDeviation="8"/>
<feColorMatrix type="matrix" values="0 0 0 0 0.0235294 0 0 0 0 0.227451 0 0 0 0 0.294118 0 0 0 0.05 0"/>
<feBlend mode="normal" in2="effect1_dropShadow_134_573" result="effect2_dropShadow_134_573"/>
<feColorMatrix in="SourceAlpha" type="matrix" values="0 0 0 0 0 0 0 0 0 0 0 0 0 0 0 0 0 0 127 0" result="hardAlpha"/>
<feOffset dy="29"/>
<feGaussianBlur stdDeviation="14.5"/>
<feColorMatrix type="matrix" values="0 0 0 0 0.0235294 0 0 0 0 0.227451 0 0 0 0 0.294118 0 0 0 0.04 0"/>
<feBlend mode="normal" in2="effect2_dropShadow_134_573" result="effect3_dropShadow_134_573"/>
<feColorMatrix in="SourceAlpha" type="matrix" values="0 0 0 0 0 0 0 0 0 0 0 0 0 0 0 0 0 0 127 0" result="hardAlpha"/>
<feOffset dy="66"/>
<feGaussianBlur stdDeviation="19.5"/>
<feColorMatrix type="matrix" values="0 0 0 0 0.0235294 0 0 0 0 0.227451 0 0 0 0 0.294118 0 0 0 0.03 0"/>
<feBlend mode="normal" in2="effect3_dropShadow_134_573" result="effect4_dropShadow_134_573"/>
<feColorMatrix in="SourceAlpha" type="matrix" values="0 0 0 0 0 0 0 0 0 0 0 0 0 0 0 0 0 0 127 0" result="hardAlpha"/>
<feOffset dy="117"/>
<feGaussianBlur stdDeviation="23.5"/>
<feColorMatrix type="matrix" values="0 0 0 0 0.0235294 0 0 0 0 0.227451 0 0 0 0 0.294118 0 0 0 0.01 0"/>
<feBlend mode="normal" in2="effect4_dropShadow_134_573" result="effect5_dropShadow_134_573"/>
<feBlend mode="normal" in="SourceGraphic" in2="effect5_dropShadow_134_573" result="shape"/>
</filter>
<linearGradient id="paint0_linear_134_573" x1="64.3737" y1="35.3213" x2="117.31" y2="38.2892" gradientUnits="userSpaceOnUse">
<stop stop-color="#7CCBF2"/>
<stop offset="1" stop-color="#0F9EE4"/>
</linearGradient>
<linearGradient id="paint1_linear_134_573" x1="64.3737" y1="35.3213" x2="117.31" y2="38.2892" gradientUnits="userSpaceOnUse">
<stop stop-color="#7CCBF2"/>
<stop offset="1" stop-color="#0F9EE4"/>
</linearGradient>
<linearGradient id="paint2_linear_134_573" x1="64.3737" y1="35.3213" x2="117.31" y2="38.2892" gradientUnits="userSpaceOnUse">
<stop stop-color="#7CCBF2"/>
<stop offset="1" stop-color="#0F9EE4"/>
</linearGradient>
</defs>
</svg>
